<svg version="1.1" viewBox="0.0 0.0 960.0 540.0" fill="none" stroke="none" stroke-linecap="square" stroke-miterlimit="10" xmlns:xlink="http://www.w3.org/1999/xlink" xmlns="http://www.w3.org/2000/svg"><clipPath id="g9627d3c135_1_187.0"><path d="m0 0l960.0 0l0 540.0l-960.0 0l0 -540.0z" clip-rule="nonzero"/></clipPath><g clip-path="url(#g9627d3c135_1_187.0)"><path fill="#ffffff" d="m0 0l960.0 0l0 540.0l-960.0 0z" fill-rule="evenodd"/><path fill="#000000" fill-opacity="0.0" d="m110.388405 328.33414c6.14196 -12.589142 25.766167 -56.619965 36.851738 -75.53479c11.085587 -18.914825 18.089157 -34.18364 29.661774 -37.954163c11.572632 -3.7705078 33.14496 12.775909 39.773956 15.331085" fill-rule="evenodd"/><path stroke="#2fbdb4" stroke-width="12.0" stroke-linejoin="round" stroke-linecap="butt" d="m110.388405 328.33414c6.14196 -12.589142 25.766167 -56.619965 36.851738 -75.53479c11.085587 -18.914825 18.089157 -34.18364 29.661774 -37.954163c11.572632 -3.7705078 33.14496 12.775909 39.773956 15.331085" fill-rule="evenodd"/><path fill="#000000" fill-opacity="0.0" d="m319.40433 200.07318c2.9213257 0.49861145 10.112396 -2.7419586 17.527954 2.9917145c7.415558 5.7336884 12.209534 10.532211 26.965363 31.410385c14.755859 20.87819 51.308075 78.215576 61.56967 93.8587" fill-rule="evenodd"/><path stroke="#a92d84" stroke-width="12.0" stroke-linejoin="round" stroke-linecap="butt" d="m319.40433 200.07318c2.9213257 0.49861145 10.112396 -2.7419586 17.527954 2.9917145c7.415558 5.7336884 12.209534 10.532211 26.965363 31.410385c14.755859 20.87819 51.308075 78.215576 61.56967 93.8587" fill-rule="evenodd"/><path fill="#2fbdb4" fill-opacity="0.7368" d="m178.31831 296.45245c0.6264801 0 1.1468811 0.3691101 1.1468811 0.8134155l0 16.517578c0 0.44430542 -0.520401 0.8134155 -1.1468811 0.8134155l-23.18631 0c-0.7292328 0 -1.1468964 -0.3691101 -1.1468964 -0.8134155l0 -16.517578c0 -0.44430542 0.41766357 -0.8134155 1.1468964 -0.8134155zm-21.094742 -5.110901c-0.6264801 0 -1.1502075 0.3691101 -1.1502075 0.8134155l0 2.5202026l-1.252945 0c-1.8794403 0 -3.4472961 1.1096191 -3.4472961 2.5178223l0 0.8134155l-3.5500336 0c-0.6264801 0 -1.1468811 0.37145996 -1.1468811 0.8157654c0 0.44433594 0.520401 0.81344604 1.1468811 0.81344604l3.5500336 0l0 1.7044067l-3.5500336 0c-0.6264801 0 -1.1468811 0.37142944 -1.1468811 0.8157654c0 0.5172119 0.520401 0.88864136 1.1468811 0.88864136l3.5500336 0l0 1.6291809l-3.5500336 0c-0.6264801 0 -1.1468811 0.3691101 -1.1468811 0.8134155c0 0.51956177 0.520401 0.8886719 1.1468811 0.8886719l3.5500336 0l0 1.6315308l-3.5500336 0c-0.6264801 0 -1.1468811 0.3690796 -1.1468811 0.8134155c0 0.51956177 0.520401 0.88864136 1.1468811 0.88864136l3.5500336 0l0 1.6291809l-3.5500336 0c-0.6264801 0 -1.1468811 0.37145996 -1.1468811 0.8157654c0 0.5172119 0.520401 0.8886719 1.1468811 0.8886719l3.5500336 0l0 0.8134155c0 1.4082031 1.5678558 2.520172 3.4472961 2.520172l1.252945 0l0 2.4425964c0 0.51956177 0.5237274 0.8886719 1.1502075 0.8886719c0.6264801 0 1.1468811 -0.3691101 1.1468811 -0.8886719l0 -2.665924l2.4031677 0l0 2.5178223c0 0.44433594 0.520401 0.8157654 1.1468811 0.8157654c0.6264801 0 1.1501923 -0.37142944 1.1501923 -0.8157654l0 -2.5178223l2.3998413 0l0 2.5178223c0 0.44433594 0.5237274 0.8157654 1.1502075 0.8157654c0.6264801 0 1.1501923 -0.37142944 1.1501923 -0.8157654l0 -2.5178223l2.3998413 0l0 2.5178223c0 0.44433594 0.5237274 0.8157654 1.1502075 0.8157654c0.6264801 0 1.1468811 -0.37142944 1.1468811 -0.8157654l0 -2.5178223l2.4031525 0l0 2.5178223c0 0.44433594 0.52041626 0.8157654 1.1468964 0.8157654c0.6264801 0 1.1501923 -0.37142944 1.1501923 -0.8157654l0 -2.5178223l1.1502075 0c1.982193 0 3.5500336 -1.1119995 3.5500336 -2.5178528l0 -0.8157654l3.5500488 0c0.6264801 0 1.1468811 -0.3690796 1.1468811 -0.8134155c0 -0.44430542 -0.520401 -0.8157654 -1.1468811 -0.8157654l-3.5500488 0l0 -1.7020569l3.5500488 0c0.6264801 0 1.1468811 -0.37145996 1.1468811 -0.8157654c0 -0.5172119 -0.520401 -0.88864136 -1.1468811 -0.88864136l-3.5500488 0l0 -1.6292114l3.5500488 0c0.6264801 0 1.1468811 -0.37142944 1.1468811 -0.8157654c0 -0.5171814 -0.520401 -0.88864136 -1.1468811 -0.88864136l-3.5500488 0l0 -1.6291809l3.5500488 0l0 0.22332764c0.6264801 0 1.1468811 -0.37142944 1.1468811 -0.88864136c0 -0.44433594 -0.520401 -0.8157654 -1.1468811 -0.8157654l-3.5500488 0l0 -1.7044067l3.5500488 0c0.6264801 0 1.1468811 -0.3691101 1.1468811 -0.81344604c0 -0.44430542 -0.520401 -0.8157654 -1.1468811 -0.8157654l-3.5500488 0l0 -0.8134155c0 -1.4082031 -1.5678406 -2.5178223 -3.5500336 -2.5178223l-1.1502075 0l0 -2.5202026c0 -0.44430542 -0.52371216 -0.8134155 -1.1501923 -0.8134155c-0.6264801 0 -1.1468964 0.3691101 -1.1468964 0.8134155l0 2.5202026l-2.4031525 0l0 -2.5202026c0 -0.44430542 -0.520401 -0.8134155 -1.1468811 -0.8134155c-0.6264801 0 -1.1502075 0.3691101 -1.1502075 0.8134155l0 2.5202026l-2.3998413 0l0 -2.5202026c0 -0.44430542 -0.52371216 -0.8134155 -1.1501923 -0.8134155c-0.6264801 0 -1.1502075 0.3691101 -1.1502075 0.8134155l0 2.5202026l-2.3998413 0l0 -2.5202026c0 -0.44430542 -0.52371216 -0.8134155 -1.1501923 -0.8134155c-0.6264801 0 -1.1468811 0.3691101 -1.1468811 0.8134155l0 2.5202026l-2.4031677 0l0 -2.5202026c0 -0.44430542 -0.520401 -0.8134155 -1.1468811 -0.8134155z" fill-rule="evenodd"/><path fill="#2fbdb4" fill-opacity="0.7368" d="m157.4324 298.0064c-0.6264801 0 -1.1502075 0.37145996 -1.1502075 0.8157654c0 0.5172119 0.5237274 0.8886719 1.1502075 0.8886719c0.62646484 0 1.1468811 -0.37145996 1.1468811 -0.8886719c0 -0.44430542 -0.52041626 -0.8157654 -1.1468811 -0.8157654z" fill-rule="evenodd"/><path fill="#2fbdb4" fill-opacity="0.7368" d="m157.4324 311.2656c-0.6264801 0 -1.1502075 0.3691101 -1.1502075 0.8134155c0 0.44433594 0.5237274 0.8157654 1.1502075 0.8157654c0.62646484 0 1.1468811 -0.37142944 1.1468811 -0.8157654c0 -0.44430542 -0.52041626 -0.8134155 -1.1468811 -0.8134155z" fill-rule="evenodd"/><path fill="#2fbdb4" fill-opacity="0.7368" d="m176.12398 311.2656c-0.6264801 0 -1.1501923 0.3691101 -1.1501923 0.8134155c0 0.44433594 0.52371216 0.8157654 1.1501923 0.8157654c0.6264801 0 1.1502075 -0.37142944 1.1502075 -0.8157654c0 -0.44430542 -0.5237274 -0.8134155 -1.1502075 -0.8134155z" fill-rule="evenodd"/><path fill="#2fbdb4" fill-opacity="0.7368" d="m176.12398 298.0064c-0.6264801 0 -1.1501923 0.37145996 -1.1501923 0.8157654c0 0.44433594 0.52371216 0.8886719 1.1501923 0.8886719c0.6264801 0 1.1502075 -0.44433594 1.1502075 -0.8886719c0 -0.44430542 -0.5237274 -0.8157654 -1.1502075 -0.8157654z" fill-rule="evenodd"/><path fill="#2fbdb4" fill-opacity="0.7368" d="m167.8737 300.5995l0 0.2962036c0 0.37145996 0.31489563 0.6676636 0.83529663 0.74053955c0.6264801 0.1481018 1.2529602 0.44433594 1.7766724 0.74053955c0.26187134 0.094055176 0.5701294 0.18807983 0.8651428 0.18807983c0.16905212 0 0.33810425 -0.03289795 0.49057007 -0.112854004l0.41766357 -0.1481018l1.1501923 1.3329773l-0.41764832 0.22097778c-0.41764832 0.1481018 -0.6264801 0.51956177 -0.5237274 0.8157654c0.1060791 0.5172119 0.1060791 0.96154785 0 1.4810791c-0.102752686 0.3691101 0.1060791 0.6653137 0.5237274 0.8134155l0.41764832 0.22335815l-1.1501923 1.3329773l-0.41766357 -0.14813232c-0.18562317 -0.065826416 -0.3944397 -0.10342407 -0.60658264 -0.10342407c-0.25854492 0 -0.52041626 0.05407715 -0.74913025 0.1786499c-0.52371216 0.3691101 -1.1501923 0.59243774 -1.7766724 0.74053955c-0.520401 0.14813232 -0.83529663 0.5172119 -0.83529663 0.74053955l0 0.29623413l-2.2970886 0l0 -0.29623413c0 -0.37142944 -0.31489563 -0.5924072 -0.8353119 -0.74053955c-0.6264801 -0.1481018 -1.252945 -0.44430542 -1.7766724 -0.74053955c-0.26185608 -0.09402466 -0.5701294 -0.18804932 -0.8651428 -0.18804932c-0.16903687 0 -0.338089 0.030548096 -0.49057007 0.11282349l-0.41764832 0.14813232l-1.1502075 -1.3329773l0.41764832 -0.22335815c0.41766357 -0.1481018 0.6264801 -0.5171814 0.5237274 -0.8134155c-0.10606384 -0.51953125 -0.10606384 -0.9638672 0 -1.4810791c0.102752686 -0.37142944 -0.10606384 -0.6676636 -0.5237274 -0.8157654l-0.41764832 -0.22097778l1.1502075 -1.3329773l0.41764832 0.1481018c0.19224548 0.10345459 0.411026 0.15753174 0.6264801 0.15753174c0.2519226 0 0.5071411 -0.07287598 0.7292328 -0.23275757c0.5237274 -0.3690796 1.1501923 -0.59243774 1.7766724 -0.74053955c0.52041626 -0.07287598 0.8353119 -0.44430542 0.8353119 -0.74053955l0 -0.2962036zm-3.341217 -1.7773132c-0.7325592 0 -1.2529602 0.3691101 -1.2529602 0.81344604l0 0.5924072c-0.31489563 0.07522583 -0.73254395 0.29858398 -1.0441284 0.4466858l-0.6264801 -0.2962036c-0.16574097 -0.047027588 -0.35136414 -0.072906494 -0.54029846 -0.072906494c-0.40438843 0 -0.8121033 0.11520386 -1.0275574 0.3691101l-2.2970886 2.8869324c-0.3115692 0.37142944 -0.20881653 0.88864136 0.31489563 1.111969l0.72924805 0.29623413l0 0.88864136l-0.72924805 0.2962036c-0.41764832 0.14813232 -0.73254395 0.74053955 -0.31489563 1.1096497l2.2970886 2.8892822c0.19888306 0.2350769 0.5635071 0.38082886 0.9380646 0.38082886c0.21876526 0 0.43754578 -0.049346924 0.62979126 -0.15750122l0.6264801 -0.22332764c0.41764832 0.1481018 0.83529663 0.37142944 1.0441284 0.44430542l0 0.51956177c0 0.5172119 0.520401 0.88864136 1.2529602 0.88864136l4.700241 0c0.6264801 0 1.1468811 -0.37142944 1.1468811 -0.88864136l0 -0.51956177c0.41764832 -0.07287598 0.73254395 -0.2962036 1.0441284 -0.44430542l0.6264801 0.22332764c0.1955719 0.08227539 0.43754578 0.12460327 0.6695709 0.12460327c0.39112854 0 0.76568604 -0.11520386 0.8982849 -0.3479309l2.3998413 -2.8892822c0.20881653 -0.3691101 0.10606384 -0.8134155 -0.41764832 -1.1096497l-0.6264801 -0.2962036l0 -0.88864136l0.6264801 -0.29623413c0.52371216 -0.22332764 0.73254395 -0.74053955 0.41764832 -1.111969l-2.3998413 -2.8869324c-0.14253235 -0.25390625 -0.57344055 -0.40200806 -0.99772644 -0.40200806c-0.20219421 0 -0.40107727 0.03289795 -0.5701294 0.10580444l-0.6264801 0.2962036c-0.41764832 -0.1481018 -0.83529663 -0.37145996 -1.0441284 -0.4466858l0 -0.5924072c0 -0.44433594 -0.520401 -0.81344604 -1.1468811 -0.81344604z" fill-rule="evenodd"/><path fill="#2fbdb4" fill-opacity="0.7368" d="m166.7268 304.5984c0.6264801 0 1.1468964 0.37145996 1.1468964 0.8157654c0 0.44433594 -0.52041626 0.8134155 -1.1468964 0.8134155c-0.62979126 0 -1.1501923 -0.3690796 -1.1501923 -0.8134155c0 -0.44430542 0.520401 -0.8157654 1.1501923 -0.8157654zm0 -1.5539551c-1.9855042 0 -3.5533447 1.1096497 -3.5533447 2.4425964c0 1.4082031 1.5678406 2.5202026 3.5533447 2.5202026c1.982193 0 3.5500488 -1.1119995 3.5500488 -2.5202026c0 -1.3329468 -1.5678558 -2.4425964 -3.5500488 -2.4425964z" fill-rule="evenodd"/><path fill="#6f3ea1" d="m281.16797 296.45245c0.62646484 0 1.1468811 0.3691101 1.1468811 0.8134155l0 16.517578c0 0.44430542 -0.52041626 0.8134155 -1.1468811 0.8134155l-23.18631 0c-0.72924805 0 -1.1468811 -0.3691101 -1.1468811 -0.8134155l0 -16.517578c0 -0.44430542 0.41763306 -0.8134155 1.1468811 -0.8134155zm-21.094727 -5.110901c-0.62649536 0 -1.1502075 0.3691101 -1.1502075 0.8134155l0 2.5202026l-1.2529602 0c-1.8794403 0 -3.447281 1.1096191 -3.447281 2.5178223l0 0.8134155l-3.5500488 0c-0.6264801 0 -1.1468811 0.37145996 -1.1468811 0.8157654c0 0.44433594 0.520401 0.81344604 1.1468811 0.81344604l3.5500488 0l0 1.7044067l-3.5500488 0c-0.6264801 0 -1.1468811 0.37142944 -1.1468811 0.8157654c0 0.5172119 0.520401 0.88864136 1.1468811 0.88864136l3.5500488 0l0 1.6291809l-3.5500488 0c-0.6264801 0 -1.1468811 0.3691101 -1.1468811 0.8134155c0 0.51956177 0.520401 0.8886719 1.1468811 0.8886719l3.5500488 0l0 1.6315308l-3.5500488 0c-0.6264801 0 -1.1468811 0.3690796 -1.1468811 0.8134155c0 0.51956177 0.520401 0.88864136 1.1468811 0.88864136l3.5500488 0l0 1.6291809l-3.5500488 0c-0.6264801 0 -1.1468811 0.37145996 -1.1468811 0.8157654c0 0.5172119 0.520401 0.8886719 1.1468811 0.8886719l3.5500488 0l0 0.8134155c0 1.4082031 1.5678406 2.520172 3.447281 2.520172l1.2529602 0l0 2.4425964c0 0.51956177 0.52371216 0.8886719 1.1502075 0.8886719c0.62646484 0 1.1468811 -0.3691101 1.1468811 -0.8886719l0 -2.665924l2.4031372 0l0 2.5178223c0 0.44433594 0.52041626 0.8157654 1.1469116 0.8157654c0.62646484 0 1.150177 -0.37142944 1.150177 -0.8157654l0 -2.5178223l2.3998413 0l0 2.5178223c0 0.44433594 0.5237427 0.8157654 1.1502075 0.8157654c0.62646484 0 1.1502075 -0.37142944 1.1502075 -0.8157654l0 -2.5178223l2.3998413 0l0 2.5178223c0 0.44433594 0.52371216 0.8157654 1.1502075 0.8157654c0.62646484 0 1.1468811 -0.37142944 1.1468811 -0.8157654l0 -2.5178223l2.4031372 0l0 2.5178223c0 0.44433594 0.52041626 0.8157654 1.1469116 0.8157654c0.62646484 0 1.150177 -0.37142944 1.150177 -0.8157654l0 -2.5178223l1.1502075 0c1.9821777 0 3.5500488 -1.1119995 3.5500488 -2.5178528l0 -0.8157654l3.5500488 0c0.62646484 0 1.1468811 -0.3690796 1.1468811 -0.8134155c0 -0.44430542 -0.52041626 -0.8157654 -1.1468811 -0.8157654l-3.5500488 0l0 -1.7020569l3.5500488 0c0.62646484 0 1.1468811 -0.37145996 1.1468811 -0.8157654c0 -0.5172119 -0.52041626 -0.88864136 -1.1468811 -0.88864136l-3.5500488 0l0 -1.6292114l3.5500488 0c0.62646484 0 1.1468811 -0.37142944 1.1468811 -0.8157654c0 -0.5171814 -0.52041626 -0.88864136 -1.1468811 -0.88864136l-3.5500488 0l0 -1.6291809l3.5500488 0l0 0.22332764c0.62646484 0 1.1468811 -0.37142944 1.1468811 -0.88864136c0 -0.44433594 -0.52041626 -0.8157654 -1.1468811 -0.8157654l-3.5500488 0l0 -1.7044067l3.5500488 0c0.62646484 0 1.1468811 -0.3691101 1.1468811 -0.81344604c0 -0.44430542 -0.52041626 -0.8157654 -1.1468811 -0.8157654l-3.5500488 0l0 -0.8134155c0 -1.4082031 -1.5678711 -2.5178223 -3.5500488 -2.5178223l-1.1502075 0l0 -2.5202026c0 -0.44430542 -0.52371216 -0.8134155 -1.150177 -0.8134155c-0.62649536 0 -1.1469116 0.3691101 -1.1469116 0.8134155l0 2.5202026l-2.4031372 0l0 -2.5202026c0 -0.44430542 -0.52041626 -0.8134155 -1.1468811 -0.8134155c-0.62649536 0 -1.1502075 0.3691101 -1.1502075 0.8134155l0 2.5202026l-2.3998413 0l0 -2.5202026c0 -0.44430542 -0.5237427 -0.8134155 -1.1502075 -0.8134155c-0.62646484 0 -1.1502075 0.3691101 -1.1502075 0.8134155l0 2.5202026l-2.3998413 0l0 -2.5202026c0 -0.44430542 -0.52371216 -0.8134155 -1.150177 -0.8134155c-0.62649536 0 -1.1469116 0.3691101 -1.1469116 0.8134155l0 2.5202026l-2.4031372 0l0 -2.5202026c0 -0.44430542 -0.52041626 -0.8134155 -1.1468811 -0.8134155z" fill-rule="evenodd"/><path fill="#6f3ea1" d="m260.28204 298.0064c-0.62646484 0 -1.150177 0.37145996 -1.150177 0.8157654c0 0.5172119 0.52371216 0.8886719 1.150177 0.8886719c0.62649536 0 1.1469116 -0.37145996 1.1469116 -0.8886719c0 -0.44430542 -0.52041626 -0.8157654 -1.1469116 -0.8157654z" fill-rule="evenodd"/><path fill="#6f3ea1" d="m260.28204 311.2656c-0.62646484 0 -1.150177 0.3691101 -1.150177 0.8134155c0 0.44433594 0.52371216 0.8157654 1.150177 0.8157654c0.62649536 0 1.1469116 -0.37142944 1.1469116 -0.8157654c0 -0.44430542 -0.52041626 -0.8134155 -1.1469116 -0.8134155z" fill-rule="evenodd"/><path fill="#6f3ea1" d="m278.97363 311.2656c-0.62646484 0 -1.1502075 0.3691101 -1.1502075 0.8134155c0 0.44433594 0.5237427 0.8157654 1.1502075 0.8157654c0.62649536 0 1.1502075 -0.37142944 1.1502075 -0.8157654c0 -0.44430542 -0.52371216 -0.8134155 -1.1502075 -0.8134155z" fill-rule="evenodd"/><path fill="#6f3ea1" d="m278.97363 298.0064c-0.62646484 0 -1.1502075 0.37145996 -1.1502075 0.8157654c0 0.44433594 0.5237427 0.8886719 1.1502075 0.8886719c0.62649536 0 1.1502075 -0.44433594 1.1502075 -0.8886719c0 -0.44430542 -0.52371216 -0.8157654 -1.1502075 -0.8157654z" fill-rule="evenodd"/><path fill="#6f3ea1" d="m270.72336 300.5995l0 0.2962036c0 0.37145996 0.31488037 0.6676636 0.83529663 0.74053955c0.62649536 0.1481018 1.2529602 0.44433594 1.7766724 0.74053955c0.26187134 0.094055176 0.5701294 0.18807983 0.8651428 0.18807983c0.16906738 0 0.33810425 -0.03289795 0.49057007 -0.112854004l0.41766357 -0.1481018l1.1502075 1.3329773l-0.41766357 0.22097778c-0.41766357 0.1481018 -0.62646484 0.51956177 -0.52371216 0.8157654c0.106048584 0.5172119 0.106048584 0.96154785 0 1.4810791c-0.102752686 0.3691101 0.106048584 0.6653137 0.52371216 0.8134155l0.41766357 0.22335815l-1.1502075 1.3329773l-0.41766357 -0.14813232c-0.18560791 -0.065826416 -0.3944397 -0.10342407 -0.6065674 -0.10342407c-0.25854492 0 -0.52041626 0.05407715 -0.7491455 0.1786499c-0.52371216 0.3691101 -1.150177 0.59243774 -1.7766724 0.74053955c-0.52041626 0.14813232 -0.83529663 0.5172119 -0.83529663 0.74053955l0 0.29623413l-2.2970886 0l0 -0.29623413c0 -0.37142944 -0.3149109 -0.5924072 -0.83529663 -0.74053955c-0.62649536 -0.1481018 -1.2529602 -0.44430542 -1.7766724 -0.74053955c-0.26187134 -0.09402466 -0.5701294 -0.18804932 -0.8651428 -0.18804932c-0.16906738 0 -0.33810425 0.030548096 -0.49057007 0.11282349l-0.41766357 0.14813232l-1.1502075 -1.3329773l0.41766357 -0.22335815c0.41763306 -0.1481018 0.62646484 -0.5171814 0.52371216 -0.8134155c-0.1060791 -0.51953125 -0.1060791 -0.9638672 0 -1.4810791c0.102752686 -0.37142944 -0.1060791 -0.6676636 -0.52371216 -0.8157654l-0.41766357 -0.22097778l1.1502075 -1.3329773l0.41766357 0.1481018c0.19223022 0.10345459 0.41101074 0.15753174 0.62646484 0.15753174c0.2519226 0 0.5071411 -0.07287598 0.72924805 -0.23275757c0.52371216 -0.3690796 1.150177 -0.59243774 1.7766724 -0.74053955c0.52038574 -0.07287598 0.83529663 -0.44430542 0.83529663 -0.74053955l0 -0.2962036zm-3.341217 -1.7773132c-0.73254395 0 -1.2529602 0.3691101 -1.2529602 0.81344604l0 0.5924072c-0.31488037 0.07522583 -0.73254395 0.29858398 -1.0441284 0.4466858l-0.62646484 -0.2962036c-0.16574097 -0.047027588 -0.3513794 -0.072906494 -0.5403137 -0.072906494c-0.40438843 0 -0.8121033 0.11520386 -1.0275574 0.3691101l-2.2970886 2.8869324c-0.31158447 0.37142944 -0.20880127 0.88864136 0.3149109 1.111969l0.7292175 0.29623413l0 0.88864136l-0.7292175 0.2962036c-0.41766357 0.14813232 -0.73254395 0.74053955 -0.3149109 1.1096497l2.2970886 2.8892822c0.19888306 0.2350769 0.5635071 0.38082886 0.93807983 0.38082886c0.21875 0 0.43753052 -0.049346924 0.62979126 -0.15750122l0.62646484 -0.22332764c0.41766357 0.1481018 0.83529663 0.37142944 1.0441284 0.44430542l0 0.51956177c0 0.5172119 0.52041626 0.88864136 1.2529602 0.88864136l4.700226 0c0.62649536 0 1.1469116 -0.37142944 1.1469116 -0.88864136l0 -0.51956177c0.41763306 -0.07287598 0.73254395 -0.2962036 1.0441284 -0.44430542l0.62646484 0.22332764c0.19555664 0.08227539 0.43753052 0.12460327 0.6695862 0.12460327c0.39111328 0 0.76568604 -0.11520386 0.8982544 -0.3479309l2.3998718 -2.8892822c0.20880127 -0.3691101 0.106048584 -0.8134155 -0.41766357 -1.1096497l-0.62649536 -0.2962036l0 -0.88864136l0.62649536 -0.29623413c0.52371216 -0.22332764 0.73254395 -0.74053955 0.41766357 -1.111969l-2.3998718 -2.8869324c-0.14251709 -0.25390625 -0.5734253 -0.40200806 -0.9977112 -0.40200806c-0.20220947 0 -0.401062 0.03289795 -0.5701294 0.10580444l-0.62646484 0.2962036c-0.41766357 -0.1481018 -0.83532715 -0.37145996 -1.0441284 -0.4466858l0 -0.5924072c0 -0.44433594 -0.52041626 -0.81344604 -1.1469116 -0.81344604z" fill-rule="evenodd"/><path fill="#6f3ea1" d="m269.57648 304.5984c0.62646484 0 1.1468811 0.37145996 1.1468811 0.8157654c0 0.44433594 -0.52041626 0.8134155 -1.1468811 0.8134155c-0.62979126 0 -1.1502075 -0.3690796 -1.1502075 -0.8134155c0 -0.44430542 0.52041626 -0.8157654 1.1502075 -0.8157654zm0 -1.5539551c-1.9855042 0 -3.5533752 1.1096497 -3.5533752 2.4425964c0 1.4082031 1.5678711 2.5202026 3.5533752 2.5202026c1.9821777 0 3.5500488 -1.1119995 3.5500488 -2.5202026c0 -1.3329468 -1.5678711 -2.4425964 -3.5500488 -2.4425964z" fill-rule="evenodd"/><path fill="#000000" fill-opacity="0.0" d="m215.32704 229.47935c10.325012 6.163971 46.577255 39.847916 61.950058 36.98381c15.372803 -2.8641052 22.523926 -42.86769 30.286743 -54.168427c7.762787 -11.30072 13.575073 -11.3632965 16.29007 -13.635956" fill-rule="evenodd"/><path stroke="#6f3ea1" stroke-width="12.0" stroke-linejoin="round" stroke-linecap="butt" d="m215.32704 229.47935c10.325012 6.163971 46.577255 39.847916 61.950058 36.98381c15.372803 -2.8641052 22.523926 -42.86769 30.286743 -54.168427c7.762787 -11.30072 13.575073 -11.3632965 16.29007 -13.635956" fill-rule="evenodd"/><path fill="#a92d84" d="m372.64807 296.45245c0.62646484 0 1.1468811 0.3691101 1.1468811 0.8134155l0 16.517578c0 0.44430542 -0.52041626 0.8134155 -1.1468811 0.8134155l-23.18631 0c-0.72924805 0 -1.1469116 -0.3691101 -1.1469116 -0.8134155l0 -16.517578c0 -0.44430542 0.41766357 -0.8134155 1.1469116 -0.8134155zm-21.094757 -5.110901c-0.62646484 0 -1.150177 0.3691101 -1.150177 0.8134155l0 2.5202026l-1.2529602 0c-1.8794556 0 -3.4472961 1.1096191 -3.4472961 2.5178223l0 0.8134155l-3.5500488 0c-0.62646484 0 -1.1468811 0.37145996 -1.1468811 0.8157654c0 0.44433594 0.52041626 0.81344604 1.1468811 0.81344604l3.5500488 0l0 1.7044067l-3.5500488 0c-0.62646484 0 -1.1468811 0.37142944 -1.1468811 0.8157654c0 0.5172119 0.52041626 0.88864136 1.1468811 0.88864136l3.5500488 0l0 1.6291809l-3.5500488 0c-0.62646484 0 -1.1468811 0.3691101 -1.1468811 0.8134155c0 0.51956177 0.52041626 0.8886719 1.1468811 0.8886719l3.5500488 0l0 1.6315308l-3.5500488 0c-0.62646484 0 -1.1468811 0.3690796 -1.1468811 0.8134155c0 0.51956177 0.52041626 0.88864136 1.1468811 0.88864136l3.5500488 0l0 1.6291809l-3.5500488 0c-0.62646484 0 -1.1468811 0.37145996 -1.1468811 0.8157654c0 0.5172119 0.52041626 0.8886719 1.1468811 0.8886719l3.5500488 0l0 0.8134155c0 1.4082031 1.5678406 2.520172 3.4472961 2.520172l1.2529602 0l0 2.4425964c0 0.51956177 0.52371216 0.8886719 1.150177 0.8886719c0.62649536 0 1.1468811 -0.3691101 1.1468811 -0.8886719l0 -2.665924l2.4031677 0l0 2.5178223c0 0.44433594 0.52041626 0.8157654 1.1468811 0.8157654c0.62649536 0 1.1502075 -0.37142944 1.1502075 -0.8157654l0 -2.5178223l2.3998413 0l0 2.5178223c0 0.44433594 0.52371216 0.8157654 1.1502075 0.8157654c0.62646484 0 1.150177 -0.37142944 1.150177 -0.8157654l0 -2.5178223l2.3998718 0l0 2.5178223c0 0.44433594 0.52371216 0.8157654 1.150177 0.8157654c0.62649536 0 1.1468811 -0.37142944 1.1468811 -0.8157654l0 -2.5178223l2.4031677 0l0 2.5178223c0 0.44433594 0.52041626 0.8157654 1.1468811 0.8157654c0.62649536 0 1.1502075 -0.37142944 1.1502075 -0.8157654l0 -2.5178223l1.1502075 0c1.9821777 0 3.5500183 -1.1119995 3.5500183 -2.5178528l0 -0.8157654l3.5500488 0c0.62649536 0 1.1468811 -0.3690796 1.1468811 -0.8134155c0 -0.44430542 -0.52038574 -0.8157654 -1.1468811 -0.8157654l-3.5500488 0l0 -1.7020569l3.5500488 0c0.62649536 0 1.1468811 -0.37145996 1.1468811 -0.8157654c0 -0.5172119 -0.52038574 -0.88864136 -1.1468811 -0.88864136l-3.5500488 0l0 -1.6292114l3.5500488 0c0.62649536 0 1.1468811 -0.37142944 1.1468811 -0.8157654c0 -0.5171814 -0.52038574 -0.88864136 -1.1468811 -0.88864136l-3.5500488 0l0 -1.6291809l3.5500488 0l0 0.22332764c0.62649536 0 1.1468811 -0.37142944 1.1468811 -0.88864136c0 -0.44433594 -0.52038574 -0.8157654 -1.1468811 -0.8157654l-3.5500488 0l0 -1.7044067l3.5500488 0c0.62649536 0 1.1468811 -0.3691101 1.1468811 -0.81344604c0 -0.44430542 -0.52038574 -0.8157654 -1.1468811 -0.8157654l-3.5500488 0l0 -0.8134155c0 -1.4082031 -1.5678406 -2.5178223 -3.5500183 -2.5178223l-1.1502075 0l0 -2.5202026c0 -0.44430542 -0.52371216 -0.8134155 -1.1502075 -0.8134155c-0.62646484 0 -1.1468811 0.3691101 -1.1468811 0.8134155l0 2.5202026l-2.4031677 0l0 -2.5202026c0 -0.44430542 -0.52038574 -0.8134155 -1.1468811 -0.8134155c-0.62646484 0 -1.150177 0.3691101 -1.150177 0.8134155l0 2.5202026l-2.3998718 0l0 -2.5202026c0 -0.44430542 -0.52371216 -0.8134155 -1.150177 -0.8134155c-0.62649536 0 -1.1502075 0.3691101 -1.1502075 0.8134155l0 2.5202026l-2.3998413 0l0 -2.5202026c0 -0.44430542 -0.52371216 -0.8134155 -1.1502075 -0.8134155c-0.62646484 0 -1.1468811 0.3691101 -1.1468811 0.8134155l0 2.5202026l-2.4031677 0l0 -2.5202026c0 -0.44430542 -0.52038574 -0.8134155 -1.1468811 -0.8134155z" fill-rule="evenodd"/><path fill="#a92d84" d="m351.76215 298.0064c-0.62646484 0 -1.1502075 0.37145996 -1.1502075 0.8157654c0 0.5172119 0.5237427 0.8886719 1.1502075 0.8886719c0.62649536 0 1.1468811 -0.37145996 1.1468811 -0.8886719c0 -0.44430542 -0.52038574 -0.8157654 -1.1468811 -0.8157654z" fill-rule="evenodd"/><path fill="#a92d84" d="m351.76215 311.2656c-0.62646484 0 -1.1502075 0.3691101 -1.1502075 0.8134155c0 0.44433594 0.5237427 0.8157654 1.1502075 0.8157654c0.62649536 0 1.1468811 -0.37142944 1.1468811 -0.8157654c0 -0.44430542 -0.52038574 -0.8134155 -1.1468811 -0.8134155z" fill-rule="evenodd"/><path fill="#a92d84" d="m370.45374 311.2656c-0.62649536 0 -1.1502075 0.3691101 -1.1502075 0.8134155c0 0.44433594 0.52371216 0.8157654 1.1502075 0.8157654c0.62646484 0 1.1502075 -0.37142944 1.1502075 -0.8157654c0 -0.44430542 -0.5237427 -0.8134155 -1.1502075 -0.8134155z" fill-rule="evenodd"/><path fill="#a92d84" d="m370.45374 298.0064c-0.62649536 0 -1.1502075 0.37145996 -1.1502075 0.8157654c0 0.44433594 0.52371216 0.8886719 1.1502075 0.8886719c0.62646484 0 1.1502075 -0.44433594 1.1502075 -0.8886719c0 -0.44430542 -0.5237427 -0.8157654 -1.1502075 -0.8157654z" fill-rule="evenodd"/><path fill="#a92d84" d="m362.20346 300.5995l0 0.2962036c0 0.37145996 0.31488037 0.6676636 0.83529663 0.74053955c0.62646484 0.1481018 1.2529602 0.44433594 1.7766724 0.74053955c0.26187134 0.094055176 0.5701294 0.18807983 0.8651428 0.18807983c0.16903687 0 0.33810425 -0.03289795 0.49057007 -0.112854004l0.41766357 -0.1481018l1.150177 1.3329773l-0.41763306 0.22097778c-0.41766357 0.1481018 -0.62649536 0.51956177 -0.5237427 0.8157654c0.1060791 0.5172119 0.1060791 0.96154785 0 1.4810791c-0.102752686 0.3691101 0.1060791 0.6653137 0.5237427 0.8134155l0.41763306 0.22335815l-1.150177 1.3329773l-0.41766357 -0.14813232c-0.18563843 -0.065826416 -0.3944397 -0.10342407 -0.6065979 -0.10342407c-0.25854492 0 -0.52038574 0.05407715 -0.749115 0.1786499c-0.52371216 0.3691101 -1.1502075 0.59243774 -1.7766724 0.74053955c-0.52041626 0.14813232 -0.83529663 0.5172119 -0.83529663 0.74053955l0 0.29623413l-2.2970886 0l0 -0.29623413c0 -0.37142944 -0.3149109 -0.5924072 -0.83532715 -0.74053955c-0.62646484 -0.1481018 -1.2529297 -0.44430542 -1.7766724 -0.74053955c-0.26184082 -0.09402466 -0.5701294 -0.18804932 -0.8651428 -0.18804932c-0.16903687 0 -0.33807373 0.030548096 -0.49057007 0.11282349l-0.41763306 0.14813232l-1.1502075 -1.3329773l0.41766357 -0.22335815c0.41763306 -0.1481018 0.62646484 -0.5171814 0.52371216 -0.8134155c-0.1060791 -0.51953125 -0.1060791 -0.9638672 0 -1.4810791c0.102752686 -0.37142944 -0.1060791 -0.6676636 -0.52371216 -0.8157654l-0.41766357 -0.22097778l1.1502075 -1.3329773l0.41763306 0.1481018c0.19226074 0.10345459 0.41104126 0.15753174 0.62649536 0.15753174c0.2519226 0 0.5071411 -0.07287598 0.7292175 -0.23275757c0.5237427 -0.3690796 1.1502075 -0.59243774 1.7766724 -0.74053955c0.52041626 -0.07287598 0.83532715 -0.44430542 0.83532715 -0.74053955l0 -0.2962036zm-3.341217 -1.7773132c-0.73257446 0 -1.2529602 0.3691101 -1.2529602 0.81344604l0 0.5924072c-0.3149109 0.07522583 -0.73254395 0.29858398 -1.0441284 0.4466858l-0.62649536 -0.2962036c-0.16574097 -0.047027588 -0.35134888 -0.072906494 -0.5402832 -0.072906494c-0.40438843 0 -0.8121033 0.11520386 -1.0275574 0.3691101l-2.2970886 2.8869324c-0.31158447 0.37142944 -0.20883179 0.88864136 0.3149109 1.111969l0.7292175 0.29623413l0 0.88864136l-0.7292175 0.2962036c-0.41766357 0.14813232 -0.73257446 0.74053955 -0.3149109 1.1096497l2.2970886 2.8892822c0.19888306 0.2350769 0.5635071 0.38082886 0.9380493 0.38082886c0.21878052 0 0.43756104 -0.049346924 0.62979126 -0.15750122l0.62649536 -0.22332764c0.41763306 0.1481018 0.83529663 0.37142944 1.0441284 0.44430542l0 0.51956177c0 0.5172119 0.52038574 0.88864136 1.2529602 0.88864136l4.700226 0c0.62649536 0 1.1468811 -0.37142944 1.1468811 -0.88864136l0 -0.51956177c0.41766357 -0.07287598 0.73254395 -0.2962036 1.0441284 -0.44430542l0.62649536 0.22332764c0.19555664 0.08227539 0.43753052 0.12460327 0.66955566 0.12460327c0.3911438 0 0.76571655 -0.11520386 0.8982849 -0.3479309l2.3998413 -2.8892822c0.20883179 -0.3691101 0.1060791 -0.8134155 -0.41763306 -1.1096497l-0.62649536 -0.2962036l0 -0.88864136l0.62649536 -0.29623413c0.52371216 -0.22332764 0.73254395 -0.74053955 0.41763306 -1.111969l-2.3998413 -2.8869324c-0.14251709 -0.25390625 -0.5734253 -0.40200806 -0.9977112 -0.40200806c-0.20220947 0 -0.40109253 0.03289795 -0.5701294 0.10580444l-0.62649536 0.2962036c-0.41763306 -0.1481018 -0.83529663 -0.37145996 -1.0441284 -0.4466858l0 -0.5924072c0 -0.44433594 -0.52038574 -0.81344604 -1.1468811 -0.81344604z" fill-rule="evenodd"/><path fill="#a92d84" d="m361.05655 304.5984c0.62649536 0 1.1469116 0.37145996 1.1469116 0.8157654c0 0.44433594 -0.52041626 0.8134155 -1.1469116 0.8134155c-0.62979126 0 -1.150177 -0.3690796 -1.150177 -0.8134155c0 -0.44430542 0.52038574 -0.8157654 1.150177 -0.8157654zm0 -1.5539551c-1.9855042 0 -3.5533447 1.1096497 -3.5533447 2.4425964c0 1.4082031 1.5678406 2.5202026 3.5533447 2.5202026c1.9822083 0 3.5500488 -1.1119995 3.5500488 -2.5202026c0 -1.3329468 -1.5678406 -2.4425964 -3.5500488 -2.4425964z" fill-rule="evenodd"/><path fill="#000000" fill-opacity="0.0" d="m436.88452 180.82152l470.01575 0l0 88.7874l-470.01575 0z" fill-rule="evenodd"/><path fill="#a92d77" d="m458.72827 235.26152l0 16.0l-9.1875 0l0 -45.5l15.5 0q6.75 0 10.765625 4.1875q4.015625 4.1875 4.015625 10.875q0 6.6875 -3.96875 10.5625q-3.96875 3.875 -11.0 3.875l-6.125 0zm0 -7.65625l6.3125 0q2.625 0 4.0625 -1.71875q1.4375 -1.71875 1.4375 -5.0q0 -3.40625 -1.46875 -5.421875q-1.46875 -2.015625 -3.9375 -2.046875l-6.40625 0l0 14.1875zm42.5 23.65625q-0.375 -0.78125 -0.75 -2.625q-2.375 3.25 -6.4375 3.25q-4.25 0 -7.046875 -2.8125q-2.796875 -2.8125 -2.796875 -7.28125q0 -5.3125 3.390625 -8.21875q3.390625 -2.90625 9.765625 -2.96875l2.6875 0l0 -2.71875q0 -2.28125 -0.78125 -3.21875q-0.78125 -0.9375 -2.28125 -0.9375q-3.3125 0 -3.3125 3.875l-8.84375 0q0 -4.6875 3.515625 -7.734375q3.515625 -3.046875 8.890625 -3.046875q5.5625 0 8.609375 2.890625q3.046875 2.890625 3.046875 8.265625l0 15.90625q0.0625 4.375 1.25 6.84375l0 0.53125l-8.90625 0zm-5.21875 -6.3125q1.46875 0 2.5 -0.59375q1.03125 -0.59375 1.53125 -1.40625l0 -7.03125l-2.125 0q-2.25 0 -3.546875 1.4375q-1.296875 1.4375 -1.296875 3.84375q0 3.75 2.9375 3.75zm35.96875 -18.96875l-2.9375 -0.25q-3.625 0 -4.90625 3.1875l0 22.34375l-8.875 0l0 -33.8125l8.34375 0l0.25 3.65625q2.09375 -4.28125 5.78125 -4.28125q1.5 0 2.4375 0.40625l-0.09375 8.75zm19.65625 25.28125q-0.375 -0.78125 -0.75 -2.625q-2.375 3.25 -6.4375 3.25q-4.25 0 -7.046875 -2.8125q-2.796875 -2.8125 -2.796875 -7.28125q0 -5.3125 3.390625 -8.21875q3.390625 -2.90625 9.765625 -2.96875l2.6875 0l0 -2.71875q0 -2.28125 -0.78125 -3.21875q-0.78125 -0.9375 -2.28125 -0.9375q-3.3125 0 -3.3125 3.875l-8.84375 0q0 -4.6875 3.515625 -7.734375q3.515625 -3.046875 8.890625 -3.046875q5.5625 0 8.609375 2.890625q3.046875 2.890625 3.046875 8.265625l0 15.90625q0.0625 4.375 1.25 6.84375l0 0.53125l-8.90625 0zm-5.21875 -6.3125q1.46875 0 2.5 -0.59375q1.03125 -0.59375 1.53125 -1.40625l0 -7.03125l-2.125 0q-2.25 0 -3.546875 1.4375q-1.296875 1.4375 -1.296875 3.84375q0 3.75 2.9375 3.75zm28.5625 6.3125l-8.875 0l0 -48.0l8.875 0l0 48.0zm16.125 0l-8.875 0l0 -48.0l8.875 0l0 48.0zm20.5 0.625q-6.8125 0 -10.625 -4.0625q-3.8125 -4.0625 -3.8125 -11.625l0 -2.6875q0 -8.0 3.5 -12.34375q3.5 -4.34375 10.03125 -4.34375q6.375 0 9.59375 4.078125q3.21875 4.078125 3.28125 12.078125l0 4.34375l-17.59375 0q0.1875 3.75 1.65625 5.484375q1.46875 1.734375 4.53125 1.734375q4.4375 0 7.40625 -3.03125l3.46875 5.34375q-1.625 2.25 -4.71875 3.640625q-3.09375 1.390625 -6.71875 1.390625zm-5.5625 -20.75l8.84375 0l0 -0.8125q-0.0625 -3.03125 -1.0 -4.59375q-0.9375 -1.5625 -3.25 -1.5625q-2.3125 0 -3.359375 1.65625q-1.046875 1.65625 -1.234375 5.3125zm31.8125 20.125l-8.875 0l0 -48.0l8.875 0l0 48.0z" fill-rule="nonzero"/><path fill="#a92d77" d="m458.72827 312.26154l0 16.0l-9.1875 0l0 -45.5l15.5 0q6.75 0 10.765625 4.1875q4.015625 4.1875 4.015625 10.875q0 6.6875 -3.96875 10.5625q-3.96875 3.875 -11.0 3.875l-6.125 0zm0 -7.65625l6.3125 0q2.625 0 4.0625 -1.71875q1.4375 -1.71875 1.4375 -5.0q0 -3.40625 -1.46875 -5.421875q-1.46875 -2.015625 -3.9375 -2.046875l-6.40625 0l0 14.1875zm40.03125 24.28125q-6.8125 0 -10.625 -4.0625q-3.8125 -4.0625 -3.8125 -11.625l0 -2.6875q0 -8.0 3.5 -12.34375q3.5 -4.34375 10.03125 -4.34375q6.375 0 9.59375 4.078125q3.21875 4.078125 3.28125 12.078125l0 4.34375l-17.59375 0q0.1875 3.75 1.65625 5.484375q1.46875 1.734375 4.53125 1.734375q4.4375 0 7.40625 -3.03125l3.46875 5.34375q-1.625 2.25 -4.71875 3.640625q-3.09375 1.390625 -6.71875 1.390625zm-5.5625 -20.75l8.84375 0l0 -0.8125q-0.0625 -3.03125 -1.0 -4.59375q-0.9375 -1.5625 -3.25 -1.5625q-2.3125 0 -3.359375 1.65625q-1.046875 1.65625 -1.234375 5.3125zm39.21875 -5.15625l-2.9375 -0.25q-3.625 0 -4.90625 3.1875l0 22.34375l-8.875 0l0 -33.8125l8.34375 0l0.25 3.65625q2.09375 -4.28125 5.78125 -4.28125q1.5 0 2.4375 0.40625l-0.09375 8.75zm12.84375 -8.53125l0.25 3.125q2.96875 -3.75 7.84375 -3.75q5.0625 0 7.15625 4.5625q2.90625 -4.5625 8.28125 -4.5625q8.875 0 9.09375 12.28125l0 22.15625l-8.84375 0l0 -21.59375q0 -2.9375 -0.8125 -4.1875q-0.8125 -1.25 -2.75 -1.25q-2.46875 0 -3.6875 3.03125l0.0625 1.0625l0 22.9375l-8.84375 0l0 -21.53125q0 -2.90625 -0.78125 -4.203125q-0.78125 -1.296875 -2.78125 -1.296875q-2.28125 0 -3.625 2.46875l0 24.5625l-8.84375 0l0 -33.8125l8.28125 0zm55.78125 30.71875q-2.75 3.71875 -7.375 3.71875q-4.65625 0 -7.0625 -3.203125q-2.40625 -3.203125 -2.40625 -9.328125l0 -21.90625l8.84375 0l0 22.125q0.0625 4.9375 3.28125 4.9375q3.03125 0 4.375 -2.625l0 -24.4375l8.90625 0l0 33.8125l-8.3125 0l-0.25 -3.09375zm25.15625 -39.03125l0 8.3125l4.53125 0l0 6.65625l-4.53125 0l0 16.78125q0 2.0 0.546875 2.75q0.546875 0.75 2.109375 0.75q1.28125 0 2.09375 -0.21875l-0.0625 6.875q-2.25 0.84375 -4.875 0.84375q-8.5625 0 -8.65625 -9.8125l0 -17.96875l-3.90625 0l0 -6.65625l3.90625 0l0 -8.3125l8.84375 0zm25.4375 42.125q-0.375 -0.78125 -0.75 -2.625q-2.375 3.25 -6.4375 3.25q-4.25 0 -7.046875 -2.8125q-2.796875 -2.8125 -2.796875 -7.28125q0 -5.3125 3.390625 -8.21875q3.390625 -2.90625 9.765625 -2.96875l2.6875 0l0 -2.71875q0 -2.28125 -0.78125 -3.21875q-0.78125 -0.9375 -2.28125 -0.9375q-3.3125 0 -3.3125 3.875l-8.84375 0q0 -4.6875 3.515625 -7.734375q3.515625 -3.046875 8.890625 -3.046875q5.5625 0 8.609375 2.890625q3.046875 2.890625 3.046875 8.265625l0 15.90625q0.0625 4.375 1.25 6.84375l0 0.53125l-8.90625 0zm-5.21875 -6.3125q1.46875 0 2.5 -0.59375q1.03125 -0.59375 1.53125 -1.40625l0 -7.03125l-2.125 0q-2.25 0 -3.546875 1.4375q-1.296875 1.4375 -1.296875 3.84375q0 3.75 2.9375 3.75zm29.5625 -35.8125l0 8.3125l4.53125 0l0 6.65625l-4.53125 0l0 16.78125q0 2.0 0.546875 2.75q0.546875 0.75 2.109375 0.75q1.28125 0 2.09375 -0.21875l-0.0625 6.875q-2.25 0.84375 -4.875 0.84375q-8.5625 0 -8.65625 -9.8125l0 -17.96875l-3.90625 0l0 -6.65625l3.90625 0l0 -8.3125l8.84375 0zm18.65625 42.125l-8.875 0l0 -33.8125l8.875 0l0 33.8125zm-9.28125 -42.5625q0 -2.0625 1.3125 -3.375q1.3125 -1.3125 3.5 -1.3125q2.1875 0 3.5 1.3125q1.3125 1.3125 1.3125 3.375q0 2.03125 -1.296875 3.375q-1.296875 1.34375 -3.515625 1.34375q-2.21875 0 -3.515625 -1.34375q-1.296875 -1.34375 -1.296875 -3.375zm15.09375 24.5625q0 -7.6875 3.625 -12.0625q3.625 -4.375 10.03125 -4.375q6.46875 0 10.09375 4.375q3.625 4.375 3.625 12.125l0 2.15625q0 7.71875 -3.59375 12.0625q-3.59375 4.34375 -10.0625 4.34375q-6.5 0 -10.109375 -4.359375q-3.609375 -4.359375 -3.609375 -12.109375l0 -2.15625zm8.875 2.21875q0 9.0625 4.84375 9.0625q4.46875 0 4.8125 -7.5625l0.03125 -3.71875q0 -4.625 -1.28125 -6.859375q-1.28125 -2.234375 -3.625 -2.234375q-2.25 0 -3.515625 2.234375q-1.265625 2.234375 -1.265625 6.859375l0 2.21875zm32.09375 -18.03125l0.25 3.34375q3.0 -3.96875 7.84375 -3.96875q8.71875 0 8.96875 12.21875l0 22.21875l-8.875 0l0 -21.5625q0 -2.875 -0.859375 -4.171875q-0.859375 -1.296875 -3.015625 -1.296875q-2.40625 0 -3.75 2.46875l0 24.5625l-8.875 0l0 -33.8125l8.3125 0zm38.375 24.75q0 -1.125 -1.078125 -2.078125q-1.078125 -0.953125 -4.796875 -2.578125q-5.46875 -2.21875 -7.515625 -4.59375q-2.046875 -2.375 -2.046875 -5.90625q0 -4.4375 3.203125 -7.328125q3.203125 -2.890625 8.484375 -2.890625q5.5625 0 8.90625 2.875q3.34375 2.875 3.34375 7.71875l-8.84375 0q0 -4.125 -3.4375 -4.125q-1.40625 0 -2.3125 0.875q-0.90625 0.875 -0.90625 2.4375q0 1.125 1.0 1.984375q1.0 0.859375 4.71875 2.453125q5.40625 2.0 7.640625 4.453125q2.234375 2.453125 2.234375 6.359375q0 4.53125 -3.40625 7.28125q-3.40625 2.75 -8.9375 2.75q-3.71875 0 -6.5625 -1.453125q-2.84375 -1.453125 -4.453125 -4.046875q-1.609375 -2.59375 -1.609375 -5.59375l8.40625 0q0.0625 2.3125 1.078125 3.46875q1.015625 1.15625 3.328125 1.15625q3.5625 0 3.5625 -3.21875zm24.375 -33.0625l0 8.3125l4.53125 0l0 6.65625l-4.53125 0l0 16.78125q0 2.0 0.546875 2.75q0.546875 0.75 2.109375 0.75q1.28125 0 2.09375 -0.21875l-0.0625 6.875q-2.25 0.84375 -4.875 0.84375q-8.5625 0 -8.65625 -9.8125l0 -17.96875l-3.90625 0l0 -6.65625l3.90625 0l0 -8.3125l8.84375 0zm23.03125 42.75q-6.8125 0 -10.625 -4.0625q-3.8125 -4.0625 -3.8125 -11.625l0 -2.6875q0 -8.0 3.5 -12.34375q3.5 -4.34375 10.03125 -4.34375q6.375 0 9.59375 4.078125q3.21875 4.078125 3.28125 12.078125l0 4.34375l-17.59375 0q0.1875 3.75 1.65625 5.484375q1.46875 1.734375 4.53125 1.734375q4.4375 0 7.40625 -3.03125l3.46875 5.34375q-1.625 2.25 -4.71875 3.640625q-3.09375 1.390625 -6.71875 1.390625zm-5.5625 -20.75l8.84375 0l0 -0.8125q-0.0625 -3.03125 -1.0 -4.59375q-0.9375 -1.5625 -3.25 -1.5625q-2.3125 0 -3.359375 1.65625q-1.046875 1.65625 -1.234375 5.3125zm37.5 11.0625q0 -1.125 -1.078125 -2.078125q-1.078125 -0.953125 -4.796875 -2.578125q-5.46875 -2.21875 -7.515625 -4.59375q-2.046875 -2.375 -2.046875 -5.90625q0 -4.4375 3.203125 -7.328125q3.203125 -2.890625 8.484375 -2.890625q5.5625 0 8.90625 2.875q3.34375 2.875 3.34375 7.71875l-8.84375 0q0 -4.125 -3.4375 -4.125q-1.40625 0 -2.3125 0.875q-0.90625 0.875 -0.90625 2.4375q0 1.125 1.0 1.984375q1.0 0.859375 4.71875 2.453125q5.40625 2.0 7.640625 4.453125q2.234375 2.453125 2.234375 6.359375q0 4.53125 -3.40625 7.28125q-3.40625 2.75 -8.9375 2.75q-3.71875 0 -6.5625 -1.453125q-2.84375 -1.453125 -4.453125 -4.046875q-1.609375 -2.59375 -1.609375 -5.59375l8.40625 0q0.0625 2.3125 1.078125 3.46875q1.015625 1.15625 3.328125 1.15625q3.5625 0 3.5625 -3.21875zm24.375 -33.0625l0 8.3125l4.53125 0l0 6.65625l-4.53125 0l0 16.78125q0 2.0 0.546875 2.75q0.546875 0.75 2.109375 0.75q1.28125 0 2.09375 -0.21875l-0.0625 6.875q-2.25 0.84375 -4.875 0.84375q-8.5625 0 -8.65625 -9.8125l0 -17.96875l-3.90625 0l0 -6.65625l3.90625 0l0 -8.3125l8.84375 0z" fill-rule="nonzero"/><path fill="#a92d77" d="m415.7481 209.2904l0 4.022049l-3.2612 0l0 -4.022049zm-22.294525 4.022049c0.38900757 0 0.78219604 0.11303711 1.1712036 0.45944214c0.78219604 0.5724945 0.78219604 1.6080933 0.13244629 2.1805878c-0.32696533 0.28807068 -0.78219604 0.43392944 -1.2415771 0.43392944c-0.4552307 0 -0.91049194 -0.14585876 -1.2374268 -0.43392944c-0.65390015 -0.5724945 -0.65390015 -1.6080933 0 -2.1805878c0.39315796 -0.34640503 0.9146118 -0.45944214 1.175354 -0.45944214zm41.199585 0c1.0429077 0 1.6968079 0.68917847 1.6968079 1.608078c0 0.80223083 -0.78219604 1.6080933 -1.6968079 1.6080933c-0.78219604 0 -1.692688 -0.8058624 -1.692688 -1.6080933c0 -0.91889954 0.78219604 -1.608078 1.692688 -1.608078zm-20.469421 2.9864502c10.300934 0 18.776733 7.4679413 18.776733 16.657013c0 9.189072 -8.4758 16.657013 -18.776733 16.657013c-10.300934 0 -18.776764 -7.4679413 -18.776764 -16.657013c0 -9.189072 8.47583 -16.657013 18.776764 -16.657013zm-6.6507263 -10.111633c-1.0429077 0 -1.6926575 0.68917847 -1.6926575 1.4950562c0 0.91889954 0.91049194 1.608078 1.6926575 1.608078l1.8251343 0l0 4.5945435c-3.5177917 0.68917847 -6.7789917 2.1842194 -9.386322 4.135071l-1.4360657 -1.261673c1.0429077 -1.7247772 0.65390015 -3.6756287 -0.91049194 -5.1706696c-0.9808655 -0.8605652 -2.2845154 -1.2908478 -3.6212769 -1.2908478c-1.3326111 0 -2.7024841 0.4302826 -3.811615 1.2908478c-1.95755 1.7247772 -1.95755 4.594528 0 6.4323425c1.0429077 0.92256165 2.3465576 1.382019 3.6502075 1.382019c0.78219604 0 1.4360962 -0.22973633 2.2182922 -0.4594574l1.5643921 1.261673c-3.2612 3.4458923 -5.475342 7.9273987 -5.475342 12.751663c0 10.8007965 10.036041 19.53041 22.16211 19.53041c12.258484 0 22.16623 -8.729614 22.16623 -19.53041c0 -4.8242645 -1.9533997 -9.305771 -5.347046 -12.751663l1.4360962 -1.261673c0.52145386 0.22972107 1.3036499 0.4594574 2.085846 0.4594574c2.868042 0 5.0863037 -2.0711975 5.0863037 -4.5981903c0 -2.5269928 -2.2182617 -4.477844 -5.0863037 -4.477844c-2.7355957 0 -4.953888 1.9508514 -4.953888 4.477844c0 0.68917847 0.1282959 1.2653198 0.3890381 1.9544983l-1.4319458 1.261673c-2.6073303 -1.9508514 -5.8685303 -3.4458923 -9.258026 -4.135071l0 -4.5945435l1.8251343 0c0.9146118 0 1.5643616 -0.68917847 1.5643616 -1.608078c0 -0.8058777 -0.78219604 -1.4950562 -1.5643616 -1.4950562z" fill-rule="evenodd"/><path fill="#a92d77" d="m412.3586 222.50153l0 10.4543915c0 0.91889954 0.78219604 1.608078 1.692688 1.608078l11.977051 0c-0.83599854 5.112335 -5.893341 8.962997 -11.8446045 8.962997c-6.6507263 0 -12.126068 -4.8279114 -12.126068 -10.571075c0 -5.283722 4.432434 -9.765213 10.300934 -10.4543915zm1.8251343 -2.9864502c-8.47583 0 -15.515564 5.972885 -15.515564 13.440842c0 7.4679413 6.911438 13.557526 15.515564 13.557526c8.4758 0 15.515533 -6.0895844 15.515533 -13.557526c0 -0.80223083 -0.9146118 -1.4914093 -1.8251038 -1.4914093l-12.126068 0l0 -10.571075c0 -0.8022156 -0.7821655 -1.3783569 -1.5643616 -1.3783569z" fill-rule="evenodd"/></g></svg>