<?xml version="1.0" encoding="UTF-8" standalone="no"?>
<!DOCTYPE svg PUBLIC "-//W3C//DTD SVG 1.1//EN" "http://www.w3.org/Graphics/SVG/1.1/DTD/svg11.dtd">
<svg version="1.1" xmlns="http://www.w3.org/2000/svg" xmlns:xlink="http://www.w3.org/1999/xlink" preserveAspectRatio="xMidYMid meet" viewBox="0 0 640 640" width="640" height="640"><defs><path d="M58.9 251.76L608.68 251.76L608.68 391.06L58.9 391.06L58.9 251.76Z" id="c6me8OeQW"></path><path d="M73.59 358.89C77.69 350.5 90.77 321.14 98.16 308.53C105.55 295.92 110.22 285.74 117.93 283.23C125.65 280.72 140.03 291.75 144.45 293.45" id="g3Xovni1v3"></path><path d="M73.59 358.89C77.69 350.5 90.77 321.14 98.16 308.53C105.55 295.92 110.22 285.74 117.93 283.23C125.65 280.72 140.03 291.75 144.45 293.45" id="c6pewLN3rI"></path><path d="M212.94 273.38C214.88 273.71 219.68 271.55 224.62 275.38C229.57 279.2 232.76 282.4 242.6 296.32C252.44 310.24 276.8 348.46 283.64 358.89" id="a1GL4cYx91"></path><path d="M212.38 273.38C214.33 273.71 219.12 271.55 224.07 275.38C229.01 279.2 232.21 282.4 242.04 296.32C251.88 310.24 276.25 348.46 283.09 358.89" id="d2VnpCVEV"></path><path d="M118.88 337.63C119.3 337.63 119.64 337.88 119.64 338.18C119.64 339.28 119.64 348.09 119.64 349.19C119.64 349.49 119.3 349.73 118.88 349.73C117.33 349.73 104.97 349.73 103.42 349.73C102.94 349.73 102.66 349.49 102.66 349.19C102.66 348.09 102.66 339.28 102.66 338.18C102.66 337.88 102.94 337.63 103.42 337.63C106.51 337.63 115.79 337.63 118.88 337.63ZM104.05 334.77C104.05 334.88 104.05 335.44 104.05 336.45C103.55 336.45 103.27 336.45 103.21 336.45C101.96 336.45 100.92 337.19 100.92 338.13C100.92 338.16 100.92 338.35 100.92 338.67C99.5 338.67 98.71 338.67 98.55 338.67C98.13 338.67 97.78 338.92 97.78 339.21C97.78 339.51 98.13 339.76 98.55 339.76C98.71 339.76 99.5 339.76 100.92 339.76L100.92 340.89C99.5 340.89 98.71 340.89 98.55 340.89C98.13 340.89 97.78 341.14 97.78 341.44C97.78 341.78 98.13 342.03 98.55 342.03C98.71 342.03 99.5 342.03 100.92 342.03L100.92 343.12C99.5 343.12 98.71 343.12 98.55 343.12C98.13 343.12 97.78 343.36 97.78 343.66C97.78 344 98.13 344.25 98.55 344.25C98.71 344.25 99.5 344.25 100.92 344.25L100.92 345.34C99.5 345.34 98.71 345.34 98.55 345.34C98.13 345.34 97.78 345.58 97.78 345.88C97.78 346.23 98.13 346.47 98.55 346.47C98.71 346.47 99.5 346.47 100.92 346.47L100.92 347.56C99.5 347.56 98.71 347.56 98.55 347.56C98.13 347.56 97.78 347.81 97.78 348.1C97.78 348.45 98.13 348.7 98.55 348.7C98.71 348.7 99.5 348.7 100.92 348.7C100.92 349.02 100.92 349.2 100.92 349.24C100.92 350.18 101.96 350.92 103.21 350.92C103.27 350.92 103.55 350.92 104.05 350.92C104.05 351.89 104.05 352.44 104.05 352.55C104.05 352.89 104.4 353.14 104.82 353.14C105.23 353.14 105.58 352.89 105.58 352.55C105.58 352.43 105.58 351.84 105.58 350.77L107.18 350.77C107.18 351.78 107.18 352.34 107.18 352.45C107.18 352.74 107.53 352.99 107.95 352.99C108.36 352.99 108.71 352.74 108.71 352.45C108.71 352.34 108.71 351.78 108.71 350.77L110.31 350.77C110.31 351.78 110.31 352.34 110.31 352.45C110.31 352.74 110.66 352.99 111.08 352.99C111.5 352.99 111.85 352.74 111.85 352.45C111.85 352.34 111.85 351.78 111.85 350.77L113.45 350.77C113.45 351.78 113.45 352.34 113.45 352.45C113.45 352.74 113.8 352.99 114.21 352.99C114.63 352.99 114.98 352.74 114.98 352.45C114.98 352.34 114.98 351.78 114.98 350.77L116.58 350.77C116.58 351.78 116.58 352.34 116.58 352.45C116.58 352.74 116.93 352.99 117.35 352.99C117.76 352.99 118.11 352.74 118.11 352.45C118.11 352.34 118.11 351.78 118.11 350.77C118.57 350.77 118.83 350.77 118.88 350.77C120.2 350.77 121.25 350.03 121.25 349.09C121.25 349.05 121.25 348.87 121.25 348.55C122.67 348.55 123.45 348.55 123.61 348.55C124.03 348.55 124.38 348.3 124.38 348C124.38 347.71 124.03 347.46 123.61 347.46C123.45 347.46 122.67 347.46 121.25 347.46L121.25 346.33C122.67 346.33 123.45 346.33 123.61 346.33C124.03 346.33 124.38 346.08 124.38 345.78C124.38 345.44 124.03 345.19 123.61 345.19C123.45 345.19 122.67 345.19 121.25 345.19L121.25 344.1C122.67 344.1 123.45 344.1 123.61 344.1C124.03 344.1 124.38 343.86 124.38 343.56C124.38 343.21 124.03 342.97 123.61 342.97C123.45 342.97 122.67 342.97 121.25 342.97L121.25 341.88L123.61 341.88C123.61 341.97 123.61 342.02 123.61 342.03C124.03 342.03 124.38 341.78 124.38 341.44C124.38 341.14 124.03 340.89 123.61 340.89C123.45 340.89 122.67 340.89 121.25 340.89L121.25 339.76C122.67 339.76 123.45 339.76 123.61 339.76C124.03 339.76 124.38 339.51 124.38 339.21C124.38 338.92 124.03 338.67 123.61 338.67C123.45 338.67 122.67 338.67 121.25 338.67C121.25 338.35 121.25 338.16 121.25 338.13C121.25 337.19 120.2 336.45 118.88 336.45C118.83 336.45 118.57 336.45 118.11 336.45C118.11 335.44 118.11 334.88 118.11 334.77C118.11 334.47 117.76 334.23 117.35 334.23C116.93 334.23 116.58 334.47 116.58 334.77C116.58 334.88 116.58 335.44 116.58 336.45L114.98 336.45C114.98 335.44 114.98 334.88 114.98 334.77C114.98 334.47 114.63 334.23 114.21 334.23C113.8 334.23 113.45 334.47 113.45 334.77C113.45 334.88 113.45 335.44 113.45 336.45L111.85 336.45C111.85 335.44 111.85 334.88 111.85 334.77C111.85 334.47 111.5 334.23 111.08 334.23C110.66 334.23 110.31 334.47 110.31 334.77C110.31 334.88 110.31 335.44 110.31 336.45L108.71 336.45C108.71 335.44 108.71 334.88 108.71 334.77C108.71 334.47 108.36 334.23 107.95 334.23C107.53 334.23 107.18 334.47 107.18 334.77C107.18 334.88 107.18 335.44 107.18 336.45L105.58 336.45C105.58 335.44 105.58 334.88 105.58 334.77C105.58 334.47 105.23 334.23 104.82 334.23C104.4 334.23 104.05 334.47 104.05 334.77Z" id="b2IHDd18xy"></path><path d="M104.19 339.21C104.19 339.56 104.54 339.81 104.95 339.81C105.37 339.81 105.72 339.56 105.72 339.21C105.72 338.92 105.37 338.67 104.95 338.67C104.54 338.67 104.19 338.92 104.19 339.21Z" id="a9MliIf6X"></path><path d="M104.19 348.05C104.19 348.35 104.54 348.6 104.95 348.6C105.37 348.6 105.72 348.35 105.72 348.05C105.72 347.76 105.37 347.51 104.95 347.51C104.54 347.51 104.19 347.76 104.19 348.05Z" id="k1AcLPjEHq"></path><path d="M116.65 348.05C116.65 348.35 117 348.6 117.42 348.6C117.83 348.6 118.18 348.35 118.18 348.05C118.18 347.76 117.83 347.51 117.42 347.51C117 347.51 116.65 347.76 116.65 348.05Z" id="ak69UwVMI"></path><path d="M116.65 339.21C116.65 339.51 117 339.81 117.42 339.81C117.83 339.81 118.18 339.51 118.18 339.21C118.18 338.92 117.83 338.67 117.42 338.67C117 338.67 116.65 338.92 116.65 339.21Z" id="c140fFthOs"></path><path d="M111.92 340.4C111.92 340.52 111.92 340.58 111.92 340.6C111.92 340.84 112.13 341.04 112.47 341.09C112.89 341.19 113.31 341.39 113.66 341.58C113.83 341.65 114.04 341.71 114.23 341.71C114.35 341.71 114.46 341.69 114.56 341.63C114.58 341.63 114.67 341.6 114.84 341.54L115.61 342.42C115.44 342.51 115.35 342.56 115.33 342.57C115.05 342.67 114.91 342.92 114.98 343.12C115.05 343.46 115.05 343.76 114.98 344.1C114.91 344.35 115.05 344.55 115.33 344.65C115.35 344.66 115.44 344.7 115.61 344.79L114.84 345.68C114.67 345.62 114.58 345.59 114.56 345.58C114.44 345.54 114.3 345.52 114.16 345.52C113.98 345.52 113.81 345.55 113.66 345.63C113.31 345.88 112.89 346.03 112.47 346.13C112.13 346.23 111.92 346.47 111.92 346.62C111.92 346.63 111.92 346.7 111.92 346.82L110.38 346.82C110.38 346.7 110.38 346.63 110.38 346.62C110.38 346.37 110.17 346.23 109.83 346.13C109.41 346.03 108.99 345.83 108.64 345.63C108.47 345.57 108.26 345.51 108.07 345.51C107.95 345.51 107.84 345.53 107.74 345.58C107.72 345.59 107.63 345.62 107.46 345.68L106.69 344.79C106.86 344.7 106.95 344.66 106.97 344.65C107.25 344.55 107.39 344.3 107.32 344.1C107.25 343.76 107.25 343.46 107.32 343.12C107.39 342.87 107.25 342.67 106.97 342.57C106.95 342.56 106.86 342.51 106.69 342.42L107.46 341.54C107.63 341.6 107.72 341.63 107.74 341.63C107.87 341.7 108.01 341.74 108.16 341.74C108.32 341.74 108.5 341.69 108.64 341.58C108.99 341.34 109.41 341.19 109.83 341.09C110.17 341.04 110.38 340.79 110.38 340.6C110.38 340.58 110.38 340.52 110.38 340.4L111.92 340.4ZM109.69 339.21C109.2 339.21 108.85 339.46 108.85 339.76C108.85 339.8 108.85 340.11 108.85 340.15C108.64 340.2 108.36 340.35 108.16 340.45C108.12 340.43 107.78 340.27 107.74 340.25C107.63 340.22 107.51 340.2 107.38 340.2C107.11 340.2 106.84 340.28 106.69 340.45C106.54 340.64 105.32 342.18 105.16 342.37C104.95 342.62 105.02 342.97 105.37 343.12C105.4 343.13 105.57 343.19 105.86 343.31L105.86 343.91C105.57 344.02 105.4 344.09 105.37 344.1C105.09 344.2 104.88 344.6 105.16 344.84C105.32 345.04 106.54 346.58 106.69 346.77C106.83 346.93 107.07 347.02 107.32 347.02C107.47 347.02 107.61 346.99 107.74 346.92C107.78 346.9 108.12 346.78 108.16 346.77C108.44 346.87 108.71 347.02 108.85 347.07C108.85 347.1 108.85 347.38 108.85 347.41C108.85 347.76 109.2 348 109.69 348C110 348 112.51 348 112.82 348C113.24 348 113.59 347.76 113.59 347.41C113.59 347.38 113.59 347.1 113.59 347.07C113.86 347.02 114.07 346.87 114.28 346.77C114.32 346.78 114.66 346.9 114.7 346.92C114.83 346.97 114.99 347 115.15 347C115.41 347 115.66 346.92 115.75 346.77C115.91 346.58 117.19 345.04 117.35 344.84C117.48 344.6 117.42 344.3 117.07 344.1C117.04 344.09 116.9 344.02 116.65 343.91L116.65 343.31C116.9 343.19 117.04 343.13 117.07 343.12C117.42 342.97 117.56 342.62 117.35 342.37C117.19 342.18 115.91 340.64 115.75 340.45C115.65 340.28 115.36 340.18 115.08 340.18C114.95 340.18 114.81 340.2 114.7 340.25C114.66 340.27 114.32 340.43 114.28 340.45C114 340.35 113.73 340.2 113.59 340.15C113.59 340.11 113.59 339.8 113.59 339.76C113.59 339.46 113.24 339.21 112.82 339.21C112.2 339.21 110.32 339.21 109.69 339.21Z" id="a16UzheBnN"></path><path d="M111.92 343.61C111.92 343.91 111.57 344.15 111.15 344.15C110.73 344.15 110.38 343.91 110.38 343.61C110.38 343.31 110.73 343.07 111.15 343.07C111.57 343.07 111.92 343.31 111.92 343.61ZM108.78 343.66C108.78 344.6 109.83 345.34 111.15 345.34C112.47 345.34 113.52 344.6 113.52 343.66C113.52 342.77 112.47 342.03 111.15 342.03C109.83 342.03 108.78 342.77 108.78 343.66Z" id="acgNZEHMv"></path><path d="M187.45 337.63C187.86 337.63 188.21 337.88 188.21 338.18C188.21 339.28 188.21 348.09 188.21 349.19C188.21 349.49 187.86 349.73 187.45 349.73C185.9 349.73 173.53 349.73 171.99 349.73C171.5 349.73 171.22 349.49 171.22 349.19C171.22 348.09 171.22 339.28 171.22 338.18C171.22 337.88 171.5 337.63 171.99 337.63C175.08 337.63 184.35 337.63 187.45 337.63ZM172.62 334.77C172.62 334.88 172.62 335.44 172.62 336.45C172.11 336.45 171.84 336.45 171.78 336.45C170.53 336.45 169.48 337.19 169.48 338.13C169.48 338.16 169.48 338.35 169.48 338.67C168.06 338.67 167.27 338.67 167.12 338.67C166.7 338.67 166.35 338.92 166.35 339.21C166.35 339.51 166.7 339.76 167.12 339.76C167.27 339.76 168.06 339.76 169.48 339.76L169.48 340.89C168.06 340.89 167.27 340.89 167.12 340.89C166.7 340.89 166.35 341.14 166.35 341.44C166.35 341.78 166.7 342.03 167.12 342.03C167.27 342.03 168.06 342.03 169.48 342.03L169.48 343.12C168.06 343.12 167.27 343.12 167.12 343.12C166.7 343.12 166.35 343.36 166.35 343.66C166.35 344 166.7 344.25 167.12 344.25C167.27 344.25 168.06 344.25 169.48 344.25L169.48 345.34C168.06 345.34 167.27 345.34 167.12 345.34C166.7 345.34 166.35 345.58 166.35 345.88C166.35 346.23 166.7 346.47 167.12 346.47C167.27 346.47 168.06 346.47 169.48 346.47L169.48 347.56C168.06 347.56 167.27 347.56 167.12 347.56C166.7 347.56 166.35 347.81 166.35 348.1C166.35 348.45 166.7 348.7 167.12 348.7C167.27 348.7 168.06 348.7 169.48 348.7C169.48 349.02 169.48 349.2 169.48 349.24C169.48 350.18 170.53 350.92 171.78 350.92C171.84 350.92 172.11 350.92 172.62 350.92C172.62 351.89 172.62 352.44 172.62 352.55C172.62 352.89 172.96 353.14 173.38 353.14C173.8 353.14 174.15 352.89 174.15 352.55C174.15 352.43 174.15 351.84 174.15 350.77L175.75 350.77C175.75 351.78 175.75 352.34 175.75 352.45C175.75 352.74 176.1 352.99 176.51 352.99C176.93 352.99 177.28 352.74 177.28 352.45C177.28 352.34 177.28 351.78 177.28 350.77L178.88 350.77C178.88 351.78 178.88 352.34 178.88 352.45C178.88 352.74 179.23 352.99 179.65 352.99C180.06 352.99 180.41 352.74 180.41 352.45C180.41 352.34 180.41 351.78 180.41 350.77L182.01 350.77C182.01 351.78 182.01 352.34 182.01 352.45C182.01 352.74 182.36 352.99 182.78 352.99C183.2 352.99 183.55 352.74 183.55 352.45C183.55 352.34 183.55 351.78 183.55 350.77L185.15 350.77C185.15 351.78 185.15 352.34 185.15 352.45C185.15 352.74 185.49 352.99 185.91 352.99C186.33 352.99 186.68 352.74 186.68 352.45C186.68 352.34 186.68 351.78 186.68 350.77C187.14 350.77 187.39 350.77 187.45 350.77C188.77 350.77 189.81 350.03 189.81 349.09C189.81 349.05 189.81 348.87 189.81 348.55C191.23 348.55 192.02 348.55 192.18 348.55C192.6 348.55 192.94 348.3 192.94 348C192.94 347.71 192.6 347.46 192.18 347.46C192.02 347.46 191.23 347.46 189.81 347.46L189.81 346.33C191.23 346.33 192.02 346.33 192.18 346.33C192.6 346.33 192.94 346.08 192.94 345.78C192.94 345.44 192.6 345.19 192.18 345.19C192.02 345.19 191.23 345.19 189.81 345.19L189.81 344.1C191.23 344.1 192.02 344.1 192.18 344.1C192.6 344.1 192.94 343.86 192.94 343.56C192.94 343.21 192.6 342.97 192.18 342.97C192.02 342.97 191.23 342.97 189.81 342.97L189.81 341.88L192.18 341.88C192.18 341.97 192.18 342.02 192.18 342.03C192.6 342.03 192.94 341.78 192.94 341.44C192.94 341.14 192.6 340.89 192.18 340.89C192.02 340.89 191.23 340.89 189.81 340.89L189.81 339.76C191.23 339.76 192.02 339.76 192.18 339.76C192.6 339.76 192.94 339.51 192.94 339.21C192.94 338.92 192.6 338.67 192.18 338.67C192.02 338.67 191.23 338.67 189.81 338.67C189.81 338.35 189.81 338.16 189.81 338.13C189.81 337.19 188.77 336.45 187.45 336.45C187.39 336.45 187.14 336.45 186.68 336.45C186.68 335.44 186.68 334.88 186.68 334.77C186.68 334.47 186.33 334.23 185.91 334.23C185.49 334.23 185.15 334.47 185.15 334.77C185.15 334.88 185.15 335.44 185.15 336.45L183.55 336.45C183.55 335.44 183.55 334.88 183.55 334.77C183.55 334.47 183.2 334.23 182.78 334.23C182.36 334.23 182.01 334.47 182.01 334.77C182.01 334.88 182.01 335.44 182.01 336.45L180.41 336.45C180.41 335.44 180.41 334.88 180.41 334.77C180.41 334.47 180.06 334.23 179.65 334.23C179.23 334.23 178.88 334.47 178.88 334.77C178.88 334.88 178.88 335.44 178.88 336.45L177.28 336.45C177.28 335.44 177.28 334.88 177.28 334.77C177.28 334.47 176.93 334.23 176.51 334.23C176.1 334.23 175.75 334.47 175.75 334.77C175.75 334.88 175.75 335.44 175.75 336.45L174.15 336.45C174.15 335.44 174.15 334.88 174.15 334.77C174.15 334.47 173.8 334.23 173.38 334.23C172.96 334.23 172.62 334.47 172.62 334.77Z" id="f6ITW21m9q"></path><path d="M172.75 339.21C172.75 339.56 173.1 339.81 173.52 339.81C173.94 339.81 174.29 339.56 174.29 339.21C174.29 338.92 173.94 338.67 173.52 338.67C173.1 338.67 172.75 338.92 172.75 339.21Z" id="b5oNIQEmu3"></path><path d="M172.75 348.05C172.75 348.35 173.1 348.6 173.52 348.6C173.94 348.6 174.29 348.35 174.29 348.05C174.29 347.76 173.94 347.51 173.52 347.51C173.1 347.51 172.75 347.76 172.75 348.05Z" id="e2p09CzrN7"></path><path d="M185.22 348.05C185.22 348.35 185.56 348.6 185.98 348.6C186.4 348.6 186.75 348.35 186.75 348.05C186.75 347.76 186.4 347.51 185.98 347.51C185.56 347.51 185.22 347.76 185.22 348.05Z" id="f1hqPBKMUJ"></path><path d="M185.22 339.21C185.22 339.51 185.56 339.81 185.98 339.81C186.4 339.81 186.75 339.51 186.75 339.21C186.75 338.92 186.4 338.67 185.98 338.67C185.56 338.67 185.22 338.92 185.22 339.21Z" id="aS7rItFPk"></path><path d="M180.48 340.4C180.48 340.52 180.48 340.58 180.48 340.6C180.48 340.84 180.69 341.04 181.04 341.09C181.46 341.19 181.87 341.39 182.22 341.58C182.4 341.65 182.6 341.71 182.8 341.71C182.91 341.71 183.03 341.69 183.13 341.63C183.15 341.63 183.24 341.6 183.41 341.54L184.17 342.42C184.01 342.51 183.91 342.56 183.89 342.57C183.62 342.67 183.48 342.92 183.55 343.12C183.62 343.46 183.62 343.76 183.55 344.1C183.48 344.35 183.62 344.55 183.89 344.65C183.91 344.66 184.01 344.7 184.17 344.79L183.41 345.68C183.24 345.62 183.15 345.59 183.13 345.58C183 345.54 182.86 345.52 182.72 345.52C182.55 345.52 182.38 345.55 182.22 345.63C181.87 345.88 181.46 346.03 181.04 346.13C180.69 346.23 180.48 346.47 180.48 346.62C180.48 346.63 180.48 346.7 180.48 346.82L178.95 346.82C178.95 346.7 178.95 346.63 178.95 346.62C178.95 346.37 178.74 346.23 178.39 346.13C177.98 346.03 177.56 345.83 177.21 345.63C177.03 345.57 176.83 345.51 176.63 345.51C176.52 345.51 176.41 345.53 176.31 345.58C176.29 345.59 176.19 345.62 176.03 345.68L175.26 344.79C175.43 344.7 175.52 344.66 175.54 344.65C175.82 344.55 175.96 344.3 175.89 344.1C175.82 343.76 175.82 343.46 175.89 343.12C175.96 342.87 175.82 342.67 175.54 342.57C175.52 342.56 175.43 342.51 175.26 342.42L176.03 341.54C176.19 341.6 176.29 341.63 176.31 341.63C176.43 341.7 176.58 341.74 176.72 341.74C176.89 341.74 177.06 341.69 177.21 341.58C177.56 341.34 177.98 341.19 178.39 341.09C178.74 341.04 178.95 340.79 178.95 340.6C178.95 340.58 178.95 340.52 178.95 340.4L180.48 340.4ZM178.25 339.21C177.77 339.21 177.42 339.46 177.42 339.76C177.42 339.8 177.42 340.11 177.42 340.15C177.21 340.2 176.93 340.35 176.72 340.45C176.68 340.43 176.35 340.27 176.31 340.25C176.2 340.22 176.07 340.2 175.95 340.2C175.68 340.2 175.4 340.28 175.26 340.45C175.11 340.64 173.88 342.18 173.73 342.37C173.52 342.62 173.59 342.97 173.94 343.12C173.97 343.13 174.13 343.19 174.43 343.31L174.43 343.91C174.13 344.02 173.97 344.09 173.94 344.1C173.66 344.2 173.45 344.6 173.73 344.84C173.88 345.04 175.11 346.58 175.26 346.77C175.39 346.93 175.64 347.02 175.89 347.02C176.03 347.02 176.18 346.99 176.31 346.92C176.35 346.9 176.68 346.78 176.72 346.77C177 346.87 177.28 347.02 177.42 347.07C177.42 347.1 177.42 347.38 177.42 347.41C177.42 347.76 177.77 348 178.25 348C178.57 348 181.07 348 181.39 348C181.81 348 182.15 347.76 182.15 347.41C182.15 347.38 182.15 347.1 182.15 347.07C182.43 347.02 182.64 346.87 182.85 346.77C182.89 346.78 183.22 346.9 183.27 346.92C183.4 346.97 183.56 347 183.71 347C183.97 347 184.22 346.92 184.31 346.77C184.47 346.58 185.75 345.04 185.91 344.84C186.05 344.6 185.98 344.3 185.63 344.1C185.61 344.09 185.47 344.02 185.22 343.91L185.22 343.31C185.47 343.19 185.61 343.13 185.63 343.12C185.98 342.97 186.12 342.62 185.91 342.37C185.75 342.18 184.47 340.64 184.31 340.45C184.22 340.28 183.93 340.18 183.65 340.18C183.51 340.18 183.38 340.2 183.27 340.25C183.22 340.27 182.89 340.43 182.85 340.45C182.57 340.35 182.29 340.2 182.15 340.15C182.15 340.11 182.15 339.8 182.15 339.76C182.15 339.46 181.81 339.21 181.39 339.21C180.76 339.21 178.88 339.21 178.25 339.21Z" id="d4KHDjacWL"></path><path d="M180.48 343.61C180.48 343.91 180.14 344.15 179.72 344.15C179.3 344.15 178.95 343.91 178.95 343.61C178.95 343.31 179.3 343.07 179.72 343.07C180.14 343.07 180.48 343.31 180.48 343.61ZM177.35 343.66C177.35 344.6 178.39 345.34 179.72 345.34C181.04 345.34 182.08 344.6 182.08 343.66C182.08 342.77 181.04 342.03 179.72 342.03C178.39 342.03 177.35 342.77 177.35 343.66Z" id="b5RVzaaVr"></path><path d="M143.55 292.99C150.43 297.1 174.6 319.55 184.85 317.64C195.1 315.73 199.87 289.06 205.04 281.53C210.22 274 214.09 273.95 215.9 272.44" id="dcpXAQKij"></path><path d="M144.45 292.99C151.33 297.1 175.5 319.55 185.75 317.64C196 315.73 200.77 289.06 205.94 281.53C211.12 274 214.99 273.95 216.8 272.44" id="a3u2r0Hpit"></path><path d="M248.43 337.63C248.85 337.63 249.2 337.88 249.2 338.18C249.2 339.28 249.2 348.09 249.2 349.19C249.2 349.49 248.85 349.73 248.43 349.73C246.89 349.73 234.52 349.73 232.97 349.73C232.49 349.73 232.21 349.49 232.21 349.19C232.21 348.09 232.21 339.28 232.21 338.18C232.21 337.88 232.49 337.63 232.97 337.63C236.07 337.63 245.34 337.63 248.43 337.63ZM233.6 334.77C233.6 334.88 233.6 335.44 233.6 336.45C233.1 336.45 232.82 336.45 232.77 336.45C231.51 336.45 230.47 337.19 230.47 338.13C230.47 338.16 230.47 338.35 230.47 338.67C229.05 338.67 228.26 338.67 228.1 338.67C227.68 338.67 227.34 338.92 227.34 339.21C227.34 339.51 227.68 339.76 228.1 339.76C228.26 339.76 229.05 339.76 230.47 339.76L230.47 340.89C229.05 340.89 228.26 340.89 228.1 340.89C227.68 340.89 227.34 341.14 227.34 341.44C227.34 341.78 227.68 342.03 228.1 342.03C228.26 342.03 229.05 342.03 230.47 342.03L230.47 343.12C229.05 343.12 228.26 343.12 228.1 343.12C227.68 343.12 227.34 343.36 227.34 343.66C227.34 344 227.68 344.25 228.1 344.25C228.26 344.25 229.05 344.25 230.47 344.25L230.47 345.34C229.05 345.34 228.26 345.34 228.1 345.34C227.68 345.34 227.34 345.58 227.34 345.88C227.34 346.23 227.68 346.47 228.1 346.47C228.26 346.47 229.05 346.47 230.47 346.47L230.47 347.56C229.05 347.56 228.26 347.56 228.1 347.56C227.68 347.56 227.34 347.81 227.34 348.1C227.34 348.45 227.68 348.7 228.1 348.7C228.26 348.7 229.05 348.7 230.47 348.7C230.47 349.02 230.47 349.2 230.47 349.24C230.47 350.18 231.51 350.92 232.77 350.92C232.82 350.92 233.1 350.92 233.6 350.92C233.6 351.89 233.6 352.44 233.6 352.55C233.6 352.89 233.95 353.14 234.37 353.14C234.79 353.14 235.13 352.89 235.13 352.55C235.13 352.43 235.13 351.84 235.13 350.77L236.74 350.77C236.74 351.78 236.74 352.34 236.74 352.45C236.74 352.74 237.08 352.99 237.5 352.99C237.92 352.99 238.27 352.74 238.27 352.45C238.27 352.34 238.27 351.78 238.27 350.77L239.87 350.77C239.87 351.78 239.87 352.34 239.87 352.45C239.87 352.74 240.22 352.99 240.63 352.99C241.05 352.99 241.4 352.74 241.4 352.45C241.4 352.34 241.4 351.78 241.4 350.77L243 350.77C243 351.78 243 352.34 243 352.45C243 352.74 243.35 352.99 243.77 352.99C244.18 352.99 244.53 352.74 244.53 352.45C244.53 352.34 244.53 351.78 244.53 350.77L246.13 350.77C246.13 351.78 246.13 352.34 246.13 352.45C246.13 352.74 246.48 352.99 246.9 352.99C247.32 352.99 247.67 352.74 247.67 352.45C247.67 352.34 247.67 351.78 247.67 350.77C248.13 350.77 248.38 350.77 248.43 350.77C249.75 350.77 250.8 350.03 250.8 349.09C250.8 349.05 250.8 348.87 250.8 348.55C252.22 348.55 253.01 348.55 253.17 348.55C253.58 348.55 253.93 348.3 253.93 348C253.93 347.71 253.58 347.46 253.17 347.46C253.01 347.46 252.22 347.46 250.8 347.46L250.8 346.33C252.22 346.33 253.01 346.33 253.17 346.33C253.58 346.33 253.93 346.08 253.93 345.78C253.93 345.44 253.58 345.19 253.17 345.19C253.01 345.19 252.22 345.19 250.8 345.19L250.8 344.1C252.22 344.1 253.01 344.1 253.17 344.1C253.58 344.1 253.93 343.86 253.93 343.56C253.93 343.21 253.58 342.97 253.17 342.97C253.01 342.97 252.22 342.97 250.8 342.97L250.8 341.88L253.17 341.88C253.17 341.97 253.17 342.02 253.17 342.03C253.58 342.03 253.93 341.78 253.93 341.44C253.93 341.14 253.58 340.89 253.17 340.89C253.01 340.89 252.22 340.89 250.8 340.89L250.8 339.76C252.22 339.76 253.01 339.76 253.17 339.76C253.58 339.76 253.93 339.51 253.93 339.21C253.93 338.92 253.58 338.67 253.17 338.67C253.01 338.67 252.22 338.67 250.8 338.67C250.8 338.35 250.8 338.16 250.8 338.13C250.8 337.19 249.75 336.45 248.43 336.45C248.38 336.45 248.13 336.45 247.67 336.45C247.67 335.44 247.67 334.88 247.67 334.77C247.67 334.47 247.32 334.23 246.9 334.23C246.48 334.23 246.13 334.47 246.13 334.77C246.13 334.88 246.13 335.44 246.13 336.45L244.53 336.45C244.53 335.44 244.53 334.88 244.53 334.77C244.53 334.47 244.18 334.23 243.77 334.23C243.35 334.23 243 334.47 243 334.77C243 334.88 243 335.44 243 336.45L241.4 336.45C241.4 335.44 241.4 334.88 241.4 334.77C241.4 334.47 241.05 334.23 240.63 334.23C240.22 334.23 239.87 334.47 239.87 334.77C239.87 334.88 239.87 335.44 239.87 336.45L238.27 336.45C238.27 335.44 238.27 334.88 238.27 334.77C238.27 334.47 237.92 334.23 237.5 334.23C237.08 334.23 236.74 334.47 236.74 334.77C236.74 334.88 236.74 335.44 236.74 336.45L235.13 336.45C235.13 335.44 235.13 334.88 235.13 334.77C235.13 334.47 234.79 334.23 234.37 334.23C233.95 334.23 233.6 334.47 233.6 334.77Z" id="a15VRyak2N"></path><path d="M233.74 339.21C233.74 339.56 234.09 339.81 234.51 339.81C234.93 339.81 235.27 339.56 235.27 339.21C235.27 338.92 234.93 338.67 234.51 338.67C234.09 338.67 233.74 338.92 233.74 339.21Z" id="c1wgPvrIDo"></path><path d="M233.74 348.05C233.74 348.35 234.09 348.6 234.51 348.6C234.93 348.6 235.27 348.35 235.27 348.05C235.27 347.76 234.93 347.51 234.51 347.51C234.09 347.51 233.74 347.76 233.74 348.05Z" id="cdFs2tyOd"></path><path d="M246.2 348.05C246.2 348.35 246.55 348.6 246.97 348.6C247.39 348.6 247.74 348.35 247.74 348.05C247.74 347.76 247.39 347.51 246.97 347.51C246.55 347.51 246.2 347.76 246.2 348.05Z" id="j2X6qybkO"></path><path d="M246.2 339.21C246.2 339.51 246.55 339.81 246.97 339.81C247.39 339.81 247.74 339.51 247.74 339.21C247.74 338.92 247.39 338.67 246.97 338.67C246.55 338.67 246.2 338.92 246.2 339.21Z" id="d1pNFqIFlW"></path><path d="M241.47 340.4C241.47 340.52 241.47 340.58 241.47 340.6C241.47 340.84 241.68 341.04 242.03 341.09C242.44 341.19 242.86 341.39 243.21 341.58C243.38 341.65 243.59 341.71 243.79 341.71C243.9 341.71 244.01 341.69 244.11 341.63C244.13 341.63 244.23 341.6 244.39 341.54L245.16 342.42C244.99 342.51 244.9 342.56 244.88 342.57C244.6 342.67 244.46 342.92 244.53 343.12C244.6 343.46 244.6 343.76 244.53 344.1C244.46 344.35 244.6 344.55 244.88 344.65C244.9 344.66 244.99 344.7 245.16 344.79L244.39 345.68C244.23 345.62 244.13 345.59 244.11 345.58C243.99 345.54 243.85 345.52 243.71 345.52C243.54 345.52 243.36 345.55 243.21 345.63C242.86 345.88 242.44 346.03 242.03 346.13C241.68 346.23 241.47 346.47 241.47 346.62C241.47 346.63 241.47 346.7 241.47 346.82L239.94 346.82C239.94 346.7 239.94 346.63 239.94 346.62C239.94 346.37 239.73 346.23 239.38 346.13C238.96 346.03 238.55 345.83 238.2 345.63C238.02 345.57 237.82 345.51 237.62 345.51C237.51 345.51 237.39 345.53 237.29 345.58C237.27 345.59 237.18 345.62 237.01 345.68L236.25 344.79C236.41 344.7 236.51 344.66 236.53 344.65C236.8 344.55 236.94 344.3 236.87 344.1C236.8 343.76 236.8 343.46 236.87 343.12C236.94 342.87 236.8 342.67 236.53 342.57C236.51 342.56 236.41 342.51 236.25 342.42L237.01 341.54C237.18 341.6 237.27 341.63 237.29 341.63C237.42 341.7 237.57 341.74 237.71 341.74C237.88 341.74 238.05 341.69 238.2 341.58C238.55 341.34 238.96 341.19 239.38 341.09C239.73 341.04 239.94 340.79 239.94 340.6C239.94 340.58 239.94 340.52 239.94 340.4L241.47 340.4ZM239.24 339.21C238.75 339.21 238.41 339.46 238.41 339.76C238.41 339.8 238.41 340.11 238.41 340.15C238.2 340.2 237.92 340.35 237.71 340.45C237.67 340.43 237.33 340.27 237.29 340.25C237.18 340.22 237.06 340.2 236.93 340.2C236.66 340.2 236.39 340.28 236.25 340.45C236.09 340.64 234.87 342.18 234.72 342.37C234.51 342.62 234.58 342.97 234.93 343.12C234.96 343.13 235.12 343.19 235.41 343.31L235.41 343.91C235.12 344.02 234.96 344.09 234.93 344.1C234.65 344.2 234.44 344.6 234.72 344.84C234.87 345.04 236.09 346.58 236.25 346.77C236.38 346.93 236.62 347.02 236.87 347.02C237.02 347.02 237.16 346.99 237.29 346.92C237.33 346.9 237.67 346.78 237.71 346.77C237.99 346.87 238.27 347.02 238.41 347.07C238.41 347.1 238.41 347.38 238.41 347.41C238.41 347.76 238.75 348 239.24 348C239.55 348 242.06 348 242.37 348C242.79 348 243.14 347.76 243.14 347.41C243.14 347.38 243.14 347.1 243.14 347.07C243.42 347.02 243.63 346.87 243.84 346.77C243.88 346.78 244.21 346.9 244.25 346.92C244.38 346.97 244.55 347 244.7 347C244.96 347 245.21 346.92 245.3 346.77C245.46 346.58 246.74 345.04 246.9 344.84C247.04 344.6 246.97 344.3 246.62 344.1C246.59 344.09 246.45 344.02 246.2 343.91L246.2 343.31C246.45 343.19 246.59 343.13 246.62 343.12C246.97 342.97 247.11 342.62 246.9 342.37C246.74 342.18 245.46 340.64 245.3 340.45C245.2 340.28 244.92 340.18 244.63 340.18C244.5 340.18 244.37 340.2 244.25 340.25C244.21 340.27 243.88 340.43 243.84 340.45C243.56 340.35 243.28 340.2 243.14 340.15C243.14 340.11 243.14 339.8 243.14 339.76C243.14 339.46 242.79 339.21 242.37 339.21C241.75 339.21 239.87 339.21 239.24 339.21Z" id="dLee04Un7"></path><path d="M241.47 343.61C241.47 343.91 241.12 344.15 240.7 344.15C240.28 344.15 239.94 343.91 239.94 343.61C239.94 343.31 240.28 343.07 240.7 343.07C241.12 343.07 241.47 343.31 241.47 343.61ZM238.34 343.66C238.34 344.6 239.38 345.34 240.7 345.34C242.03 345.34 243.07 344.6 243.07 343.66C243.07 342.77 242.03 342.03 240.7 342.03C239.38 342.03 238.34 342.77 238.34 343.66Z" id="i1CANPTU5T"></path><path d="M291.26 260.55L604.6 260.55L604.6 319.74L291.26 319.74L291.26 260.55Z" id="acmhLZieI"></path><path d="M305.82 307.51L299.69 307.51L299.69 277.17C305.89 277.17 309.34 277.17 310.03 277.17C314.53 277.17 316.49 279.69 317.2 279.97C319.88 282.76 319.61 286.49 319.88 287.22C319.88 291.67 317.5 293.55 317.24 294.26C315.47 295.98 313.03 296.84 309.9 296.84L305.82 296.84L305.82 307.51ZM310.03 291.74C311.78 291.74 312.46 290.71 312.74 290.59C313.69 289.45 313.6 287.59 313.69 287.26C313.69 284.99 312.81 284 312.71 283.64C312.06 282.75 311.19 282.29 310.09 282.28L305.82 282.28L305.82 291.74C308.34 291.74 309.75 291.74 310.03 291.74ZM333.65 305.76C332.07 307.92 329.79 307.71 329.36 307.92C326.53 307.92 325.13 306.24 324.66 306.05C322.8 304.17 322.98 301.68 322.8 301.2C322.8 297.65 324.83 296.26 325.06 295.72C326.57 294.42 328.74 293.76 331.57 293.74L333.36 293.74C333.36 292.65 333.36 292.05 333.36 291.92C333.36 290.4 332.89 289.99 332.84 289.78C332.32 289.15 331.47 289.22 331.32 289.15C329.85 289.15 329.11 290.01 329.11 291.74C325.57 291.74 323.61 291.74 323.21 291.74C323.21 288.61 325.32 287.1 325.56 286.58C327.9 284.55 330.89 284.75 331.49 284.55C335.19 284.55 336.65 286.28 337.23 286.48C338.58 287.76 339.26 289.6 339.26 291.99C339.26 298.35 339.26 301.88 339.26 302.59C339.28 304.54 339.56 306.06 340.09 307.15L340.09 307.51L334.15 307.51C333.85 306.46 333.69 305.87 333.65 305.76ZM332.34 302.9C332.8 302.64 333.14 302.33 333.36 301.97L333.36 297.28C332.51 297.28 332.04 297.28 331.94 297.28C330.44 297.28 329.82 298.14 329.58 298.24C328.71 299.2 328.8 300.54 328.71 300.8C328.71 302.47 329.37 303.3 330.67 303.3C331.67 303.06 332.23 302.93 332.34 302.9ZM352.69 290.49C351.08 290.49 349.99 291.2 349.42 292.61L349.42 307.51L343.51 307.51L343.51 284.97L349.07 284.97C349.17 286.43 349.22 287.24 349.24 287.4C350.63 284.55 352.7 284.83 353.09 284.55C353.76 284.55 354.3 284.64 354.71 284.82L354.65 290.65C353.48 290.55 352.82 290.5 352.69 290.49ZM367.26 305.76C365.67 307.92 363.39 307.71 362.96 307.92C360.13 307.92 358.74 306.24 358.27 306.05C356.4 304.17 356.59 301.68 356.4 301.2C356.4 297.65 358.44 296.26 358.66 295.72C360.17 294.42 362.34 293.76 365.17 293.74L366.96 293.74C366.96 292.65 366.96 292.05 366.96 291.92C366.96 290.4 366.5 289.99 366.44 289.78C365.92 289.15 365.08 289.22 364.92 289.15C363.45 289.15 362.71 290.01 362.71 291.74C359.18 291.74 357.21 291.74 356.82 291.74C356.82 288.61 358.93 287.1 359.16 286.58C361.51 284.55 364.5 284.75 365.09 284.55C368.8 284.55 370.26 286.28 370.83 286.48C372.18 287.76 372.86 289.6 372.86 291.99C372.86 298.35 372.86 301.88 372.86 302.59C372.89 304.54 373.17 306.06 373.69 307.15L373.69 307.51L367.76 307.51C367.46 306.46 367.29 305.87 367.26 305.76ZM365.94 302.9C366.4 302.64 366.74 302.33 366.96 301.97L366.96 297.28C366.11 297.28 365.64 297.28 365.55 297.28C364.05 297.28 363.42 298.14 363.18 298.24C362.32 299.2 362.41 300.54 362.32 300.8C362.32 302.47 362.97 303.3 364.28 303.3C365.28 303.06 365.83 302.93 365.94 302.9ZM377.4 307.51L377.4 275.51L383.32 275.51L383.32 307.51L377.4 307.51ZM388.15 307.51L388.15 275.51L394.07 275.51L394.07 307.51L388.15 307.51ZM400.65 305.22C398.96 303.41 398.11 300.83 398.11 297.47C398.11 296.39 398.11 295.79 398.11 295.67C398.11 290.34 400.21 288.27 400.44 287.45C402.78 284.55 406.46 284.84 407.13 284.55C411.38 284.55 412.89 287 413.53 287.27C414.96 289.08 415.69 291.76 415.71 295.32L415.71 298.22C408.68 298.22 404.77 298.22 403.99 298.22C404.11 300.72 404.98 301.51 405.09 301.87C406.07 303.03 407.81 302.91 408.11 303.03C410.08 303.03 411.73 302.35 413.05 301.01C414.44 303.15 415.21 304.33 415.36 304.57C414.28 306.07 412.53 306.75 412.21 307C410.84 307.62 409.35 307.92 407.74 307.92C403.49 306.3 401.12 305.4 400.65 305.22ZM409.92 294.09C409.92 293.77 409.92 293.59 409.92 293.55C409.88 291.53 409.32 290.79 409.26 290.49C408.63 289.45 407.31 289.55 407.09 289.45C405.55 289.45 405.07 290.44 404.85 290.55C404.38 291.29 404.11 292.47 404.03 294.09L409.92 294.09ZM419.32 307.51L419.32 275.51L425.24 275.51L425.24 307.51L419.32 307.51Z" id="f1Z6v7KBxb"></path><path d="M305.82 358.84L299.69 358.84L299.69 328.51C305.89 328.51 309.34 328.51 310.03 328.51C314.53 328.51 316.49 331.02 317.2 331.3C319.88 334.09 319.61 337.82 319.88 338.55C319.88 343.01 317.5 344.89 317.24 345.59C315.47 347.31 313.03 348.17 309.9 348.17L305.82 348.17L305.82 358.84ZM310.03 343.07C311.78 343.07 312.46 342.04 312.74 341.92C313.69 340.78 313.6 338.92 313.69 338.59C313.69 336.32 312.81 335.34 312.71 334.98C312.06 334.08 311.19 333.63 310.09 333.61L305.82 333.61L305.82 343.07C308.34 343.07 309.75 343.07 310.03 343.07ZM325.42 356.55C323.73 354.74 322.88 352.16 322.88 348.8C322.88 347.72 322.88 347.13 322.88 347.01C322.88 341.67 324.98 339.6 325.21 338.78C327.55 335.88 331.23 336.17 331.9 335.88C336.15 335.88 337.66 338.33 338.3 338.6C339.73 340.41 340.46 343.1 340.49 346.65L340.49 349.55C333.45 349.55 329.54 349.55 328.76 349.55C328.88 352.05 329.75 352.84 329.86 353.21C330.84 354.36 332.58 354.25 332.88 354.36C334.85 354.36 336.5 353.69 337.82 352.34C339.21 354.48 339.98 355.67 340.13 355.9C339.05 357.4 337.3 358.09 336.99 358.33C335.61 358.95 334.12 359.26 332.51 359.26C328.26 357.63 325.9 356.73 325.42 356.55ZM334.69 345.42C334.69 345.1 334.69 344.92 334.69 344.88C334.65 342.86 334.09 342.13 334.03 341.82C333.4 340.78 332.08 340.88 331.86 340.78C330.32 340.78 329.84 341.77 329.62 341.88C329.16 342.62 328.88 343.8 328.8 345.42L334.69 345.42ZM352.99 341.82C351.37 341.82 350.28 342.53 349.71 343.95L349.71 358.84L343.8 358.84L343.8 336.3L349.36 336.3C349.46 337.76 349.52 338.57 349.53 338.74C350.92 335.88 353 336.17 353.38 335.88C354.05 335.88 354.59 335.97 355.01 336.15L354.94 341.99C353.77 341.89 353.12 341.83 352.99 341.82ZM363.67 338.38C365.65 335.88 368.38 336.13 368.9 335.88C372.28 335.88 373.2 338.62 373.67 338.92C375.61 335.88 378.64 336.19 379.19 335.88C383.14 335.88 385.16 338.61 385.26 344.07L385.26 358.84L379.36 358.84C379.36 350.2 379.36 345.4 379.36 344.45C379.36 342.49 378.87 341.93 378.82 341.65C378.28 340.82 377.17 340.9 376.99 340.82C375.89 340.82 375.07 341.49 374.53 342.84L374.57 343.55L374.57 358.84L368.67 358.84C368.67 350.23 368.67 345.44 368.67 344.49C368.67 342.55 368.2 341.96 368.15 341.68C367.63 340.82 366.48 340.91 366.3 340.82C365.28 340.82 364.48 341.37 363.88 342.47L363.88 358.84L357.99 358.84L357.99 336.3L363.51 336.3C363.61 337.55 363.66 338.24 363.67 338.38ZM395.78 359.26C392.67 359.26 391.54 357.34 391.07 357.12C390 355.7 389.46 353.63 389.46 350.9L389.46 336.3L395.36 336.3C395.36 345.15 395.36 350.07 395.36 351.05C395.4 354.34 397.33 354.01 397.55 354.34C398.9 354.34 399.87 353.76 400.46 352.59L400.46 336.3L406.4 336.3L406.4 358.84L400.86 358.84L400.69 356.78C397.74 358.27 396.1 359.09 395.78 359.26ZM417.46 336.3L420.49 336.3L420.49 340.74L417.46 340.74C417.46 347.45 417.46 351.18 417.46 351.92C417.46 353.26 417.79 353.57 417.83 353.76C418.19 354.26 419.09 354.21 419.24 354.26C419.8 354.26 420.27 354.21 420.63 354.11C420.61 356.86 420.59 358.39 420.59 358.7C419.09 359.26 417.66 359.2 417.34 359.26C413.53 359.26 411.61 357.08 411.57 352.72L411.57 340.74L408.96 340.74L408.96 336.3L411.57 336.3L411.57 330.76L417.46 330.76L417.46 336.3ZM433.92 357.09C432.34 359.26 430.06 359.04 429.63 359.26C426.8 359.26 425.4 357.57 424.93 357.38C423.07 355.51 423.26 353.01 423.07 352.53C423.07 348.99 425.1 347.6 425.33 347.05C426.84 345.76 429.01 345.1 431.84 345.07L433.63 345.07C433.63 343.98 433.63 343.38 433.63 343.26C433.63 341.74 433.16 341.33 433.11 341.11C432.59 340.49 431.74 340.55 431.59 340.49C430.12 340.49 429.38 341.35 429.38 343.07C425.84 343.07 423.88 343.07 423.49 343.07C423.49 339.95 425.59 338.43 425.83 337.91C428.17 335.88 431.16 336.09 431.76 335.88C435.46 335.88 436.92 337.62 437.5 337.81C438.85 339.09 439.53 340.93 439.53 343.32C439.53 349.68 439.53 353.22 439.53 353.92C439.55 355.87 439.83 357.39 440.36 358.49L440.36 358.84L434.42 358.84C434.12 357.79 433.96 357.21 433.92 357.09ZM432.61 354.24C433.07 353.97 433.41 353.66 433.63 353.3L433.63 348.61C432.78 348.61 432.31 348.61 432.21 348.61C430.71 348.61 430.09 349.47 429.85 349.57C428.99 350.53 429.07 351.88 428.99 352.13C428.99 353.8 429.64 354.63 430.94 354.63C431.94 354.4 432.5 354.26 432.61 354.24ZM450.65 336.3L453.67 336.3L453.67 340.74L450.65 340.74C450.65 347.45 450.65 351.18 450.65 351.92C450.65 353.26 450.98 353.57 451.02 353.76C451.38 354.26 452.28 354.21 452.42 354.26C452.99 354.26 453.46 354.21 453.82 354.11C453.79 356.86 453.78 358.39 453.78 358.7C452.28 359.26 450.85 359.2 450.53 359.26C446.72 359.26 444.8 357.08 444.76 352.72L444.76 340.74L442.15 340.74L442.15 336.3L444.76 336.3L444.76 330.76L450.65 330.76L450.65 336.3ZM457.17 358.84L457.17 336.3L463.09 336.3L463.09 358.84L457.17 358.84ZM457.78 328.22C458.65 327.34 459.88 327.43 460.11 327.34C461.57 327.34 462.21 328.13 462.44 328.22C463.32 329.09 463.23 330.24 463.32 330.47C463.32 331.82 462.54 332.49 462.45 332.72C461.59 333.61 460.34 333.52 460.11 333.61C458.63 333.61 458 332.81 457.77 332.72C457.19 332.12 456.9 331.37 456.9 330.47C457.43 329.12 457.72 328.37 457.78 328.22ZM469.38 338.8C471.8 335.88 475.4 336.17 476.07 335.88C480.38 335.88 482.13 338.51 482.8 338.8C484.41 340.74 485.21 343.44 485.21 346.88C485.21 347.75 485.21 348.22 485.21 348.32C485.21 353.47 483.06 355.56 482.82 356.36C480.42 359.26 476.78 358.97 476.11 359.26C471.78 359.26 470.04 356.64 469.37 356.35C467.77 354.41 466.96 351.72 466.96 348.28L466.96 346.84C468.41 342.02 469.22 339.34 469.38 338.8ZM476.11 354.36C478.1 354.36 479.17 352.68 479.32 349.32C479.33 347.83 479.34 347.01 479.34 346.84C479.34 343.76 478.57 342.73 478.49 342.27C477.63 340.78 476.31 340.93 476.07 340.78C474.57 340.78 473.96 342.12 473.73 342.27C473.16 343.26 472.88 344.79 472.88 346.84L472.88 348.32C474.82 351.95 475.9 353.96 476.11 354.36ZM494.44 338.53C496.44 335.88 499.15 336.15 499.67 335.88C503.55 335.88 505.54 338.6 505.65 344.03L505.65 358.84L499.74 358.84C499.74 350.22 499.74 345.42 499.74 344.47C499.74 342.55 499.22 341.96 499.16 341.68C498.59 340.82 497.35 340.91 497.15 340.82C496.08 340.82 495.25 341.37 494.65 342.47L494.65 358.84L488.74 358.84L488.74 336.3L494.28 336.3C494.38 337.64 494.43 338.38 494.44 338.53ZM519.14 351.41C518.42 350.78 516.26 349.87 515.94 349.7C512.3 348.22 511.43 346.94 510.93 346.63C509.57 345.05 509.71 343.09 509.57 342.7C509.57 339.74 511.49 338.3 511.7 337.81C513.84 335.88 516.79 336.08 517.36 335.88C521.07 335.88 522.7 337.61 523.3 337.8C524.78 339.08 525.53 340.79 525.53 342.95C521.99 342.95 520.02 342.95 519.63 342.95C519.63 340.2 517.57 340.47 517.34 340.2C516.4 340.2 515.95 340.72 515.8 340.78C515.19 341.36 515.25 342.24 515.19 342.4C515.19 343.15 515.79 343.59 515.86 343.73C516.53 344.3 518.69 345.2 519.01 345.36C522.61 346.7 523.59 348.03 524.1 348.33C525.59 349.97 525.44 352.15 525.59 352.57C525.59 355.59 523.55 356.94 523.32 357.42C521.05 359.26 517.96 359.07 517.36 359.26C514.88 359.26 513.42 358.39 512.99 358.29C511.09 357.32 510.31 355.86 510.02 355.59C509.3 354.44 508.94 353.2 508.94 351.86C512.31 351.86 514.17 351.86 514.55 351.86C514.59 353.4 515.19 353.94 515.27 354.17C515.94 354.95 517.26 354.87 517.49 354.95C519.07 354.95 519.86 354.23 519.86 352.8C519.43 351.97 519.19 351.51 519.14 351.41ZM536.11 336.3L539.13 336.3L539.13 340.74L536.11 340.74C536.11 347.45 536.11 351.18 536.11 351.92C536.11 353.26 536.44 353.57 536.48 353.76C536.84 354.26 537.74 354.21 537.88 354.26C538.45 354.26 538.92 354.21 539.28 354.11C539.25 356.86 539.24 358.39 539.24 358.7C537.74 359.26 536.31 359.2 535.99 359.26C532.18 359.26 530.26 357.08 530.21 352.72L530.21 340.74L527.61 340.74L527.61 336.3L530.21 336.3L530.21 330.76L536.11 330.76L536.11 336.3ZM544.38 356.55C542.69 354.74 541.84 352.16 541.84 348.8C541.84 347.72 541.84 347.13 541.84 347.01C541.84 341.67 543.94 339.6 544.17 338.78C546.51 335.88 550.19 336.17 550.86 335.88C555.11 335.88 556.62 338.33 557.26 338.6C558.69 340.41 559.42 343.1 559.44 346.65L559.44 349.55C552.41 349.55 548.5 349.55 547.71 349.55C547.84 352.05 548.71 352.84 548.82 353.21C549.8 354.36 551.54 354.25 551.84 354.36C553.81 354.36 555.46 353.69 556.78 352.34C558.16 354.48 558.94 355.67 559.09 355.9C558.01 357.4 556.26 358.09 555.94 358.33C554.57 358.95 553.08 359.26 551.46 359.26C547.21 357.63 544.85 356.73 544.38 356.55ZM553.65 345.42C553.65 345.1 553.65 344.92 553.65 344.88C553.61 342.86 553.05 342.13 552.99 341.82C552.36 340.78 551.04 340.88 550.82 340.78C549.28 340.78 548.8 341.77 548.58 341.88C548.11 342.62 547.84 343.8 547.76 345.42L553.65 345.42ZM572.04 351.41C571.32 350.78 569.16 349.87 568.84 349.7C565.19 348.22 564.33 346.94 563.83 346.63C562.46 345.05 562.6 343.09 562.46 342.7C562.46 339.74 564.39 338.3 564.6 337.81C566.74 335.88 569.69 336.08 570.26 335.88C573.96 335.88 575.6 337.61 576.19 337.8C577.68 339.08 578.42 340.79 578.42 342.95C574.89 342.95 572.92 342.95 572.53 342.95C572.53 340.2 570.46 340.47 570.24 340.2C569.3 340.2 568.85 340.72 568.69 340.78C568.09 341.36 568.15 342.24 568.09 342.4C568.09 343.15 568.69 343.59 568.76 343.73C569.42 344.3 571.59 345.2 571.9 345.36C575.51 346.7 576.49 348.03 577 348.33C578.49 349.97 578.34 352.15 578.49 352.57C578.49 355.59 576.44 356.94 576.21 357.42C573.94 359.26 570.85 359.07 570.26 359.26C567.78 359.26 566.32 358.39 565.88 358.29C563.99 357.32 563.21 355.86 562.91 355.59C562.2 354.44 561.84 353.2 561.84 351.86C565.2 351.86 567.07 351.86 567.44 351.86C567.49 353.4 568.09 353.94 568.16 354.17C568.84 354.95 570.16 354.87 570.38 354.95C571.96 354.95 572.76 354.23 572.76 352.8C572.33 351.97 572.09 351.51 572.04 351.41ZM589.01 336.3L592.03 336.3L592.03 340.74L589.01 340.74C589.01 347.45 589.01 351.18 589.01 351.92C589.01 353.26 589.33 353.57 589.37 353.76C589.74 354.26 590.64 354.21 590.78 354.26C591.35 354.26 591.81 354.21 592.17 354.11C592.15 356.86 592.13 358.39 592.13 358.7C590.63 359.26 589.21 359.2 588.88 359.26C585.08 359.26 583.15 357.08 583.11 352.72L583.11 340.74L580.51 340.74L580.51 336.3L583.11 336.3L583.11 330.76L589.01 330.76L589.01 336.3Z" id="b2g43kneSE"></path><path d="M277.17 279.53L277.17 282.21L274.99 282.21L274.99 279.53L277.17 279.53ZM263.08 282.51C263.6 282.9 263.6 283.59 263.17 283.97C262.95 284.16 262.65 284.26 262.34 284.26C262.04 284.26 261.74 284.16 261.52 283.97C261.08 283.59 261.08 282.9 261.52 282.51C261.78 282.28 262.13 282.21 262.3 282.21C262.56 282.21 262.82 282.28 263.08 282.51ZM290.9 283.28C290.9 283.82 290.38 284.35 289.77 284.35C289.25 284.35 288.64 283.82 288.64 283.28C288.64 282.67 289.16 282.21 289.77 282.21C290.46 282.21 290.9 282.67 290.9 283.28ZM288.64 295.3C288.64 301.43 282.99 306.41 276.12 306.41C269.26 306.41 263.6 301.43 263.6 295.3C263.6 289.18 269.26 284.2 276.12 284.2C282.99 284.2 288.64 289.18 288.64 295.3ZM271.69 277.46C270.99 277.46 270.56 277.92 270.56 278.45C270.56 279.07 271.17 279.53 271.69 279.53C271.77 279.53 272.18 279.53 272.91 279.53C272.91 281.36 272.91 282.39 272.91 282.59C270.56 283.05 268.39 284.05 266.65 285.35C266.55 285.26 265.79 284.59 265.69 284.51C266.39 283.36 266.13 282.06 265.08 281.06C264.43 280.48 263.56 280.2 262.67 280.2C261.78 280.2 260.87 280.48 260.13 281.06C258.82 282.21 258.82 284.12 260.13 285.35C260.82 285.96 261.69 286.27 262.56 286.27C263.08 286.27 263.52 286.11 264.04 285.96C264.14 286.05 264.98 286.72 265.08 286.8C262.91 289.1 261.43 292.09 261.43 295.3C261.43 302.5 268.12 308.32 276.21 308.32C284.38 308.32 290.99 302.5 290.99 295.3C290.99 292.09 289.68 289.1 287.42 286.8C287.52 286.72 288.28 286.05 288.38 285.96C288.73 286.11 289.25 286.27 289.77 286.27C291.68 286.27 293.16 284.89 293.16 283.2C293.16 281.52 291.68 280.22 289.77 280.22C287.95 280.22 286.47 281.52 286.47 283.2C286.47 283.66 286.55 284.05 286.73 284.51C286.63 284.59 285.87 285.26 285.77 285.35C284.03 284.05 281.86 283.05 279.6 282.59C279.6 282.39 279.6 281.36 279.6 279.53C280.33 279.53 280.73 279.53 280.82 279.53C281.43 279.53 281.86 279.07 281.86 278.45C281.86 277.92 281.34 277.46 280.82 277.46C278.99 277.46 273.51 277.46 271.69 277.46Z" id="eyLy5Hm1q"></path><path d="M274.91 295.3C274.91 295.92 275.43 296.38 276.03 296.38C276.83 296.38 283.22 296.38 284.02 296.38C283.46 299.78 280.09 302.35 276.12 302.35C271.69 302.35 268.04 299.13 268.04 295.3C268.04 291.78 270.99 288.79 274.91 288.33C274.91 288.33 274.91 294.61 274.91 295.3ZM265.78 295.3C265.78 300.28 270.39 304.34 276.12 304.34C281.77 304.34 286.47 300.28 286.47 295.3C286.47 294.77 285.86 294.31 285.25 294.31C284.71 294.31 282.02 294.31 277.17 294.31C277.17 290.08 277.17 287.73 277.17 287.26C277.17 286.73 276.64 286.34 276.12 286.34C270.47 286.34 265.78 290.33 265.78 295.3Z" id="b4Zh1iVX6L"></path></defs><g><g><g><use xlink:href="#c6me8OeQW" opacity="1" fill="#ffffff" fill-opacity="1"></use><g><use xlink:href="#c6me8OeQW" opacity="1" fill-opacity="0" stroke="#000000" stroke-width="1" stroke-opacity="0"></use></g></g><g><use xlink:href="#g3Xovni1v3" opacity="1" fill="#000000" fill-opacity="0"></use><g><use xlink:href="#g3Xovni1v3" opacity="1" fill-opacity="0" stroke="#000000" stroke-width="1" stroke-opacity="0"></use></g></g><g><use xlink:href="#c6pewLN3rI" opacity="1" fill="#000000" fill-opacity="0"></use><g><use xlink:href="#c6pewLN3rI" opacity="1" fill-opacity="0" stroke="#2fbdb4" stroke-width="12" stroke-opacity="1"></use></g></g><g><use xlink:href="#a1GL4cYx91" opacity="1" fill="#000000" fill-opacity="0"></use><g><use xlink:href="#a1GL4cYx91" opacity="1" fill-opacity="0" stroke="#000000" stroke-width="1" stroke-opacity="0"></use></g></g><g><use xlink:href="#d2VnpCVEV" opacity="1" fill="#000000" fill-opacity="0"></use><g><use xlink:href="#d2VnpCVEV" opacity="1" fill-opacity="0" stroke="#a92d84" stroke-width="12" stroke-opacity="1"></use></g></g><g><use xlink:href="#b2IHDd18xy" opacity="1" fill="#2fbdb4" fill-opacity="0.74"></use><g><use xlink:href="#b2IHDd18xy" opacity="1" fill-opacity="0" stroke="#000000" stroke-width="1" stroke-opacity="0"></use></g></g><g><use xlink:href="#a9MliIf6X" opacity="1" fill="#2fbdb4" fill-opacity="0.74"></use><g><use xlink:href="#a9MliIf6X" opacity="1" fill-opacity="0" stroke="#000000" stroke-width="1" stroke-opacity="0"></use></g></g><g><use xlink:href="#k1AcLPjEHq" opacity="1" fill="#2fbdb4" fill-opacity="0.74"></use><g><use xlink:href="#k1AcLPjEHq" opacity="1" fill-opacity="0" stroke="#000000" stroke-width="1" stroke-opacity="0"></use></g></g><g><use xlink:href="#ak69UwVMI" opacity="1" fill="#2fbdb4" fill-opacity="0.74"></use><g><use xlink:href="#ak69UwVMI" opacity="1" fill-opacity="0" stroke="#000000" stroke-width="1" stroke-opacity="0"></use></g></g><g><use xlink:href="#c140fFthOs" opacity="1" fill="#2fbdb4" fill-opacity="0.74"></use><g><use xlink:href="#c140fFthOs" opacity="1" fill-opacity="0" stroke="#000000" stroke-width="1" stroke-opacity="0"></use></g></g><g><use xlink:href="#a16UzheBnN" opacity="1" fill="#2fbdb4" fill-opacity="0.74"></use><g><use xlink:href="#a16UzheBnN" opacity="1" fill-opacity="0" stroke="#000000" stroke-width="1" stroke-opacity="0"></use></g></g><g><use xlink:href="#acgNZEHMv" opacity="1" fill="#2fbdb4" fill-opacity="0.74"></use><g><use xlink:href="#acgNZEHMv" opacity="1" fill-opacity="0" stroke="#000000" stroke-width="1" stroke-opacity="0"></use></g></g><g><use xlink:href="#f6ITW21m9q" opacity="1" fill="#6f3ea1" fill-opacity="1"></use><g><use xlink:href="#f6ITW21m9q" opacity="1" fill-opacity="0" stroke="#000000" stroke-width="1" stroke-opacity="0"></use></g></g><g><use xlink:href="#b5oNIQEmu3" opacity="1" fill="#6f3ea1" fill-opacity="1"></use><g><use xlink:href="#b5oNIQEmu3" opacity="1" fill-opacity="0" stroke="#000000" stroke-width="1" stroke-opacity="0"></use></g></g><g><use xlink:href="#e2p09CzrN7" opacity="1" fill="#6f3ea1" fill-opacity="1"></use><g><use xlink:href="#e2p09CzrN7" opacity="1" fill-opacity="0" stroke="#000000" stroke-width="1" stroke-opacity="0"></use></g></g><g><use xlink:href="#f1hqPBKMUJ" opacity="1" fill="#6f3ea1" fill-opacity="1"></use><g><use xlink:href="#f1hqPBKMUJ" opacity="1" fill-opacity="0" stroke="#000000" stroke-width="1" stroke-opacity="0"></use></g></g><g><use xlink:href="#aS7rItFPk" opacity="1" fill="#6f3ea1" fill-opacity="1"></use><g><use xlink:href="#aS7rItFPk" opacity="1" fill-opacity="0" stroke="#000000" stroke-width="1" stroke-opacity="0"></use></g></g><g><use xlink:href="#d4KHDjacWL" opacity="1" fill="#6f3ea1" fill-opacity="1"></use><g><use xlink:href="#d4KHDjacWL" opacity="1" fill-opacity="0" stroke="#000000" stroke-width="1" stroke-opacity="0"></use></g></g><g><use xlink:href="#b5RVzaaVr" opacity="1" fill="#6f3ea1" fill-opacity="1"></use><g><use xlink:href="#b5RVzaaVr" opacity="1" fill-opacity="0" stroke="#000000" stroke-width="1" stroke-opacity="0"></use></g></g><g><use xlink:href="#dcpXAQKij" opacity="1" fill="#000000" fill-opacity="0"></use><g><use xlink:href="#dcpXAQKij" opacity="1" fill-opacity="0" stroke="#000000" stroke-width="1" stroke-opacity="0"></use></g></g><g><use xlink:href="#a3u2r0Hpit" opacity="1" fill="#000000" fill-opacity="0"></use><g><use xlink:href="#a3u2r0Hpit" opacity="1" fill-opacity="0" stroke="#6f3ea1" stroke-width="12" stroke-opacity="1"></use></g></g><g><use xlink:href="#a15VRyak2N" opacity="1" fill="#a92d84" fill-opacity="1"></use><g><use xlink:href="#a15VRyak2N" opacity="1" fill-opacity="0" stroke="#000000" stroke-width="1" stroke-opacity="0"></use></g></g><g><use xlink:href="#c1wgPvrIDo" opacity="1" fill="#a92d84" fill-opacity="1"></use><g><use xlink:href="#c1wgPvrIDo" opacity="1" fill-opacity="0" stroke="#000000" stroke-width="1" stroke-opacity="0"></use></g></g><g><use xlink:href="#cdFs2tyOd" opacity="1" fill="#a92d84" fill-opacity="1"></use><g><use xlink:href="#cdFs2tyOd" opacity="1" fill-opacity="0" stroke="#000000" stroke-width="1" stroke-opacity="0"></use></g></g><g><use xlink:href="#j2X6qybkO" opacity="1" fill="#a92d84" fill-opacity="1"></use><g><use xlink:href="#j2X6qybkO" opacity="1" fill-opacity="0" stroke="#000000" stroke-width="1" stroke-opacity="0"></use></g></g><g><use xlink:href="#d1pNFqIFlW" opacity="1" fill="#a92d84" fill-opacity="1"></use><g><use xlink:href="#d1pNFqIFlW" opacity="1" fill-opacity="0" stroke="#000000" stroke-width="1" stroke-opacity="0"></use></g></g><g><use xlink:href="#dLee04Un7" opacity="1" fill="#a92d84" fill-opacity="1"></use><g><use xlink:href="#dLee04Un7" opacity="1" fill-opacity="0" stroke="#000000" stroke-width="1" stroke-opacity="0"></use></g></g><g><use xlink:href="#i1CANPTU5T" opacity="1" fill="#a92d84" fill-opacity="1"></use><g><use xlink:href="#i1CANPTU5T" opacity="1" fill-opacity="0" stroke="#000000" stroke-width="1" stroke-opacity="0"></use></g></g><g><use xlink:href="#acmhLZieI" opacity="1" fill="#000000" fill-opacity="0"></use><g><use xlink:href="#acmhLZieI" opacity="1" fill-opacity="0" stroke="#000000" stroke-width="1" stroke-opacity="0"></use></g></g><g><use xlink:href="#f1Z6v7KBxb" opacity="1" fill="#a92d77" fill-opacity="1"></use><g><use xlink:href="#f1Z6v7KBxb" opacity="1" fill-opacity="0" stroke="#000000" stroke-width="1" stroke-opacity="0"></use></g></g><g><use xlink:href="#b2g43kneSE" opacity="1" fill="#a92d77" fill-opacity="1"></use><g><use xlink:href="#b2g43kneSE" opacity="1" fill-opacity="0" stroke="#000000" stroke-width="1" stroke-opacity="0"></use></g></g><g><use xlink:href="#eyLy5Hm1q" opacity="1" fill="#a92d77" fill-opacity="1"></use><g><use xlink:href="#eyLy5Hm1q" opacity="1" fill-opacity="0" stroke="#000000" stroke-width="1" stroke-opacity="0"></use></g></g><g><use xlink:href="#b4Zh1iVX6L" opacity="1" fill="#a92d77" fill-opacity="1"></use><g><use xlink:href="#b4Zh1iVX6L" opacity="1" fill-opacity="0" stroke="#000000" stroke-width="1" stroke-opacity="0"></use></g></g></g></g></svg>