<svg version="1.1" viewBox="0.0 0.0 960.0 540.0" fill="none" stroke="none" stroke-linecap="square" stroke-miterlimit="10" xmlns:xlink="http://www.w3.org/1999/xlink" xmlns="http://www.w3.org/2000/svg"><clipPath id="g9627d3c135_1_187.0"><path d="m0 0l960.0 0l0 540.0l-960.0 0l0 -540.0z" clip-rule="nonzero"/></clipPath><g clip-path="url(#g9627d3c135_1_187.0)"><path fill="#ffffff" d="m0 0l960.0 0l0 540.0l-960.0 0z" fill-rule="evenodd"/><path fill="#000000" fill-opacity="0.0" d="m307.95276 154.6588l639.77954 0l0 88.7874l-639.77954 0z" fill-rule="evenodd"/><path fill="#a92d77" d="m344.109 184.8013q7.890625 0 12.359375 1.640625q4.484375 1.625 6.390625 5.609375q1.921875 3.984375 1.921875 11.140625q0 7.15625 -1.84375 11.140625q-1.828125 3.984375 -5.984375 5.578125q-4.140625 1.578125 -11.203125 1.578125q-3.75 0 -7.328125 -0.328125q-3.578125 -0.328125 -6.671875 -0.8125q-3.078125 -0.484375 -5.28125 -1.015625q-2.203125 -0.53125 -3.015625 -1.015625l0.25 -6.1875q4.796875 0 9.953125 0q5.171875 0 10.21875 0q3.25 -0.078125 5.078125 -0.8125q1.828125 -0.734375 2.59375 -2.671875q0.78125 -1.953125 0.78125 -5.453125q0 -3.578125 -0.78125 -5.53125q-0.765625 -1.953125 -2.59375 -2.71875q-1.828125 -0.78125 -5.078125 -0.78125q-7.484375 0 -12.859375 0.078125q-5.359375 0.078125 -7.234375 0.328125l-1.21875 -8.9375q3.421875 -0.40625 6.421875 -0.5625q3.015625 -0.171875 6.546875 -0.21875q3.546875 -0.046875 8.578125 -0.046875zm-9.09375 0.828125l0 56.109375l-12.453125 0l0 -56.109375l12.453125 0z" fill-rule="nonzero"/><path fill="#a92d77" d="m389.0417 207.27005q4.21875 0 7.140625 1.125q2.921875 1.109375 4.453125 3.796875q1.53125 2.6875 1.53125 7.375l0 22.171875l-8.03125 0l-1.421875 -7.28125l-0.6875 -1.015625l0 -13.9375q0 -2.375 -1.125 -3.46875q-1.109375 -1.09375 -4.234375 -1.09375q-2.59375 0 -6.46875 0.171875q-3.875 0.171875 -7.953125 0.4375l-0.953125 -6.65625q2.453125 -0.46875 5.640625 -0.8125q3.203125 -0.34375 6.390625 -0.578125q3.203125 -0.234375 5.71875 -0.234375zm8.96875 13.796875l-0.0625 5.640625l-14.953125 0.078125q-1.84375 0 -2.625 0.890625q-0.78125 0.875 -0.78125 2.359375l0 1.640625q0 1.703125 0.953125 2.625q0.953125 0.90625 3.0625 0.90625q1.765625 0 3.828125 -0.75q2.078125 -0.75 4.125 -2.109375q2.046875 -1.359375 3.609375 -3.1875l0 4.34375q-0.609375 1.03125 -1.8125 2.5625q-1.1875 1.53125 -3.03125 3.0q-1.828125 1.453125 -4.28125 2.46875q-2.4375 1.015625 -5.5625 1.015625q-3.0625 0 -5.515625 -1.078125q-2.453125 -1.09375 -3.875 -3.203125q-1.421875 -2.109375 -1.421875 -5.234375l0 -3.46875q0 -4.015625 2.71875 -6.25q2.71875 -2.25 7.46875 -2.25l18.15625 0zm19.931915 -12.921875l1.21875 6.671875l0.953125 0.875l0 26.046875l-10.0625 0l0 -33.59375l7.890625 0zm16.390625 -0.875l-0.953125 9.3125l-2.796875 0q-2.375 0 -4.96875 0.6875q-2.578125 0.671875 -6.515625 2.03125l-0.6875 -5.640625q3.546875 -3.140625 7.140625 -4.765625q3.609375 -1.625 7.015625 -1.625l1.765625 0zm22.300781 0q4.21875 0 7.140625 1.125q2.921875 1.109375 4.453125 3.796875q1.53125 2.6875 1.53125 7.375l0 22.171875l-8.03125 0l-1.421875 -7.28125l-0.6875 -1.015625l0 -13.9375q0 -2.375 -1.125 -3.46875q-1.109375 -1.09375 -4.234375 -1.09375q-2.59375 0 -6.46875 0.171875q-3.875 0.171875 -7.953125 0.4375l-0.953125 -6.65625q2.453125 -0.46875 5.640625 -0.8125q3.203125 -0.34375 6.390625 -0.578125q3.203125 -0.234375 5.71875 -0.234375zm8.96875 13.796875l-0.0625 5.640625l-14.953125 0.078125q-1.84375 0 -2.625 0.890625q-0.78125 0.875 -0.78125 2.359375l0 1.640625q0 1.703125 0.953125 2.625q0.953125 0.90625 3.0625 0.90625q1.765625 0 3.828125 -0.75q2.078125 -0.75 4.125 -2.109375q2.046875 -1.359375 3.609375 -3.1875l0 4.34375q-0.609375 1.03125 -1.8125 2.5625q-1.1875 1.53125 -3.03125 3.0q-1.828125 1.453125 -4.28125 2.46875q-2.4375 1.015625 -5.5625 1.015625q-3.0625 0 -5.515625 -1.078125q-2.453125 -1.09375 -3.875 -3.203125q-1.421875 -2.109375 -1.421875 -5.234375l0 -3.46875q0 -4.015625 2.71875 -6.25q2.71875 -2.25 7.46875 -2.25l18.15625 0zm22.181915 -26.921875l-0.078125 36.84375q0 1.703125 1.015625 2.5625q1.03125 0.84375 3.0 0.84375l2.71875 0l1.15625 6.796875q-0.8125 0.40625 -2.3125 0.703125q-1.5 0.3125 -3.0625 0.484375q-1.5625 0.171875 -2.640625 0.171875q-4.5625 0 -7.21875 -2.375q-2.65625 -2.375 -2.65625 -6.671875l0 -39.359375l10.078125 0zm22.304016 0l-0.078125 36.84375q0 1.703125 1.015625 2.5625q1.03125 0.84375 3.0 0.84375l2.71875 0l1.15625 6.796875q-0.8125 0.40625 -2.3125 0.703125q-1.5 0.3125 -3.0625 0.484375q-1.5625 0.171875 -2.640625 0.171875q-4.5625 0 -7.21875 -2.375q-2.65625 -2.375 -2.65625 -6.671875l0 -39.359375l10.078125 0zm28.069641 13.125q8.5 0 12.203125 2.890625q3.71875 2.875 3.71875 8.59375q0.0625 4.625 -2.3125 6.90625q-2.375 2.28125 -8.234375 2.28125l-18.765625 0l0 -5.65625l15.984375 0q2.3125 0 2.953125 -0.984375q0.65625 -0.984375 0.65625 -2.75q-0.078125 -2.375 -1.40625 -3.296875q-1.328125 -0.921875 -4.453125 -0.921875q-2.78125 0 -4.34375 0.75q-1.5625 0.75 -2.1875 2.859375q-0.609375 2.109375 -0.609375 6.109375q0 4.21875 0.75 6.5q0.75 2.28125 2.546875 3.171875q1.8125 0.875 5.0 0.875q2.3125 0 5.75 -0.171875q3.4375 -0.171875 6.90625 -0.578125l0.953125 6.1875q-1.984375 0.953125 -4.5 1.5q-2.515625 0.546875 -5.171875 0.78125q-2.640625 0.234375 -5.09375 0.234375q-6.390625 0 -10.296875 -1.859375q-3.90625 -1.875 -5.640625 -5.75q-1.734375 -3.875 -1.734375 -9.9375q0 -6.59375 1.765625 -10.46875q1.765625 -3.875 5.5625 -5.5625q3.8125 -1.703125 10.0 -1.703125zm32.586426 -13.125l-0.078125 36.84375q0 1.703125 1.015625 2.5625q1.03125 0.84375 3.0 0.84375l2.71875 0l1.15625 6.796875q-0.8125 0.40625 -2.3125 0.703125q-1.5 0.3125 -3.0625 0.484375q-1.5625 0.171875 -2.640625 0.171875q-4.5625 0 -7.21875 -2.375q-2.65625 -2.375 -2.65625 -6.671875l0 -39.359375l10.078125 0z" fill-rule="nonzero"/><path fill="#a92d77" d="m344.109 282.8013q7.890625 0 12.359375 1.640625q4.484375 1.625 6.390625 5.609375q1.921875 3.984375 1.921875 11.140625q0 7.15625 -1.84375 11.140625q-1.828125 3.984375 -5.984375 5.578125q-4.140625 1.578125 -11.203125 1.578125q-3.75 0 -7.328125 -0.328125q-3.578125 -0.328125 -6.671875 -0.8125q-3.078125 -0.484375 -5.28125 -1.015625q-2.203125 -0.53125 -3.015625 -1.015625l0.25 -6.1875q4.796875 0 9.953125 0q5.171875 0 10.21875 0q3.25 -0.078125 5.078125 -0.8125q1.828125 -0.734375 2.59375 -2.671875q0.78125 -1.953125 0.78125 -5.453125q0 -3.578125 -0.78125 -5.53125q-0.765625 -1.953125 -2.59375 -2.71875q-1.828125 -0.78125 -5.078125 -0.78125q-7.484375 0 -12.859375 0.078125q-5.359375 0.078125 -7.234375 0.328125l-1.21875 -8.9375q3.421875 -0.40625 6.421875 -0.5625q3.015625 -0.171875 6.546875 -0.21875q3.546875 -0.046875 8.578125 -0.046875zm-9.09375 0.828125l0 56.109375l-12.453125 0l0 -56.109375l12.453125 0z" fill-rule="nonzero"/><path fill="#a92d77" d="m387.19794 305.27005q8.5 0 12.203125 2.890625q3.71875 2.875 3.71875 8.59375q0.0625 4.625 -2.3125 6.90625q-2.375 2.28125 -8.234375 2.28125l-18.765625 0l0 -5.65625l15.984375 0q2.3125 0 2.953125 -0.984375q0.65625 -0.984375 0.65625 -2.75q-0.078125 -2.375 -1.40625 -3.296875q-1.328125 -0.921875 -4.453125 -0.921875q-2.78125 0 -4.34375 0.75q-1.5625 0.75 -2.1875 2.859375q-0.609375 2.109375 -0.609375 6.109375q0 4.21875 0.75 6.5q0.75 2.28125 2.546875 3.171875q1.8125 0.875 5.0 0.875q2.3125 0 5.75 -0.171875q3.4375 -0.171875 6.90625 -0.578125l0.953125 6.1875q-1.984375 0.953125 -4.5 1.5q-2.515625 0.546875 -5.171875 0.78125q-2.640625 0.234375 -5.09375 0.234375q-6.390625 0 -10.296875 -1.859375q-3.90625 -1.875 -5.640625 -5.75q-1.734375 -3.875 -1.734375 -9.9375q0 -6.59375 1.765625 -10.46875q1.765625 -3.875 5.5625 -5.5625q3.8125 -1.703125 10.0 -1.703125zm30.336426 0.875l1.21875 6.671875l0.953125 0.875l0 26.046875l-10.0625 0l0 -33.59375l7.890625 0zm16.390625 -0.875l-0.953125 9.3125l-2.796875 0q-2.375 0 -4.96875 0.6875q-2.578125 0.671875 -6.515625 2.03125l-0.6875 -5.640625q3.546875 -3.140625 7.140625 -4.765625q3.609375 -1.625 7.015625 -1.625l1.765625 0zm47.31726 0q4.5625 0 6.9375 2.375q2.390625 2.375 2.390625 6.9375l0 25.15625l-10.0 0l0 -22.03125q0 -2.109375 -0.8125 -3.015625q-0.8125 -0.921875 -2.859375 -0.921875q-1.21875 0 -2.3125 0.34375q-1.09375 0.328125 -2.515625 1.078125q-1.421875 0.75 -3.46875 2.03125l-0.546875 -5.5625q3.265625 -3.203125 6.421875 -4.796875q3.171875 -1.59375 6.765625 -1.59375zm-34.53125 0.875l1.015625 6.671875l1.015625 0.875l0 26.046875l-10.0625 0l0 -33.59375l8.03125 0zm13.59375 -0.875q4.484375 0 6.828125 2.34375q2.359375 2.34375 2.359375 6.96875l0 25.15625l-9.65625 0l0 -22.03125q0 -2.171875 -0.921875 -3.046875q-0.921875 -0.890625 -2.828125 -0.890625q-1.15625 0 -2.28125 0.3125q-1.109375 0.296875 -2.578125 1.046875q-1.46875 0.734375 -3.5625 2.09375l-0.625 -5.5625q3.34375 -3.203125 6.46875 -4.796875q3.125 -1.59375 6.796875 -1.59375zm48.142456 0.875l0 22.109375q0 2.09375 0.921875 2.984375q0.921875 0.890625 2.953125 0.890625q2.109375 0 4.1875 -0.78125q2.078125 -0.796875 5.125 -2.484375l0.828125 5.5q-3.671875 3.203125 -7.21875 4.765625q-3.53125 1.5625 -7.265625 1.5625q-9.59375 0 -9.59375 -9.390625l0 -25.15625l10.0625 0zm22.234375 0l0 33.59375l-7.953125 0l-1.15625 -6.59375l-0.953125 -0.953125l0 -26.046875l10.0625 0zm21.355286 -9.3125l0 32.15625q0 1.84375 0.84375 2.625q0.859375 0.78125 2.828125 0.78125l4.359375 0l1.078125 6.796875q-1.21875 0.40625 -2.984375 0.703125q-1.765625 0.3125 -3.546875 0.484375q-1.765625 0.171875 -2.984375 0.171875q-4.5625 0 -7.109375 -2.4375q-2.546875 -2.453125 -2.546875 -6.875l-0.0625 -34.40625l10.125 0zm9.390625 9.3125l0 6.59375l-25.375 0l0 -6.25l6.53125 -0.34375l18.84375 0zm23.11444 -0.875q4.21875 0 7.140625 1.125q2.921875 1.109375 4.453125 3.796875q1.53125 2.6875 1.53125 7.375l0 22.171875l-8.03125 0l-1.421875 -7.28125l-0.6875 -1.015625l0 -13.9375q0 -2.375 -1.125 -3.46875q-1.109375 -1.09375 -4.234375 -1.09375q-2.59375 0 -6.46875 0.171875q-3.875 0.171875 -7.953125 0.4375l-0.953125 -6.65625q2.453125 -0.46875 5.640625 -0.8125q3.203125 -0.34375 6.390625 -0.578125q3.203125 -0.234375 5.71875 -0.234375zm8.96875 13.796875l-0.0625 5.640625l-14.953125 0.078125q-1.84375 0 -2.625 0.890625q-0.78125 0.875 -0.78125 2.359375l0 1.640625q0 1.703125 0.953125 2.625q0.953125 0.90625 3.0625 0.90625q1.765625 0 3.828125 -0.75q2.078125 -0.75 4.125 -2.109375q2.046875 -1.359375 3.609375 -3.1875l0 4.34375q-0.609375 1.03125 -1.8125 2.5625q-1.1875 1.53125 -3.03125 3.0q-1.828125 1.453125 -4.28125 2.46875q-2.4375 1.015625 -5.5625 1.015625q-3.0625 0 -5.515625 -1.078125q-2.453125 -1.09375 -3.875 -3.203125q-1.421875 -2.109375 -1.421875 -5.234375l0 -3.46875q0 -4.015625 2.71875 -6.25q2.71875 -2.25 7.46875 -2.25l18.15625 0zm25.16626 -22.234375l0 32.15625q0 1.84375 0.84375 2.625q0.859375 0.78125 2.828125 0.78125l4.359375 0l1.078125 6.796875q-1.21875 0.40625 -2.984375 0.703125q-1.765625 0.3125 -3.546875 0.484375q-1.765625 0.171875 -2.984375 0.171875q-4.5625 0 -7.109375 -2.4375q-2.546875 -2.453125 -2.546875 -6.875l-0.0625 -34.40625l10.125 0zm9.390625 9.3125l0 6.59375l-25.375 0l0 -6.25l6.53125 -0.34375l18.84375 0zm15.630066 0l0 33.59375l-9.984375 0l0 -33.59375l9.984375 0zm-2.78125 -14.828125q2.984375 0 2.984375 3.0625l0 3.609375q0 3.0625 -2.984375 3.0625l-4.359375 0q-2.984375 0 -2.984375 -3.0625l0 -3.609375q0 -3.0625 2.984375 -3.0625l4.359375 0zm27.268005 13.953125q6.328125 0 10.125 1.734375q3.8125 1.71875 5.46875 5.609375q1.671875 3.875 1.671875 10.390625q0 6.390625 -1.671875 10.28125q-1.65625 3.875 -5.46875 5.578125q-3.796875 1.6875 -10.125 1.6875q-6.265625 0 -10.109375 -1.6875q-3.828125 -1.703125 -5.53125 -5.578125q-1.703125 -3.890625 -1.703125 -10.28125q0 -6.515625 1.703125 -10.390625q1.703125 -3.890625 5.53125 -5.609375q3.84375 -1.734375 10.109375 -1.734375zm0 7.34375q-2.59375 0 -4.09375 0.890625q-1.484375 0.875 -2.09375 3.125q-0.609375 2.234375 -0.609375 6.375q0 4.09375 0.609375 6.34375q0.609375 2.234375 2.09375 3.09375q1.5 0.84375 4.09375 0.84375q2.578125 0 4.078125 -0.84375q1.5 -0.859375 2.109375 -3.09375q0.609375 -2.25 0.609375 -6.34375q0 -4.140625 -0.609375 -6.375q-0.609375 -2.25 -2.109375 -3.125q-1.5 -0.890625 -4.078125 -0.890625zm47.526306 -7.34375q9.515625 0 9.515625 9.3125l0 25.15625l-10.0625 0l0 -22.03125q0 -2.25 -0.8125 -3.09375q-0.8125 -0.84375 -2.78125 -0.84375q-2.1875 0 -4.5 0.84375q-2.296875 0.84375 -5.703125 2.609375l-0.484375 -5.640625q3.609375 -3.0625 7.375 -4.6875q3.78125 -1.625 7.453125 -1.625zm-15.296875 0.875l1.15625 6.671875l0.8125 0.875l0 26.046875l-10.0625 0l0 -33.59375l8.09375 0zm45.555542 -0.875q2.453125 0 5.3125 0.171875q2.859375 0.15625 5.578125 0.4375q2.71875 0.265625 4.828125 0.671875l-0.6875 6.265625q-3.265625 -0.078125 -6.5625 -0.109375q-3.296875 -0.03125 -6.421875 -0.03125q-2.65625 -0.0625 -4.09375 0.078125q-1.421875 0.125 -2.0 0.640625q-0.578125 0.5 -0.578125 1.796875q0 1.5 1.015625 2.015625q1.03125 0.5 3.40625 1.109375l8.78125 2.109375q4.203125 1.09375 6.25 3.234375q2.046875 2.140625 2.046875 6.421875q0 4.21875 -1.578125 6.46875q-1.5625 2.234375 -4.96875 3.09375q-3.390625 0.84375 -8.765625 0.84375q-2.109375 0 -6.25 -0.203125q-4.140625 -0.203125 -9.109375 -1.015625l0.671875 -6.265625q1.234375 0.078125 3.125 0.109375q1.90625 0.03125 4.15625 0.03125q2.25 0 4.484375 0q3.46875 0 5.296875 -0.171875q1.84375 -0.171875 2.515625 -0.78125q0.6875 -0.609375 0.6875 -1.84375q0 -1.484375 -1.15625 -2.03125q-1.15625 -0.546875 -3.671875 -1.15625l-8.5 -2.109375q-3.1875 -0.890625 -4.96875 -2.25q-1.765625 -1.359375 -2.484375 -3.328125q-0.703125 -1.96875 -0.703125 -4.6875q0 -3.46875 1.390625 -5.546875q1.390625 -2.078125 4.546875 -3.015625q3.171875 -0.953125 8.40625 -0.953125zm36.451782 -8.4375l0 32.15625q0 1.84375 0.84375 2.625q0.859375 0.78125 2.828125 0.78125l4.359375 0l1.078125 6.796875q-1.21875 0.40625 -2.984375 0.703125q-1.765625 0.3125 -3.546875 0.484375q-1.765625 0.171875 -2.984375 0.171875q-4.5625 0 -7.109375 -2.4375q-2.546875 -2.453125 -2.546875 -6.875l-0.0625 -34.40625l10.125 0zm9.390625 9.3125l0 6.59375l-25.375 0l0 -6.25l6.53125 -0.34375l18.84375 0zm21.27063 -0.875q8.5 0 12.203125 2.890625q3.71875 2.875 3.71875 8.59375q0.0625 4.625 -2.3125 6.90625q-2.375 2.28125 -8.234375 2.28125l-18.765625 0l0 -5.65625l15.984375 0q2.3125 0 2.953125 -0.984375q0.65625 -0.984375 0.65625 -2.75q-0.078125 -2.375 -1.40625 -3.296875q-1.328125 -0.921875 -4.453125 -0.921875q-2.78125 0 -4.34375 0.75q-1.5625 0.75 -2.1875 2.859375q-0.609375 2.109375 -0.609375 6.109375q0 4.21875 0.75 6.5q0.75 2.28125 2.546875 3.171875q1.8125 0.875 5.0 0.875q2.3125 0 5.75 -0.171875q3.4375 -0.171875 6.90625 -0.578125l0.953125 6.1875q-1.984375 0.953125 -4.5 1.5q-2.515625 0.546875 -5.171875 0.78125q-2.640625 0.234375 -5.09375 0.234375q-6.390625 0 -10.296875 -1.859375q-3.90625 -1.875 -5.640625 -5.75q-1.734375 -3.875 -1.734375 -9.9375q0 -6.59375 1.765625 -10.46875q1.765625 -3.875 5.5625 -5.5625q3.8125 -1.703125 10.0 -1.703125zm35.22705 0q2.453125 0 5.3125 0.171875q2.859375 0.15625 5.578125 0.4375q2.71875 0.265625 4.828125 0.671875l-0.6875 6.265625q-3.265625 -0.078125 -6.5625 -0.109375q-3.296875 -0.03125 -6.421875 -0.03125q-2.65625 -0.0625 -4.09375 0.078125q-1.421875 0.125 -2.0 0.640625q-0.578125 0.5 -0.578125 1.796875q0 1.5 1.015625 2.015625q1.03125 0.5 3.40625 1.109375l8.78125 2.109375q4.203125 1.09375 6.25 3.234375q2.046875 2.140625 2.046875 6.421875q0 4.21875 -1.578125 6.46875q-1.5625 2.234375 -4.96875 3.09375q-3.390625 0.84375 -8.765625 0.84375q-2.109375 0 -6.25 -0.203125q-4.140625 -0.203125 -9.109375 -1.015625l0.671875 -6.265625q1.234375 0.078125 3.125 0.109375q1.90625 0.03125 4.15625 0.03125q2.25 0 4.484375 0q3.46875 0 5.296875 -0.171875q1.84375 -0.171875 2.515625 -0.78125q0.6875 -0.609375 0.6875 -1.84375q0 -1.484375 -1.15625 -2.03125q-1.15625 -0.546875 -3.671875 -1.15625l-8.5 -2.109375q-3.1875 -0.890625 -4.96875 -2.25q-1.765625 -1.359375 -2.484375 -3.328125q-0.703125 -1.96875 -0.703125 -4.6875q0 -3.46875 1.390625 -5.546875q1.390625 -2.078125 4.546875 -3.015625q3.171875 -0.953125 8.40625 -0.953125zm36.451843 -8.4375l0 32.15625q0 1.84375 0.84375 2.625q0.859375 0.78125 2.828125 0.78125l4.359375 0l1.078125 6.796875q-1.21875 0.40625 -2.984375 0.703125q-1.765625 0.3125 -3.546875 0.484375q-1.765625 0.171875 -2.984375 0.171875q-4.5625 0 -7.109375 -2.4375q-2.546875 -2.453125 -2.546875 -6.875l-0.0625 -34.40625l10.125 0zm9.390625 9.3125l0 6.59375l-25.375 0l0 -6.25l6.53125 -0.34375l18.84375 0z" fill-rule="nonzero"/><path fill="#000000" fill-opacity="0.0" d="m53.296616 332.1398c4.7135963 -12.589111 19.774033 -56.619934 28.28157 -75.53476c8.507545 -18.914825 13.882378 -34.183655 22.763687 -37.954178c8.881317 -3.7705078 25.436829 12.775909 30.5242 15.331085" fill-rule="evenodd"/><path stroke="#2fbdb4" stroke-width="12.0" stroke-linejoin="round" stroke-linecap="butt" d="m53.296616 332.1398c4.7135963 -12.589111 19.774033 -56.619934 28.28157 -75.53476c8.507545 -18.914825 13.882378 -34.183655 22.763687 -37.954178c8.881317 -3.7705078 25.436829 12.775909 30.5242 15.331085" fill-rule="evenodd"/><path fill="#2fbdb4" fill-opacity="0.7368" d="m122.45511 297.00644c0.8638916 0 1.5815201 0.60983276 1.5815201 1.3439636l0 27.290741c0 0.73413086 -0.7176285 1.3439636 -1.5815201 1.3439636l-31.973213 0c-1.0055847 0 -1.5815201 -0.60983276 -1.5815201 -1.3439636l0 -27.290741c0 -0.73413086 0.57593536 -1.3439636 1.5815201 -1.3439636zm-29.088997 -8.444366c-0.8638916 0 -1.5860901 0.60983276 -1.5860901 1.3439636l0 4.16391l-1.7277832 0c-2.5916824 0 -4.7537003 1.833374 -4.7537003 4.160034l0 1.3439636l-4.895401 0c-0.8638916 0 -1.5815201 0.6137085 -1.5815201 1.3478394c0 0.73410034 0.7176285 1.3439331 1.5815201 1.3439331l4.895401 0l0 2.816101l-4.895401 0c-0.8638916 0 -1.5815201 0.6137085 -1.5815201 1.3478394c0 0.8545227 0.7176285 1.4682312 1.5815201 1.4682312l4.895401 0l0 2.691803l-4.895401 0c-0.8638916 0 -1.5815201 0.60980225 -1.5815201 1.3439331c0 0.85842896 0.7176285 1.4682617 1.5815201 1.4682617l4.895401 0l0 2.6956482l-4.895401 0c-0.8638916 0 -1.5815201 0.60983276 -1.5815201 1.3439636c0 0.85842896 0.7176285 1.4682617 1.5815201 1.4682617l4.895401 0l0 2.6917725l-4.895401 0c-0.8638916 0 -1.5815201 0.6137085 -1.5815201 1.3478394c0 0.8545227 0.7176285 1.4682312 1.5815201 1.4682312l4.895401 0l0 1.3439636c0 2.3266602 2.1620178 4.16391 4.7537003 4.16391l1.7277832 0l0 4.035736c0 0.85842896 0.7221985 1.4682617 1.5860901 1.4682617c0.86389923 0 1.5815201 -0.60983276 1.5815201 -1.4682617l0 -4.404724l3.313881 0l0 4.160034c0 0.73410034 0.7176285 1.3478394 1.5815201 1.3478394c0.8638916 0 1.5860901 -0.613739 1.5860901 -1.3478394l0 -4.160034l3.3093033 0l0 4.160034c0 0.73410034 0.7221985 1.3478394 1.5860901 1.3478394c0.86389923 0 1.5860977 -0.613739 1.5860977 -1.3478394l0 -4.160034l3.3093033 0l0 4.160034c0 0.73410034 0.7221985 1.3478394 1.5860901 1.3478394c0.8638916 0 1.5815201 -0.613739 1.5815201 -1.3478394l0 -4.160034l3.313881 0l0 4.160034c0 0.73410034 0.71762085 1.3478394 1.5815201 1.3478394c0.8638916 0 1.5860901 -0.613739 1.5860901 -1.3478394l0 -4.160034l1.5860901 0c2.7333755 0 4.8953934 -1.8372498 4.8953934 -4.160034l0 -1.3478394l4.8953934 0c0.86390686 0 1.5815277 -0.60983276 1.5815277 -1.3439636c0 -0.73413086 -0.71762085 -1.3478394 -1.5815277 -1.3478394l-4.8953934 0l0 -2.8121948l4.8953934 0c0.86390686 0 1.5815277 -0.6137085 1.5815277 -1.3478394c0 -0.8545227 -0.71762085 -1.4682312 -1.5815277 -1.4682312l-4.8953934 0l0 -2.691803l4.8953934 0c0.86390686 0 1.5815277 -0.6137085 1.5815277 -1.3478088c0 -0.8545532 -0.71762085 -1.4682617 -1.5815277 -1.4682617l-4.8953934 0l0 -2.6917725l4.8953934 0l0 0.36898804c0.86390686 0 1.5815277 -0.6137085 1.5815277 -1.4682312c0 -0.73413086 -0.71762085 -1.3478394 -1.5815277 -1.3478394l-4.8953934 0l0 -2.816101l4.8953934 0c0.86390686 0 1.5815277 -0.60983276 1.5815277 -1.3439331c0 -0.73413086 -0.71762085 -1.3478394 -1.5815277 -1.3478394l-4.8953934 0l0 -1.3439636c0 -2.3266602 -2.1620178 -4.160034 -4.8953934 -4.160034l-1.5860901 0l0 -4.16391c0 -0.73413086 -0.7221985 -1.3439636 -1.5860901 -1.3439636c-0.86389923 0 -1.5815201 0.60983276 -1.5815201 1.3439636l0 4.16391l-3.313881 0l0 -4.16391c0 -0.73413086 -0.7176285 -1.3439636 -1.5815201 -1.3439636c-0.8638916 0 -1.5860901 0.60983276 -1.5860901 1.3439636l0 4.16391l-3.3093033 0l0 -4.16391c0 -0.73413086 -0.7221985 -1.3439636 -1.5860977 -1.3439636c-0.8638916 0 -1.5860901 0.60983276 -1.5860901 1.3439636l0 4.16391l-3.3093033 0l0 -4.16391c0 -0.73413086 -0.7221985 -1.3439636 -1.5860901 -1.3439636c-0.8638916 0 -1.5815201 0.60983276 -1.5815201 1.3439636l0 4.16391l-3.313881 0l0 -4.16391c0 -0.73413086 -0.71762085 -1.3439636 -1.5815201 -1.3439636z" fill-rule="evenodd"/><path fill="#2fbdb4" fill-opacity="0.7368" d="m93.654076 299.57394c-0.8638916 0 -1.5860901 0.6137085 -1.5860901 1.3478394c0 0.8545227 0.7221985 1.4682312 1.5860901 1.4682312c0.86389923 0 1.5815201 -0.6137085 1.5815201 -1.4682312c0 -0.73413086 -0.71762085 -1.3478394 -1.5815201 -1.3478394z" fill-rule="evenodd"/><path fill="#2fbdb4" fill-opacity="0.7368" d="m93.654076 321.4811c-0.8638916 0 -1.5860901 0.60983276 -1.5860901 1.3439636c0 0.73413086 0.7221985 1.3478394 1.5860901 1.3478394c0.86389923 0 1.5815201 -0.6137085 1.5815201 -1.3478394c0 -0.73413086 -0.71762085 -1.3439636 -1.5815201 -1.3439636z" fill-rule="evenodd"/><path fill="#2fbdb4" fill-opacity="0.7368" d="m119.42919 321.4811c-0.8638916 0 -1.5860901 0.60983276 -1.5860901 1.3439636c0 0.73413086 0.7221985 1.3478394 1.5860901 1.3478394c0.8638916 0 1.5860901 -0.6137085 1.5860901 -1.3478394c0 -0.73413086 -0.7221985 -1.3439636 -1.5860901 -1.3439636z" fill-rule="evenodd"/><path fill="#2fbdb4" fill-opacity="0.7368" d="m119.42919 299.57394c-0.8638916 0 -1.5860901 0.6137085 -1.5860901 1.3478394c0 0.73410034 0.7221985 1.4682312 1.5860901 1.4682312c0.8638916 0 1.5860901 -0.73413086 1.5860901 -1.4682312c0 -0.73413086 -0.7221985 -1.3478394 -1.5860901 -1.3478394z" fill-rule="evenodd"/><path fill="#2fbdb4" fill-opacity="0.7368" d="m108.05231 303.85828l0 0.4894104c0 0.6137085 0.43423462 1.1031189 1.1518555 1.2235413c0.86389923 0.24468994 1.7277908 0.73413086 2.4499893 1.2235413c0.36109924 0.15536499 0.7861862 0.31072998 1.1929932 0.31072998c0.23311615 0 0.4662323 -0.054382324 0.6764908 -0.18643188l0.57592773 -0.24472046l1.5860901 2.202362l-0.57592773 0.36514282c-0.57592773 0.24468994 -0.8638916 0.85839844 -0.7221985 1.3478394c0.14627075 0.8545227 0.14627075 1.5886536 0 2.447052c-0.14169312 0.60983276 0.14627075 1.0992432 0.7221985 1.3439636l0.57592773 0.36901855l-1.5860901 2.202362l-0.57592773 -0.24472046c-0.25597382 -0.10876465 -0.5439377 -0.17089844 -0.83647156 -0.17089844c-0.35652924 0 -0.7176285 0.08932495 -1.0330124 0.29519653c-0.7221985 0.60983276 -1.5860901 0.9788513 -2.4499893 1.2235413c-0.71762085 0.24472046 -1.1518555 0.8545532 -1.1518555 1.2235413l0 0.4894104l-3.1676102 0l0 -0.4894104c0 -0.6137085 -0.43423462 -0.9788208 -1.1518555 -1.2235413c-0.86389923 -0.24468994 -1.7277908 -0.73413086 -2.4499893 -1.2235413c-0.36109924 -0.15536499 -0.7861862 -0.31072998 -1.1929932 -0.31072998c-0.23311615 0 -0.4662323 0.050476074 -0.6764908 0.18643188l-0.57592773 0.24472046l-1.5860901 -2.202362l0.57592773 -0.36901855c0.57592773 -0.24472046 0.8638916 -0.8545227 0.7221985 -1.3439636c-0.14627075 -0.85839844 -0.14627075 -1.5925293 0 -2.447052c0.14169312 -0.613739 -0.14627075 -1.1031494 -0.7221985 -1.3478394l-0.57592773 -0.36514282l1.5860901 -2.202362l0.57592773 0.24472046c0.26511383 0.17089844 0.5667877 0.2602234 0.86389923 0.2602234c0.3473816 0 0.6993408 -0.120391846 1.0055847 -0.38452148c0.7221985 -0.60983276 1.5860901 -0.9788513 2.4499893 -1.2235413c0.71762085 -0.12042236 1.1518555 -0.73413086 1.1518555 -1.2235413l0 -0.4894104zm-4.6074295 -2.936493c-1.0101624 0 -1.7277908 0.60983276 -1.7277908 1.3439331l0 0.9788513c-0.43423462 0.124298096 -1.0101624 0.49328613 -1.4398193 0.7380066l-0.86389923 -0.48944092c-0.22853851 -0.07766724 -0.48451233 -0.120391846 -0.7450485 -0.120391846c-0.5576477 0 -1.1198654 0.19033813 -1.4169693 0.60983276l-3.1676102 4.7698364c-0.4296646 0.613739 -0.28796387 1.4682617 0.43423462 1.8372803l1.0055847 0.4894104l0 1.4682312l-1.0055847 0.4894104c-0.57592773 0.24472046 -1.0101624 1.2235413 -0.43423462 1.833374l3.1676102 4.7737427c0.27425385 0.38842773 0.7770462 0.62924194 1.2935562 0.62924194c0.3016739 0 0.6033554 -0.08154297 0.8684616 -0.2602234l0.86389923 -0.36901855c0.57592773 0.24472046 1.1518555 0.6137085 1.4398193 0.73413086l0 0.85842896c0 0.8545227 0.7176285 1.4682312 1.7277908 1.4682312l6.4814835 0c0.8638916 0 1.5815201 -0.6137085 1.5815201 -1.4682312l0 -0.85842896c0.57592773 -0.12042236 1.0101624 -0.4894104 1.439827 -0.73413086l0.8638916 0.36901855c0.2696762 0.13595581 0.6033554 0.20587158 0.92331696 0.20587158c0.53936005 0 1.05587 -0.19033813 1.2387009 -0.57489014l3.309311 -4.7737427c0.28796387 -0.60983276 0.14626312 -1.3439331 -0.57593536 -1.833374l-0.8638916 -0.4894104l0 -1.4682312l0.8638916 -0.4894104c0.7221985 -0.36901855 1.0101624 -1.2235413 0.57593536 -1.8372803l-3.309311 -4.7698364c-0.19654846 -0.41949463 -0.7907562 -0.6642151 -1.3758316 -0.6642151c-0.27882385 0 -0.55307007 0.054382324 -0.7861862 0.17477417l-0.8638916 0.48944092c-0.57593536 -0.24472046 -1.1518631 -0.6137085 -1.439827 -0.7380066l0 -0.9788513c0 -0.73410034 -0.7176285 -1.3439331 -1.5815201 -1.3439331z" fill-rule="evenodd"/><path fill="#2fbdb4" fill-opacity="0.7368" d="m106.47079 310.4654c0.8638916 0 1.5815201 0.6137085 1.5815201 1.3478088c0 0.73413086 -0.7176285 1.3439636 -1.5815201 1.3439636c-0.8684616 0 -1.5860901 -0.60983276 -1.5860901 -1.3439636c0 -0.73410034 0.7176285 -1.3478088 1.5860901 -1.3478088zm0 -2.567505c-2.7379456 0 -4.899971 1.833374 -4.899971 4.035736c0 2.3266602 2.1620255 4.16391 4.899971 4.16391c2.7333755 0 4.895401 -1.8372498 4.895401 -4.16391c0 -2.202362 -2.1620255 -4.035736 -4.895401 -4.035736z" fill-rule="evenodd"/><path fill="#000000" fill-opacity="0.0" d="m133.83301 233.28514c7.9231415 6.163971 35.742172 39.847916 47.538864 36.98381c11.796692 -2.8641052 17.284271 -42.867706 23.241241 -54.168427c5.95697 -11.300735 10.41716 -11.3632965 12.500595 -13.635956" fill-rule="evenodd"/><path stroke="#6f3ea1" stroke-width="12.0" stroke-linejoin="round" stroke-linecap="butt" d="m133.83301 233.28514c7.9231415 6.163971 35.742172 39.847916 47.538864 36.98381c11.796692 -2.8641052 17.284271 -42.867706 23.241241 -54.168427c5.95697 -11.300735 10.41716 -11.3632965 12.500595 -13.635956" fill-rule="evenodd"/><path fill="#a92d77" d="m282.61084 188.76102l0 4.4282074l-3.8934631 0l0 -4.4282074zm-26.616882 4.4282074c0.46444702 0 0.9338379 0.12446594 1.3982849 0.5058594c0.9338379 0.63031006 0.9338379 1.7704773 0.15811157 2.4007874c-0.39031982 0.3171692 -0.9338379 0.4777527 -1.4822693 0.4777527c-0.54351807 0 -1.0870209 -0.1605835 -1.477356 -0.4777527c-0.78067017 -0.63031006 -0.78067017 -1.7704773 0 -2.4007874c0.46939087 -0.38139343 1.0919495 -0.5058594 1.4032288 -0.5058594zm49.187103 0c1.2451172 0 2.0257874 0.75878906 2.0257874 1.7704926c0 0.8832245 -0.9338379 1.7704773 -2.0257874 1.7704773c-0.9338379 0 -2.0208435 -0.8872528 -2.0208435 -1.7704773c0 -1.0117035 0.9338379 -1.7704926 2.0208435 -1.7704926zm-24.437897 3.2880402c12.298004 0 22.417053 8.222107 22.417053 18.339142c0 10.117035 -10.119049 18.339142 -22.417053 18.339142c-12.298035 0 -22.417084 -8.222107 -22.417084 -18.339142c0 -10.117035 10.119049 -18.339142 22.417084 -18.339142zm-7.940094 -11.132751c-1.2451172 0 -2.020874 0.7587738 -2.020874 1.6460266c0 1.0117035 1.0870361 1.7704773 2.020874 1.7704773l2.178955 0l0 5.0585175c-4.199829 0.75878906 -8.093292 2.4048004 -11.206085 4.5526733l-1.714508 -1.3890839c1.2451172 -1.8989563 0.78067017 -4.046814 -1.0870056 -5.6928406c-1.17099 -0.94747925 -2.7273865 -1.4212036 -4.323303 -1.4212036c-1.5910034 0 -3.2264557 0.47372437 -4.5506287 1.4212036c-2.3370667 1.898941 -2.3370667 5.0585175 0 7.0819244c1.2451172 1.0157166 2.8015137 1.5215759 4.35791 1.5215759c0.9338379 0 1.714508 -0.2529297 2.648346 -0.5058594l1.8676758 1.3890839c-3.8934631 3.7938843 -6.536865 8.727951 -6.536865 14.039398c0 11.891541 11.981781 21.502731 26.45877 21.502731c14.635071 0 26.463684 -9.611191 26.463684 -21.502731c0 -5.311447 -2.3321228 -10.245514 -6.3836975 -14.039398l1.714508 -1.3890839c0.6225586 0.2529297 1.5563965 0.5058594 2.4902344 0.5058594c3.4240723 0 6.072418 -2.2803497 6.072418 -5.062546c0 -2.7821808 -2.648346 -4.9300385 -6.072418 -4.9300385c-3.2659607 0 -5.9143066 2.1478577 -5.9143066 4.9300385c0 0.75878906 0.15316772 1.3930969 0.46444702 2.151886l-1.7095642 1.3890839c-3.112793 -2.147873 -7.006256 -3.7938843 -11.052887 -4.5526733l0 -5.0585175l2.178955 0c1.0919495 0 1.8676758 -0.7587738 1.8676758 -1.7704773c0 -0.8872528 -0.9338379 -1.6460266 -1.8676758 -1.6460266z" fill-rule="evenodd"/><path fill="#a92d77" d="m278.5642 203.30627l0 11.510132c0 1.0117035 0.9338379 1.7704773 2.0208435 1.7704773l14.299103 0c-0.9980774 5.6286163 -7.035919 9.868134 -14.140991 9.868134c-7.940094 0 -14.47699 -5.31546 -14.47699 -11.638611c0 -5.8172913 5.2917786 -10.751358 12.298035 -11.510132zm2.178955 -3.2880402c-10.119049 0 -18.52362 6.5760803 -18.52362 14.798172c0 8.222107 8.251373 14.926651 18.52362 14.926651c10.119049 0 18.52359 -6.704544 18.52359 -14.926651c0 -0.8832245 -1.0919495 -1.6420135 -2.178955 -1.6420135l-14.476959 0l0 -11.638611c0 -0.8832245 -0.9338379 -1.5175476 -1.8676758 -1.5175476z" fill-rule="evenodd"/><path fill="#6f3ea1" d="m189.9013 297.00644c0.8638916 0 1.5815125 0.60983276 1.5815125 1.3439636l0 27.290741c0 0.73413086 -0.71762085 1.3439636 -1.5815125 1.3439636l-31.97322 0c-1.0055847 0 -1.5815125 -0.60983276 -1.5815125 -1.3439636l0 -27.290741c0 -0.73413086 0.57592773 -1.3439636 1.5815125 -1.3439636zm-29.089005 -8.444366c-0.8638916 0 -1.5860901 0.60983276 -1.5860901 1.3439636l0 4.16391l-1.7277832 0c-2.5916748 0 -4.7536926 1.833374 -4.7536926 4.160034l0 1.3439636l-4.895401 0c-0.8638916 0 -1.5815277 0.6137085 -1.5815277 1.3478394c0 0.73410034 0.7176361 1.3439331 1.5815277 1.3439331l4.895401 0l0 2.816101l-4.895401 0c-0.8638916 0 -1.5815277 0.6137085 -1.5815277 1.3478394c0 0.8545227 0.7176361 1.4682312 1.5815277 1.4682312l4.895401 0l0 2.691803l-4.895401 0c-0.8638916 0 -1.5815277 0.60980225 -1.5815277 1.3439331c0 0.85842896 0.7176361 1.4682617 1.5815277 1.4682617l4.895401 0l0 2.6956482l-4.895401 0c-0.8638916 0 -1.5815277 0.60983276 -1.5815277 1.3439636c0 0.85842896 0.7176361 1.4682617 1.5815277 1.4682617l4.895401 0l0 2.6917725l-4.895401 0c-0.8638916 0 -1.5815277 0.6137085 -1.5815277 1.3478394c0 0.8545227 0.7176361 1.4682312 1.5815277 1.4682312l4.895401 0l0 1.3439636c0 2.3266602 2.1620178 4.16391 4.7536926 4.16391l1.7277832 0l0 4.035736c0 0.85842896 0.7221985 1.4682617 1.5860901 1.4682617c0.86390686 0 1.5815277 -0.60983276 1.5815277 -1.4682617l0 -4.404724l3.3138733 0l0 4.160034c0 0.73410034 0.7176361 1.3478394 1.5815277 1.3478394c0.8638916 0 1.5860901 -0.613739 1.5860901 -1.3478394l0 -4.160034l3.3092957 0l0 4.160034c0 0.73410034 0.7221985 1.3478394 1.5861053 1.3478394c0.8638916 0 1.5860901 -0.613739 1.5860901 -1.3478394l0 -4.160034l3.3092957 0l0 4.160034c0 0.73410034 0.7221985 1.3478394 1.5860901 1.3478394c0.8638916 0 1.5815277 -0.613739 1.5815277 -1.3478394l0 -4.160034l3.3138733 0l0 4.160034c0 0.73410034 0.71762085 1.3478394 1.5815277 1.3478394c0.8638916 0 1.5860901 -0.613739 1.5860901 -1.3478394l0 -4.160034l1.5860901 0c2.733368 0 4.8953857 -1.8372498 4.8953857 -4.160034l0 -1.3478394l4.895401 0c0.8638916 0 1.5815277 -0.60983276 1.5815277 -1.3439636c0 -0.73413086 -0.7176361 -1.3478394 -1.5815277 -1.3478394l-4.895401 0l0 -2.8121948l4.895401 0c0.8638916 0 1.5815277 -0.6137085 1.5815277 -1.3478394c0 -0.8545227 -0.7176361 -1.4682312 -1.5815277 -1.4682312l-4.895401 0l0 -2.691803l4.895401 0c0.8638916 0 1.5815277 -0.6137085 1.5815277 -1.3478088c0 -0.8545532 -0.7176361 -1.4682617 -1.5815277 -1.4682617l-4.895401 0l0 -2.6917725l4.895401 0l0 0.36898804c0.8638916 0 1.5815277 -0.6137085 1.5815277 -1.4682312c0 -0.73413086 -0.7176361 -1.3478394 -1.5815277 -1.3478394l-4.895401 0l0 -2.816101l4.895401 0c0.8638916 0 1.5815277 -0.60983276 1.5815277 -1.3439331c0 -0.73413086 -0.7176361 -1.3478394 -1.5815277 -1.3478394l-4.895401 0l0 -1.3439636c0 -2.3266602 -2.1620178 -4.160034 -4.8953857 -4.160034l-1.5860901 0l0 -4.16391c0 -0.73413086 -0.7221985 -1.3439636 -1.5860901 -1.3439636c-0.86390686 0 -1.5815277 0.60983276 -1.5815277 1.3439636l0 4.16391l-3.3138733 0l0 -4.16391c0 -0.73413086 -0.7176361 -1.3439636 -1.5815277 -1.3439636c-0.8638916 0 -1.5860901 0.60983276 -1.5860901 1.3439636l0 4.16391l-3.3092957 0l0 -4.16391c0 -0.73413086 -0.7221985 -1.3439636 -1.5860901 -1.3439636c-0.86390686 0 -1.5861053 0.60983276 -1.5861053 1.3439636l0 4.16391l-3.3092957 0l0 -4.16391c0 -0.73413086 -0.7221985 -1.3439636 -1.5860901 -1.3439636c-0.8638916 0 -1.5815277 0.60983276 -1.5815277 1.3439636l0 4.16391l-3.3138733 0l0 -4.16391c0 -0.73413086 -0.71762085 -1.3439636 -1.5815277 -1.3439636z" fill-rule="evenodd"/><path fill="#6f3ea1" d="m161.10027 299.57394c-0.8638916 0 -1.5860901 0.6137085 -1.5860901 1.3478394c0 0.8545227 0.7221985 1.4682312 1.5860901 1.4682312c0.86390686 0 1.5815277 -0.6137085 1.5815277 -1.4682312c0 -0.73413086 -0.71762085 -1.3478394 -1.5815277 -1.3478394z" fill-rule="evenodd"/><path fill="#6f3ea1" d="m161.10027 321.4811c-0.8638916 0 -1.5860901 0.60983276 -1.5860901 1.3439636c0 0.73413086 0.7221985 1.3478394 1.5860901 1.3478394c0.86390686 0 1.5815277 -0.6137085 1.5815277 -1.3478394c0 -0.73413086 -0.71762085 -1.3439636 -1.5815277 -1.3439636z" fill-rule="evenodd"/><path fill="#6f3ea1" d="m186.87538 321.4811c-0.8638916 0 -1.5860901 0.60983276 -1.5860901 1.3439636c0 0.73413086 0.7221985 1.3478394 1.5860901 1.3478394c0.86390686 0 1.5860901 -0.6137085 1.5860901 -1.3478394c0 -0.73413086 -0.7221832 -1.3439636 -1.5860901 -1.3439636z" fill-rule="evenodd"/><path fill="#6f3ea1" d="m186.87538 299.57394c-0.8638916 0 -1.5860901 0.6137085 -1.5860901 1.3478394c0 0.73410034 0.7221985 1.4682312 1.5860901 1.4682312c0.86390686 0 1.5860901 -0.73413086 1.5860901 -1.4682312c0 -0.73413086 -0.7221832 -1.3478394 -1.5860901 -1.3478394z" fill-rule="evenodd"/><path fill="#6f3ea1" d="m175.4985 303.85828l0 0.4894104c0 0.6137085 0.43423462 1.1031189 1.1518555 1.2235413c0.8638916 0.24468994 1.7277832 0.73413086 2.4499817 1.2235413c0.36109924 0.15536499 0.78619385 0.31072998 1.1929932 0.31072998c0.23312378 0 0.4662323 -0.054382324 0.6764984 -0.18643188l0.57592773 -0.24472046l1.5860901 2.202362l-0.57592773 0.36514282c-0.57592773 0.24468994 -0.8638916 0.85839844 -0.7221985 1.3478394c0.14627075 0.8545227 0.14627075 1.5886536 0 2.447052c-0.14169312 0.60983276 0.14627075 1.0992432 0.7221985 1.3439636l0.57592773 0.36901855l-1.5860901 2.202362l-0.57592773 -0.24472046c-0.2559662 -0.10876465 -0.5439453 -0.17089844 -0.83647156 -0.17089844c-0.35653687 0 -0.71762085 0.08932495 -1.03302 0.29519653c-0.7221985 0.60983276 -1.5860901 0.9788513 -2.4499817 1.2235413c-0.71762085 0.24472046 -1.1518555 0.8545532 -1.1518555 1.2235413l0 0.4894104l-3.1676178 0l0 -0.4894104c0 -0.6137085 -0.43423462 -0.9788208 -1.1518555 -1.2235413c-0.8638916 -0.24468994 -1.7277832 -0.73413086 -2.4499817 -1.2235413c-0.36109924 -0.15536499 -0.78619385 -0.31072998 -1.1929932 -0.31072998c-0.23312378 0 -0.4662323 0.050476074 -0.6764984 0.18643188l-0.57592773 0.24472046l-1.5860901 -2.202362l0.57592773 -0.36901855c0.57592773 -0.24472046 0.86390686 -0.8545227 0.7221985 -1.3439636c-0.14627075 -0.85839844 -0.14627075 -1.5925293 0 -2.447052c0.14170837 -0.613739 -0.14627075 -1.1031494 -0.7221985 -1.3478394l-0.57592773 -0.36514282l1.5860901 -2.202362l0.57592773 0.24472046c0.26512146 0.17089844 0.5667877 0.2602234 0.86390686 0.2602234c0.3473816 0 0.6993408 -0.120391846 1.0055847 -0.38452148c0.7221985 -0.60983276 1.5860901 -0.9788513 2.4499817 -1.2235413c0.71762085 -0.12042236 1.1518555 -0.73413086 1.1518555 -1.2235413l0 -0.4894104zm-4.607437 -2.936493c-1.0101624 0 -1.7277832 0.60983276 -1.7277832 1.3439331l0 0.9788513c-0.43423462 0.124298096 -1.0101624 0.49328613 -1.4398193 0.7380066l-0.86390686 -0.48944092c-0.22853088 -0.07766724 -0.48451233 -0.120391846 -0.7450409 -0.120391846c-0.5576477 0 -1.119873 0.19033813 -1.4169769 0.60983276l-3.1676025 4.7698364c-0.42967224 0.613739 -0.28796387 1.4682617 0.43423462 1.8372803l1.0055847 0.4894104l0 1.4682312l-1.0055847 0.4894104c-0.57592773 0.24472046 -1.0101624 1.2235413 -0.43423462 1.833374l3.1676025 4.7737427c0.27426147 0.38842773 0.77705383 0.62924194 1.2935638 0.62924194c0.30166626 0 0.6033478 -0.08154297 0.868454 -0.2602234l0.86390686 -0.36901855c0.57592773 0.24472046 1.1518555 0.6137085 1.4398193 0.73413086l0 0.85842896c0 0.8545227 0.71762085 1.4682312 1.7277832 1.4682312l6.481491 0c0.8638916 0 1.5815125 -0.6137085 1.5815125 -1.4682312l0 -0.85842896c0.57592773 -0.12042236 1.0101624 -0.4894104 1.4398346 -0.73413086l0.8638916 0.36901855c0.26968384 0.13595581 0.6033478 0.20587158 0.9233093 0.20587158c0.5393677 0 1.0558777 -0.19033813 1.2387085 -0.57489014l3.309311 -4.7737427c0.28796387 -0.60983276 0.1462555 -1.3439331 -0.575943 -1.833374l-0.8638916 -0.4894104l0 -1.4682312l0.8638916 -0.4894104c0.7221985 -0.36901855 1.0101624 -1.2235413 0.575943 -1.8372803l-3.309311 -4.7698364c-0.19654846 -0.41949463 -0.7907562 -0.6642151 -1.3758392 -0.6642151c-0.27882385 0 -0.55307007 0.054382324 -0.7861786 0.17477417l-0.8638916 0.48944092c-0.575943 -0.24472046 -1.1518707 -0.6137085 -1.4398346 -0.7380066l0 -0.9788513c0 -0.73410034 -0.71762085 -1.3439331 -1.5815125 -1.3439331z" fill-rule="evenodd"/><path fill="#6f3ea1" d="m173.91698 310.4654c0.8638916 0 1.5815277 0.6137085 1.5815277 1.3478088c0 0.73413086 -0.7176361 1.3439636 -1.5815277 1.3439636c-0.868454 0 -1.5860901 -0.60983276 -1.5860901 -1.3439636c0 -0.73410034 0.7176361 -1.3478088 1.5860901 -1.3478088zm0 -2.567505c-2.7379456 0 -4.8999634 1.833374 -4.8999634 4.035736c0 2.3266602 2.1620178 4.16391 4.8999634 4.16391c2.7333832 0 4.895401 -1.8372498 4.895401 -4.16391c0 -2.202362 -2.1620178 -4.035736 -4.895401 -4.035736z" fill-rule="evenodd"/><path fill="#a92d77" d="m257.3475 297.00644c0.8638916 0 1.5815125 0.60983276 1.5815125 1.3439636l0 27.290741c0 0.73413086 -0.71762085 1.3439636 -1.5815125 1.3439636l-31.97322 0c-1.0055847 0 -1.5815125 -0.60983276 -1.5815125 -1.3439636l0 -27.290741c0 -0.73413086 0.57592773 -1.3439636 1.5815125 -1.3439636zm-29.089005 -8.444366c-0.8638916 0 -1.5860901 0.60983276 -1.5860901 1.3439636l0 4.16391l-1.7277832 0c-2.5916748 0 -4.753708 1.833374 -4.753708 4.160034l0 1.3439636l-4.8953857 0c-0.86390686 0 -1.5815277 0.6137085 -1.5815277 1.3478394c0 0.73410034 0.71762085 1.3439331 1.5815277 1.3439331l4.8953857 0l0 2.816101l-4.8953857 0c-0.86390686 0 -1.5815277 0.6137085 -1.5815277 1.3478394c0 0.8545227 0.71762085 1.4682312 1.5815277 1.4682312l4.8953857 0l0 2.691803l-4.8953857 0c-0.86390686 0 -1.5815277 0.60980225 -1.5815277 1.3439331c0 0.85842896 0.71762085 1.4682617 1.5815277 1.4682617l4.8953857 0l0 2.6956482l-4.8953857 0c-0.86390686 0 -1.5815277 0.60983276 -1.5815277 1.3439636c0 0.85842896 0.71762085 1.4682617 1.5815277 1.4682617l4.8953857 0l0 2.6917725l-4.8953857 0c-0.86390686 0 -1.5815277 0.6137085 -1.5815277 1.3478394c0 0.8545227 0.71762085 1.4682312 1.5815277 1.4682312l4.8953857 0l0 1.3439636c0 2.3266602 2.162033 4.16391 4.753708 4.16391l1.7277832 0l0 4.035736c0 0.85842896 0.7221985 1.4682617 1.5860901 1.4682617c0.8638916 0 1.5815277 -0.60983276 1.5815277 -1.4682617l0 -4.404724l3.3138733 0l0 4.160034c0 0.73410034 0.71762085 1.3478394 1.5815125 1.3478394c0.86390686 0 1.5861053 -0.613739 1.5861053 -1.3478394l0 -4.160034l3.3092957 0l0 4.160034c0 0.73410034 0.7221985 1.3478394 1.5860901 1.3478394c0.8638916 0 1.5860901 -0.613739 1.5860901 -1.3478394l0 -4.160034l3.309311 0l0 4.160034c0 0.73410034 0.7221985 1.3478394 1.5860901 1.3478394c0.8638916 0 1.5815277 -0.613739 1.5815277 -1.3478394l0 -4.160034l3.3138733 0l0 4.160034c0 0.73410034 0.71762085 1.3478394 1.5815125 1.3478394c0.8638916 0 1.5860901 -0.613739 1.5860901 -1.3478394l0 -4.160034l1.5861053 0c2.733368 0 4.8953857 -1.8372498 4.8953857 -4.160034l0 -1.3478394l4.8953857 0c0.8639221 0 1.581543 -0.60983276 1.581543 -1.3439636c0 -0.73413086 -0.71762085 -1.3478394 -1.581543 -1.3478394l-4.8953857 0l0 -2.8121948l4.8953857 0c0.8639221 0 1.581543 -0.6137085 1.581543 -1.3478394c0 -0.8545227 -0.71762085 -1.4682312 -1.581543 -1.4682312l-4.8953857 0l0 -2.691803l4.8953857 0c0.8639221 0 1.581543 -0.6137085 1.581543 -1.3478088c0 -0.8545532 -0.71762085 -1.4682617 -1.581543 -1.4682617l-4.8953857 0l0 -2.6917725l4.8953857 0l0 0.36898804c0.8639221 0 1.581543 -0.6137085 1.581543 -1.4682312c0 -0.73413086 -0.71762085 -1.3478394 -1.581543 -1.3478394l-4.8953857 0l0 -2.816101l4.8953857 0c0.8639221 0 1.581543 -0.60983276 1.581543 -1.3439331c0 -0.73413086 -0.71762085 -1.3478394 -1.581543 -1.3478394l-4.8953857 0l0 -1.3439636c0 -2.3266602 -2.1620178 -4.160034 -4.8953857 -4.160034l-1.5861053 0l0 -4.16391c0 -0.73413086 -0.7221985 -1.3439636 -1.5860901 -1.3439636c-0.8638916 0 -1.5815125 0.60983276 -1.5815125 1.3439636l0 4.16391l-3.3138733 0l0 -4.16391c0 -0.73413086 -0.7176361 -1.3439636 -1.5815277 -1.3439636c-0.8638916 0 -1.5860901 0.60983276 -1.5860901 1.3439636l0 4.16391l-3.309311 0l0 -4.16391c0 -0.73413086 -0.7221985 -1.3439636 -1.5860901 -1.3439636c-0.8638916 0 -1.5860901 0.60983276 -1.5860901 1.3439636l0 4.16391l-3.3092957 0l0 -4.16391c0 -0.73413086 -0.7221985 -1.3439636 -1.5861053 -1.3439636c-0.8638916 0 -1.5815125 0.60983276 -1.5815125 1.3439636l0 4.16391l-3.3138733 0l0 -4.16391c0 -0.73413086 -0.7176361 -1.3439636 -1.5815277 -1.3439636z" fill-rule="evenodd"/><path fill="#a92d77" d="m228.54646 299.57394c-0.8638916 0 -1.5860901 0.6137085 -1.5860901 1.3478394c0 0.8545227 0.7221985 1.4682312 1.5860901 1.4682312c0.8638916 0 1.5815277 -0.6137085 1.5815277 -1.4682312c0 -0.73413086 -0.7176361 -1.3478394 -1.5815277 -1.3478394z" fill-rule="evenodd"/><path fill="#a92d77" d="m228.54646 321.4811c-0.8638916 0 -1.5860901 0.60983276 -1.5860901 1.3439636c0 0.73413086 0.7221985 1.3478394 1.5860901 1.3478394c0.8638916 0 1.5815277 -0.6137085 1.5815277 -1.3478394c0 -0.73413086 -0.7176361 -1.3439636 -1.5815277 -1.3439636z" fill-rule="evenodd"/><path fill="#a92d77" d="m254.32158 321.4811c-0.8638916 0 -1.5860901 0.60983276 -1.5860901 1.3439636c0 0.73413086 0.7221985 1.3478394 1.5860901 1.3478394c0.8638916 0 1.5860901 -0.6137085 1.5860901 -1.3478394c0 -0.73413086 -0.7221985 -1.3439636 -1.5860901 -1.3439636z" fill-rule="evenodd"/><path fill="#a92d77" d="m254.32158 299.57394c-0.8638916 0 -1.5860901 0.6137085 -1.5860901 1.3478394c0 0.73410034 0.7221985 1.4682312 1.5860901 1.4682312c0.8638916 0 1.5860901 -0.73413086 1.5860901 -1.4682312c0 -0.73413086 -0.7221985 -1.3478394 -1.5860901 -1.3478394z" fill-rule="evenodd"/><path fill="#a92d77" d="m242.9447 303.85828l0 0.4894104c0 0.6137085 0.43421936 1.1031189 1.1518555 1.2235413c0.8638916 0.24468994 1.7277832 0.73413086 2.4499817 1.2235413c0.36109924 0.15536499 0.78619385 0.31072998 1.1929932 0.31072998c0.23310852 0 0.4662323 -0.054382324 0.67648315 -0.18643188l0.575943 -0.24472046l1.5860901 2.202362l-0.575943 0.36514282c-0.57592773 0.24468994 -0.8638916 0.85839844 -0.7221832 1.3478394c0.1462555 0.8545227 0.1462555 1.5886536 0 2.447052c-0.14170837 0.60983276 0.1462555 1.0992432 0.7221832 1.3439636l0.575943 0.36901855l-1.5860901 2.202362l-0.575943 -0.24472046c-0.2559662 -0.10876465 -0.54393005 -0.17089844 -0.8364563 -0.17089844c-0.35653687 0 -0.7176361 0.08932495 -1.03302 0.29519653c-0.7221985 0.60983276 -1.5860901 0.9788513 -2.4499817 1.2235413c-0.7176361 0.24472046 -1.1518555 0.8545532 -1.1518555 1.2235413l0 0.4894104l-3.1676178 0l0 -0.4894104c0 -0.6137085 -0.43423462 -0.9788208 -1.1518555 -1.2235413c-0.8638916 -0.24468994 -1.7277832 -0.73413086 -2.4499817 -1.2235413c-0.36109924 -0.15536499 -0.78619385 -0.31072998 -1.1929932 -0.31072998c-0.23312378 0 -0.4662323 0.050476074 -0.6764984 0.18643188l-0.57592773 0.24472046l-1.5860901 -2.202362l0.57592773 -0.36901855c0.57592773 -0.24472046 0.8638916 -0.8545227 0.7221985 -1.3439636c-0.14627075 -0.85839844 -0.14627075 -1.5925293 0 -2.447052c0.14169312 -0.613739 -0.14627075 -1.1031494 -0.7221985 -1.3478394l-0.57592773 -0.36514282l1.5860901 -2.202362l0.57592773 0.24472046c0.2651062 0.17089844 0.5667877 0.2602234 0.8638916 0.2602234c0.34739685 0 0.6993408 -0.120391846 1.0056 -0.38452148c0.7221985 -0.60983276 1.5860901 -0.9788513 2.4499817 -1.2235413c0.71762085 -0.12042236 1.1518555 -0.73413086 1.1518555 -1.2235413l0 -0.4894104zm-4.607437 -2.936493c-1.0101624 0 -1.7277832 0.60983276 -1.7277832 1.3439331l0 0.9788513c-0.43423462 0.124298096 -1.0101624 0.49328613 -1.4398346 0.7380066l-0.8638916 -0.48944092c-0.22854614 -0.07766724 -0.48451233 -0.120391846 -0.7450409 -0.120391846c-0.5576477 0 -1.119873 0.19033813 -1.4169769 0.60983276l-3.1676025 4.7698364c-0.42967224 0.613739 -0.28796387 1.4682617 0.43421936 1.8372803l1.0056 0.4894104l0 1.4682312l-1.0056 0.4894104c-0.57592773 0.24472046 -1.0101624 1.2235413 -0.43421936 1.833374l3.1676025 4.7737427c0.27424622 0.38842773 0.77705383 0.62924194 1.2935486 0.62924194c0.30168152 0 0.60336304 -0.08154297 0.86846924 -0.2602234l0.8638916 -0.36901855c0.57592773 0.24472046 1.1518707 0.6137085 1.4398346 0.73413086l0 0.85842896c0 0.8545227 0.71762085 1.4682312 1.7277832 1.4682312l6.481491 0c0.8638916 0 1.5815125 -0.6137085 1.5815125 -1.4682312l0 -0.85842896c0.57592773 -0.12042236 1.0101624 -0.4894104 1.4398193 -0.73413086l0.8638916 0.36901855c0.26968384 0.13595581 0.60336304 0.20587158 0.9233246 0.20587158c0.5393524 0 1.0558624 -0.19033813 1.2387085 -0.57489014l3.3092957 -4.7737427c0.28796387 -0.60983276 0.14627075 -1.3439331 -0.57592773 -1.833374l-0.8638916 -0.4894104l0 -1.4682312l0.8638916 -0.4894104c0.7221985 -0.36901855 1.0101624 -1.2235413 0.57592773 -1.8372803l-3.3092957 -4.7698364c-0.19654846 -0.41949463 -0.7907715 -0.6642151 -1.3758392 -0.6642151c-0.27882385 0 -0.55307007 0.054382324 -0.78619385 0.17477417l-0.8638916 0.48944092c-0.57592773 -0.24472046 -1.1518555 -0.6137085 -1.4398193 -0.7380066l0 -0.9788513c0 -0.73410034 -0.71762085 -1.3439331 -1.5815125 -1.3439331z" fill-rule="evenodd"/><path fill="#a92d77" d="m241.36317 310.4654c0.8638916 0 1.5815277 0.6137085 1.5815277 1.3478088c0 0.73413086 -0.7176361 1.3439636 -1.5815277 1.3439636c-0.86846924 0 -1.5860901 -0.60983276 -1.5860901 -1.3439636c0 -0.73410034 0.71762085 -1.3478088 1.5860901 -1.3478088zm0 -2.567505c-2.7379456 0 -4.8999634 1.833374 -4.8999634 4.035736c0 2.3266602 2.1620178 4.16391 4.8999634 4.16391c2.7333832 0 4.895401 -1.8372498 4.895401 -4.16391c0 -2.202362 -2.1620178 -4.035736 -4.895401 -4.035736z" fill-rule="evenodd"/><path fill="#000000" fill-opacity="0.0" d="m213.70735 205.71281c0.6342926 -0.55511475 1.7440948 -2.6167908 3.8057709 -3.3307037c2.061676 -0.71391296 5.3928223 -1.6662292 8.564301 -0.9527588c3.1714783 0.71347046 7.293091 1.9824982 10.464569 5.233597c3.1714783 3.2510986 -3.2510986 -7.7712097 8.564301 14.2729645c11.815399 22.04419 51.940063 98.32678 62.328094 117.99213" fill-rule="evenodd"/><path stroke="#a92d77" stroke-width="12.0" stroke-linejoin="round" stroke-linecap="butt" d="m213.70735 205.71281c0.6342926 -0.55511475 1.7440948 -2.6167908 3.8057709 -3.3307037c2.061676 -0.71391296 5.3928223 -1.6662292 8.564301 -0.9527588c3.1714783 0.71347046 7.293091 1.9824982 10.464569 5.233597c3.1714783 3.2510986 -3.2510986 -7.7712097 8.564301 14.2729645c11.815399 22.04419 51.940063 98.32678 62.328094 117.99213" fill-rule="evenodd"/></g></svg>