<svg version="1.1" viewBox="0.0 0.0 960.0 540.0" fill="none" stroke="none" stroke-linecap="square" stroke-miterlimit="10" xmlns:xlink="http://www.w3.org/1999/xlink" xmlns="http://www.w3.org/2000/svg"><clipPath id="g9627d3c135_1_111.0"><path d="m0 0l960.0 0l0 540.0l-960.0 0l0 -540.0z" clip-rule="nonzero"/></clipPath><g clip-path="url(#g9627d3c135_1_111.0)"><path fill="#ffffff" d="m0 0l960.0 0l0 540.0l-960.0 0z" fill-rule="evenodd"/><path fill="#000000" fill-opacity="0.0" d="m190.28609 462.53262c12.208221 -30.074371 51.214783 -135.26028 73.249344 -180.4462c22.034546 -45.185898 35.955383 -81.66185 58.958008 -90.66928c23.002625 -9.007431 65.88144 30.520554 79.05774 36.62468" fill-rule="evenodd"/><path stroke="#2fbdb4" stroke-width="12.0" stroke-linejoin="round" stroke-linecap="butt" d="m190.28609 462.53262c12.208221 -30.074371 51.214783 -135.26028 73.249344 -180.4462c22.034546 -45.185898 35.955383 -81.66185 58.958008 -90.66928c23.002625 -9.007431 65.88144 30.520554 79.05774 36.62468" fill-rule="evenodd"/><path fill="#000000" fill-opacity="0.0" d="m608.5827 153.89136c5.8066406 1.1911621 20.100159 -6.550293 34.839844 7.146988c14.739746 13.697281 24.268616 25.160538 53.59845 75.03674c29.329834 49.876205 101.983826 186.85039 122.380554 224.22047" fill-rule="evenodd"/><path stroke="#a92d84" stroke-width="12.0" stroke-linejoin="round" stroke-linecap="butt" d="m608.5827 153.89136c5.8066406 1.1911621 20.100159 -6.550293 34.839844 7.146988c14.739746 13.697281 24.268616 25.160538 53.59845 75.03674c29.329834 49.876205 101.983826 186.85039 122.380554 224.22047" fill-rule="evenodd"/><path fill="#2fbdb4" fill-opacity="0.7368" d="m325.54974 386.30817c1.2452087 0 2.279602 0.88150024 2.279602 1.942688l0 39.448853c0 1.0611877 -1.0343933 1.942688 -2.279602 1.942688l-46.086212 0c-1.4494629 0 -2.279602 -0.88150024 -2.279602 -1.942688l0 -39.448853c0 -1.0611877 0.83013916 -1.942688 2.279602 -1.942688zm-41.928894 -12.20636c-1.2452393 0 -2.2861938 0.88150024 -2.2861938 1.942688l0 6.0189514l-2.490448 0c-3.7356567 0 -6.8519897 2.6501465 -6.8519897 6.013336l0 1.942688l-7.056244 0c-1.2452087 0 -2.279602 0.8871155 -2.279602 1.9483032c0 1.0611877 1.0343933 1.942688 2.279602 1.942688l7.056244 0l0 4.070648l-7.056244 0c-1.2452087 0 -2.279602 0.8871155 -2.279602 1.9483032c0 1.2352295 1.0343933 2.122345 2.279602 2.122345l7.056244 0l0 3.8909912l-7.056244 0c-1.2452087 0 -2.279602 0.88150024 -2.279602 1.942688c0 1.2408447 1.0343933 2.122345 2.279602 2.122345l7.056244 0l0 3.8966064l-7.056244 0c-1.2452087 0 -2.279602 0.88153076 -2.279602 1.942688c0 1.2408447 1.0343933 2.1223755 2.279602 2.1223755l7.056244 0l0 3.8909607l-7.056244 0c-1.2452087 0 -2.279602 0.887146 -2.279602 1.9483032c0 1.2352295 1.0343933 2.1223755 2.279602 2.1223755l7.056244 0l0 1.942688c0 3.3631897 3.116333 6.0189514 6.8519897 6.0189514l2.490448 0l0 5.8336487c0 1.2408752 1.0409546 2.1223755 2.2861938 2.1223755c1.2452087 0 2.279602 -0.88150024 2.279602 -2.1223755l0 -6.3670654l4.7766113 0l0 6.0133667c0 1.0611572 1.0343933 1.9482727 2.279602 1.9482727c1.2452393 0 2.2861938 -0.8871155 2.2861938 -1.9482727l0 -6.0133667l4.77005 0l0 6.0133667c0 1.0611572 1.0409851 1.9482727 2.2861938 1.9482727c1.2452087 0 2.2861938 -0.8871155 2.2861938 -1.9482727l0 -6.0133667l4.7700195 0l0 6.0133667c0 1.0611572 1.0409851 1.9482727 2.2861938 1.9482727c1.2452393 0 2.279602 -0.8871155 2.279602 -1.9482727l0 -6.0133667l4.776642 0l0 6.0133667c0 1.0611572 1.0343933 1.9482727 2.279602 1.9482727c1.2452087 0 2.2861938 -0.8871155 2.2861938 -1.9482727l0 -6.0133667l2.2861938 0c3.9398804 0 7.056244 -2.6557312 7.056244 -6.013336l0 -1.9483032l7.0562134 0c1.2452087 0 2.279602 -0.88150024 2.279602 -1.942688c0 -1.0611572 -1.0343933 -1.9483032 -2.279602 -1.9483032l-7.0562134 0l0 -4.065033l7.0562134 0c1.2452087 0 2.279602 -0.8871155 2.279602 -1.9483032c0 -1.2352295 -1.0343933 -2.122345 -2.279602 -2.122345l-7.0562134 0l0 -3.8909912l7.0562134 0c1.2452087 0 2.279602 -0.8871155 2.279602 -1.9483032c0 -1.2352295 -1.0343933 -2.122345 -2.279602 -2.122345l-7.0562134 0l0 -3.8909912l7.0562134 0l0 0.53338623c1.2452087 0 2.279602 -0.8871155 2.279602 -2.122345c0 -1.0611877 -1.0343933 -1.9483032 -2.279602 -1.9483032l-7.0562134 0l0 -4.070648l7.0562134 0c1.2452087 0 2.279602 -0.88150024 2.279602 -1.942688c0 -1.0611877 -1.0343933 -1.9483032 -2.279602 -1.9483032l-7.0562134 0l0 -1.942688c0 -3.3631897 -3.1163635 -6.013336 -7.056244 -6.013336l-2.2861938 0l0 -6.0189514c0 -1.0611877 -1.0409851 -1.942688 -2.2861938 -1.942688c-1.2452087 0 -2.279602 0.88150024 -2.279602 1.942688l0 6.0189514l-4.776642 0l0 -6.0189514c0 -1.0611877 -1.0343628 -1.942688 -2.279602 -1.942688c-1.2452087 0 -2.2861938 0.88150024 -2.2861938 1.942688l0 6.0189514l-4.7700195 0l0 -6.0189514c0 -1.0611877 -1.0409851 -1.942688 -2.2861938 -1.942688c-1.2452087 0 -2.2861938 0.88150024 -2.2861938 1.942688l0 6.0189514l-4.77005 0l0 -6.0189514c0 -1.0611877 -1.0409546 -1.942688 -2.2861938 -1.942688c-1.2452087 0 -2.279602 0.88150024 -2.279602 1.942688l0 6.0189514l-4.7766113 0l0 -6.0189514c0 -1.0611877 -1.0343933 -1.942688 -2.279602 -1.942688z" fill-rule="evenodd"/><path fill="#2fbdb4" fill-opacity="0.7368" d="m284.03592 390.01947c-1.2452393 0 -2.2861938 0.8871155 -2.2861938 1.9483032c0 1.2352295 1.0409546 2.122345 2.2861938 2.122345c1.2452087 0 2.279602 -0.8871155 2.279602 -2.122345c0 -1.0611877 -1.0343933 -1.9483032 -2.279602 -1.9483032z" fill-rule="evenodd"/><path fill="#2fbdb4" fill-opacity="0.7368" d="m284.03592 421.68637c-1.2452393 0 -2.2861938 0.88150024 -2.2861938 1.942688c0 1.0611877 1.0409546 1.9483032 2.2861938 1.9483032c1.2452087 0 2.279602 -0.8871155 2.279602 -1.9483032c0 -1.0611877 -1.0343933 -1.942688 -2.279602 -1.942688z" fill-rule="evenodd"/><path fill="#2fbdb4" fill-opacity="0.7368" d="m321.1882 421.68637c-1.2452393 0 -2.2861938 0.88150024 -2.2861938 1.942688c0 1.0611877 1.0409546 1.9483032 2.2861938 1.9483032c1.2452087 0 2.2861633 -0.8871155 2.2861633 -1.9483032c0 -1.0611877 -1.0409546 -1.942688 -2.2861633 -1.942688z" fill-rule="evenodd"/><path fill="#2fbdb4" fill-opacity="0.7368" d="m321.1882 390.01947c-1.2452393 0 -2.2861938 0.8871155 -2.2861938 1.9483032c0 1.0611877 1.0409546 2.122345 2.2861938 2.122345c1.2452087 0 2.2861633 -1.0611572 2.2861633 -2.122345c0 -1.0611877 -1.0409546 -1.9483032 -2.2861633 -1.9483032z" fill-rule="evenodd"/><path fill="#2fbdb4" fill-opacity="0.7368" d="m304.78952 396.2125l0 0.707428c0 0.887146 0.6259155 1.594574 1.6603088 1.7686462c1.2452087 0.35372925 2.4904175 1.0611877 3.5314026 1.7686157c0.5204773 0.22460938 1.1332092 0.44918823 1.719574 0.44918823c0.33602905 0 0.6720276 -0.07861328 0.97509766 -0.26950073l0.83013916 -0.35372925l2.2861938 3.1835327l-0.83013916 0.527771c-0.83013916 0.35372925 -1.2452087 1.2408447 -1.0409851 1.9483032c0.21084595 1.2352295 0.21084595 2.2964172 0 3.537262c-0.20422363 0.88150024 0.21084595 1.5889587 1.0409851 1.942688l0.83013916 0.53338623l-2.2861938 3.1835327l-0.83013916 -0.35369873c-0.36895752 -0.15722656 -0.7840271 -0.24707031 -1.2056885 -0.24707031c-0.5138855 0 -1.0343933 0.12915039 -1.4889832 0.4267273c-1.0409851 0.88150024 -2.2861938 1.414917 -3.5314026 1.7686157c-1.0343933 0.35372925 -1.6603088 1.23526 -1.6603088 1.7686462l0 0.7074585l-4.565796 0l0 -0.7074585c0 -0.8871155 -0.625885 -1.414917 -1.6602783 -1.7686462c-1.2452087 -0.35369873 -2.490448 -1.0611572 -3.5314026 -1.7686157c-0.5205078 -0.22457886 -1.1332092 -0.44918823 -1.7196045 -0.44918823c-0.33599854 0 -0.6719971 0.07299805 -0.97506714 0.26953125l-0.8301697 0.35369873l-2.2861938 -3.1835327l0.8301697 -0.53338623c0.83013916 -0.35372925 1.2452087 -1.2352295 1.0409546 -1.942688c-0.21081543 -1.2408447 -0.21081543 -2.3020325 0 -3.537262c0.20425415 -0.8871155 -0.21081543 -1.594574 -1.0409546 -1.9483032l-0.8301697 -0.527771l2.2861938 -3.1835327l0.8301697 0.35372925c0.3821106 0.2470398 0.81695557 0.3761902 1.2452087 0.3761902c0.5007324 0 1.0080261 -0.17407227 1.4494629 -0.5558777c1.0409546 -0.88150024 2.2861938 -1.4148865 3.5314026 -1.7686157c1.0343933 -0.17407227 1.6602783 -1.0611877 1.6602783 -1.7686462l0 -0.707428zm-6.641144 -4.2447205c-1.4560547 0 -2.490448 0.88150024 -2.490448 1.942688l0 1.4148865c-0.625885 0.1796875 -1.4560242 0.71307373 -2.075348 1.066803l-1.2452087 -0.7074585c-0.32943726 -0.11227417 -0.6983948 -0.17404175 -1.0739441 -0.17404175c-0.803772 0 -1.6141663 0.27511597 -2.0424194 0.88150024l-4.565796 6.8948364c-0.6192932 0.887146 -0.41506958 2.1223755 0.6259155 2.6557617l1.4494629 0.7074585l0 2.122345l-1.4494629 0.7074585c-0.83013916 0.35372925 -1.4560547 1.7686462 -0.6259155 2.6501465l4.565796 6.9004517c0.3953247 0.5614624 1.1200562 0.9095764 1.8645325 0.9095764c0.43484497 0 0.86968994 -0.117889404 1.251831 -0.37615967l1.2452087 -0.53341675c0.83013916 0.35372925 1.6602783 0.8871155 2.075348 1.0611877l0 1.2408447c0 1.2352295 1.0343933 2.122345 2.490448 2.122345l9.342407 0c1.2452393 0 2.2796326 -0.8871155 2.2796326 -2.122345l0 -1.2408447c0.83013916 -0.17407227 1.4560242 -0.7074585 2.075348 -1.0611877l1.2452087 0.53341675c0.3887329 0.19650269 0.86968994 0.2975769 1.3308716 0.2975769c0.7774353 0 1.5219421 -0.27514648 1.7854614 -0.83099365l4.77005 -6.9004517c0.41506958 -0.88150024 0.21084595 -1.942688 -0.83013916 -2.6501465l-1.2452087 -0.7074585l0 -2.122345l1.2452087 -0.7074585c1.0409851 -0.53338623 1.4560547 -1.7686157 0.83013916 -2.6557617l-4.77005 -6.8948364c-0.28329468 -0.6063843 -1.139801 -0.9601135 -1.9831238 -0.9601135c-0.401886 0 -0.7971802 0.07861328 -1.1332092 0.25265503l-1.2452087 0.7074585c-0.83013916 -0.35372925 -1.6602783 -0.8871155 -2.075348 -1.066803l0 -1.4148865c0 -1.0611877 -1.0343933 -1.942688 -2.2796326 -1.942688z" fill-rule="evenodd"/><path fill="#2fbdb4" fill-opacity="0.7368" d="m302.50992 405.7631c1.2452393 0 2.279602 0.8871155 2.279602 1.9483032c0 1.0611572 -1.0343628 1.942688 -2.279602 1.942688c-1.2518005 0 -2.2861938 -0.88153076 -2.2861938 -1.942688c0 -1.0611877 1.0343933 -1.9483032 2.2861938 -1.9483032zm0 -3.7113342c-3.9464722 0 -7.062805 2.6501465 -7.062805 5.833679c0 3.3632202 3.116333 6.0189514 7.062805 6.0189514c3.939911 0 7.056244 -2.6557312 7.056244 -6.0189514c0 -3.1835327 -3.116333 -5.833679 -7.056244 -5.833679z" fill-rule="evenodd"/><path fill="#6f3ea1" d="m529.9828 386.30817c1.2452393 0 2.279602 0.88150024 2.279602 1.942688l0 39.448853c0 1.0611877 -1.0343628 1.942688 -2.279602 1.942688l-46.08618 0c-1.4494629 0 -2.279602 -0.88150024 -2.279602 -1.942688l0 -39.448853c0 -1.0611877 0.83013916 -1.942688 2.279602 -1.942688zm-41.928894 -12.20636c-1.2452087 0 -2.2861633 0.88150024 -2.2861633 1.942688l0 6.0189514l-2.490448 0c-3.7356567 0 -6.8519897 2.6501465 -6.8519897 6.013336l0 1.942688l-7.056244 0c-1.2452087 0 -2.279602 0.8871155 -2.279602 1.9483032c0 1.0611877 1.0343933 1.942688 2.279602 1.942688l7.056244 0l0 4.070648l-7.056244 0c-1.2452087 0 -2.279602 0.8871155 -2.279602 1.9483032c0 1.2352295 1.0343933 2.122345 2.279602 2.122345l7.056244 0l0 3.8909912l-7.056244 0c-1.2452087 0 -2.279602 0.88150024 -2.279602 1.942688c0 1.2408447 1.0343933 2.122345 2.279602 2.122345l7.056244 0l0 3.8966064l-7.056244 0c-1.2452087 0 -2.279602 0.88153076 -2.279602 1.942688c0 1.2408447 1.0343933 2.1223755 2.279602 2.1223755l7.056244 0l0 3.8909607l-7.056244 0c-1.2452087 0 -2.279602 0.887146 -2.279602 1.9483032c0 1.2352295 1.0343933 2.1223755 2.279602 2.1223755l7.056244 0l0 1.942688c0 3.3631897 3.116333 6.0189514 6.8519897 6.0189514l2.490448 0l0 5.8336487c0 1.2408752 1.0409546 2.1223755 2.2861633 2.1223755c1.2452393 0 2.2796326 -0.88150024 2.2796326 -2.1223755l0 -6.3670654l4.7766113 0l0 6.0133667c0 1.0611572 1.0343933 1.9482727 2.279602 1.9482727c1.2452087 0 2.2861938 -0.8871155 2.2861938 -1.9482727l0 -6.0133667l4.77005 0l0 6.0133667c0 1.0611572 1.0409546 1.9482727 2.2861938 1.9482727c1.2452087 0 2.2861938 -0.8871155 2.2861938 -1.9482727l0 -6.0133667l4.7700195 0l0 6.0133667c0 1.0611572 1.0409546 1.9482727 2.2861938 1.9482727c1.2452393 0 2.279602 -0.8871155 2.279602 -1.9482727l0 -6.0133667l4.7766113 0l0 6.0133667c0 1.0611572 1.0344238 1.9482727 2.279602 1.9482727c1.2452393 0 2.2861938 -0.8871155 2.2861938 -1.9482727l0 -6.0133667l2.2861938 0c3.9399414 0 7.0562744 -2.6557312 7.0562744 -6.013336l0 -1.9483032l7.0562134 0c1.2452393 0 2.279602 -0.88150024 2.279602 -1.942688c0 -1.0611572 -1.0343628 -1.9483032 -2.279602 -1.9483032l-7.0562134 0l0 -4.065033l7.0562134 0c1.2452393 0 2.279602 -0.8871155 2.279602 -1.9483032c0 -1.2352295 -1.0343628 -2.122345 -2.279602 -2.122345l-7.0562134 0l0 -3.8909912l7.0562134 0c1.2452393 0 2.279602 -0.8871155 2.279602 -1.9483032c0 -1.2352295 -1.0343628 -2.122345 -2.279602 -2.122345l-7.0562134 0l0 -3.8909912l7.0562134 0l0 0.53338623c1.2452393 0 2.279602 -0.8871155 2.279602 -2.122345c0 -1.0611877 -1.0343628 -1.9483032 -2.279602 -1.9483032l-7.0562134 0l0 -4.070648l7.0562134 0c1.2452393 0 2.279602 -0.88150024 2.279602 -1.942688c0 -1.0611877 -1.0343628 -1.9483032 -2.279602 -1.9483032l-7.0562134 0l0 -1.942688c0 -3.3631897 -3.116333 -6.013336 -7.0562744 -6.013336l-2.2861938 0l0 -6.0189514c0 -1.0611877 -1.0409546 -1.942688 -2.2861938 -1.942688c-1.2451782 0 -2.279602 0.88150024 -2.279602 1.942688l0 6.0189514l-4.7766113 0l0 -6.0189514c0 -1.0611877 -1.0343628 -1.942688 -2.279602 -1.942688c-1.2452393 0 -2.2861938 0.88150024 -2.2861938 1.942688l0 6.0189514l-4.7700195 0l0 -6.0189514c0 -1.0611877 -1.0409851 -1.942688 -2.2861938 -1.942688c-1.2452393 0 -2.2861938 0.88150024 -2.2861938 1.942688l0 6.0189514l-4.77005 0l0 -6.0189514c0 -1.0611877 -1.0409851 -1.942688 -2.2861938 -1.942688c-1.2452087 0 -2.279602 0.88150024 -2.279602 1.942688l0 6.0189514l-4.7766113 0l0 -6.0189514c0 -1.0611877 -1.0343933 -1.942688 -2.2796326 -1.942688z" fill-rule="evenodd"/><path fill="#6f3ea1" d="m488.469 390.01947c-1.2452393 0 -2.2861938 0.8871155 -2.2861938 1.9483032c0 1.2352295 1.0409546 2.122345 2.2861938 2.122345c1.2452087 0 2.279602 -0.8871155 2.279602 -2.122345c0 -1.0611877 -1.0343933 -1.9483032 -2.279602 -1.9483032z" fill-rule="evenodd"/><path fill="#6f3ea1" d="m488.469 421.68637c-1.2452393 0 -2.2861938 0.88150024 -2.2861938 1.942688c0 1.0611877 1.0409546 1.9483032 2.2861938 1.9483032c1.2452087 0 2.279602 -0.8871155 2.279602 -1.9483032c0 -1.0611877 -1.0343933 -1.942688 -2.279602 -1.942688z" fill-rule="evenodd"/><path fill="#6f3ea1" d="m525.6213 421.68637c-1.2452393 0 -2.2861938 0.88150024 -2.2861938 1.942688c0 1.0611877 1.0409546 1.9483032 2.2861938 1.9483032c1.2451782 0 2.2861938 -0.8871155 2.2861938 -1.9483032c0 -1.0611877 -1.0410156 -1.942688 -2.2861938 -1.942688z" fill-rule="evenodd"/><path fill="#6f3ea1" d="m525.6213 390.01947c-1.2452393 0 -2.2861938 0.8871155 -2.2861938 1.9483032c0 1.0611877 1.0409546 2.122345 2.2861938 2.122345c1.2451782 0 2.2861938 -1.0611572 2.2861938 -2.122345c0 -1.0611877 -1.0410156 -1.9483032 -2.2861938 -1.9483032z" fill-rule="evenodd"/><path fill="#6f3ea1" d="m509.2226 396.2125l0 0.707428c0 0.887146 0.6259155 1.594574 1.6603088 1.7686462c1.2452087 0.35372925 2.490448 1.0611877 3.5314026 1.7686157c0.5205078 0.22460938 1.1332397 0.44918823 1.7196045 0.44918823c0.33599854 0 0.6719971 -0.07861328 0.97509766 -0.26950073l0.83013916 -0.35372925l2.2861938 3.1835327l-0.8302002 0.527771c-0.83013916 0.35372925 -1.2451782 1.2408447 -1.0409546 1.9483032c0.21081543 1.2352295 0.21081543 2.2964172 0 3.537262c-0.20422363 0.88150024 0.21081543 1.5889587 1.0409546 1.942688l0.8302002 0.53338623l-2.2861938 3.1835327l-0.83013916 -0.35369873c-0.36895752 -0.15722656 -0.7840576 -0.24707031 -1.2056885 -0.24707031c-0.513916 0 -1.0344238 0.12915039 -1.4890137 0.4267273c-1.0409546 0.88150024 -2.2861938 1.414917 -3.5314026 1.7686157c-1.0343933 0.35372925 -1.6603088 1.23526 -1.6603088 1.7686462l0 0.7074585l-4.565796 0l0 -0.7074585c0 -0.8871155 -0.625885 -1.414917 -1.6602783 -1.7686462c-1.2452087 -0.35369873 -2.490448 -1.0611572 -3.5314026 -1.7686157c-0.5205078 -0.22457886 -1.1332397 -0.44918823 -1.7196045 -0.44918823c-0.33599854 0 -0.6720276 0.07299805 -0.97509766 0.26953125l-0.83013916 0.35369873l-2.2861938 -3.1835327l0.83013916 -0.53338623c0.8301697 -0.35372925 1.2452393 -1.2352295 1.0409851 -1.942688c-0.21081543 -1.2408447 -0.21081543 -2.3020325 0 -3.537262c0.20425415 -0.8871155 -0.21081543 -1.594574 -1.0409851 -1.9483032l-0.83013916 -0.527771l2.2861938 -3.1835327l0.83013916 0.35372925c0.3821411 0.2470398 0.8169861 0.3761902 1.2452393 0.3761902c0.5007019 0 1.0080261 -0.17407227 1.4494629 -0.5558777c1.0409546 -0.88150024 2.2861938 -1.4148865 3.5314026 -1.7686157c1.0343933 -0.17407227 1.6602783 -1.0611877 1.6602783 -1.7686462l0 -0.707428zm-6.641144 -4.2447205c-1.4560547 0 -2.490448 0.88150024 -2.490448 1.942688l0 1.4148865c-0.625885 0.1796875 -1.4560547 0.71307373 -2.075348 1.066803l-1.2452393 -0.7074585c-0.32940674 -0.11227417 -0.69836426 -0.17404175 -1.0739136 -0.17404175c-0.803772 0 -1.6141663 0.27511597 -2.0424194 0.88150024l-4.565796 6.8948364c-0.6192932 0.887146 -0.41506958 2.1223755 0.6259155 2.6557617l1.4494629 0.7074585l0 2.122345l-1.4494629 0.7074585c-0.83013916 0.35372925 -1.4560547 1.7686462 -0.6259155 2.6501465l4.565796 6.9004517c0.3953247 0.5614624 1.1200562 0.9095764 1.8645325 0.9095764c0.43484497 0 0.86968994 -0.117889404 1.2518005 -0.37615967l1.2452393 -0.53341675c0.83013916 0.35372925 1.6602783 0.8871155 2.075348 1.0611877l0 1.2408447c0 1.2352295 1.0343933 2.122345 2.490448 2.122345l9.342407 0c1.2452087 0 2.2796326 -0.8871155 2.2796326 -2.122345l0 -1.2408447c0.83013916 -0.17407227 1.4560547 -0.7074585 2.0753174 -1.0611877l1.2452393 0.53341675c0.3887329 0.19650269 0.86968994 0.2975769 1.3308716 0.2975769c0.7774658 0 1.5219116 -0.27514648 1.7854614 -0.83099365l4.7700195 -6.9004517c0.4151001 -0.88150024 0.21087646 -1.942688 -0.83013916 -2.6501465l-1.2451782 -0.7074585l0 -2.122345l1.2451782 -0.7074585c1.0410156 -0.53338623 1.4560547 -1.7686157 0.83013916 -2.6557617l-4.7700195 -6.8948364c-0.2833252 -0.6063843 -1.1397705 -0.9601135 -1.9830933 -0.9601135c-0.4019165 0 -0.7972412 0.07861328 -1.1332397 0.25265503l-1.2452393 0.7074585c-0.83013916 -0.35372925 -1.6602783 -0.8871155 -2.0753174 -1.066803l0 -1.4148865c0 -1.0611877 -1.0344238 -1.942688 -2.2796326 -1.942688z" fill-rule="evenodd"/><path fill="#6f3ea1" d="m506.943 405.7631c1.2452087 0 2.279602 0.8871155 2.279602 1.9483032c0 1.0611572 -1.0343933 1.942688 -2.279602 1.942688c-1.2518005 0 -2.2861938 -0.88153076 -2.2861938 -1.942688c0 -1.0611877 1.0343933 -1.9483032 2.2861938 -1.9483032zm0 -3.7113342c-3.9464722 0 -7.062805 2.6501465 -7.062805 5.833679c0 3.3632202 3.116333 6.0189514 7.062805 6.0189514c3.939911 0 7.0562134 -2.6557312 7.0562134 -6.0189514c0 -3.1835327 -3.1163025 -5.833679 -7.0562134 -5.833679z" fill-rule="evenodd"/><path fill="#000000" fill-opacity="0.0" d="m398.8714 226.35957c20.523376 14.720123 92.58331 95.16048 123.14038 88.320724c30.557068 -6.8397217 44.771606 -102.371994 60.202026 -129.35916c15.430359 -26.987183 26.983643 -27.136597 32.38037 -32.56392" fill-rule="evenodd"/><path stroke="#6f3ea1" stroke-width="12.0" stroke-linejoin="round" stroke-linecap="butt" d="m398.8714 226.35957c20.523376 14.720123 92.58331 95.16048 123.14038 88.320724c30.557068 -6.8397217 44.771606 -102.371994 60.202026 -129.35916c15.430359 -26.987183 26.983643 -27.136597 32.38037 -32.56392" fill-rule="evenodd"/><path fill="#a92d84" d="m739.2427 386.30817c1.2451782 0 2.279602 0.88150024 2.279602 1.942688l0 39.448853c0 1.0611877 -1.0344238 1.942688 -2.279602 1.942688l-46.086243 0c-1.4494629 0 -2.279602 -0.88150024 -2.279602 -1.942688l0 -39.448853c0 -1.0611877 0.83013916 -1.942688 2.279602 -1.942688zm-41.928955 -12.20636c-1.2451782 0 -2.2861328 0.88150024 -2.2861328 1.942688l0 6.0189514l-2.4904785 0c-3.7356567 0 -6.8519897 2.6501465 -6.8519897 6.013336l0 1.942688l-7.0562134 0c-1.2452393 0 -2.279602 0.8871155 -2.279602 1.9483032c0 1.0611877 1.0343628 1.942688 2.279602 1.942688l7.0562134 0l0 4.070648l-7.0562134 0c-1.2452393 0 -2.279602 0.8871155 -2.279602 1.9483032c0 1.2352295 1.0343628 2.122345 2.279602 2.122345l7.0562134 0l0 3.8909912l-7.0562134 0c-1.2452393 0 -2.279602 0.88150024 -2.279602 1.942688c0 1.2408447 1.0343628 2.122345 2.279602 2.122345l7.0562134 0l0 3.8966064l-7.0562134 0c-1.2452393 0 -2.279602 0.88153076 -2.279602 1.942688c0 1.2408447 1.0343628 2.1223755 2.279602 2.1223755l7.0562134 0l0 3.8909607l-7.0562134 0c-1.2452393 0 -2.279602 0.887146 -2.279602 1.9483032c0 1.2352295 1.0343628 2.1223755 2.279602 2.1223755l7.0562134 0l0 1.942688c0 3.3631897 3.116333 6.0189514 6.8519897 6.0189514l2.4904785 0l0 5.8336487c0 1.2408752 1.0409546 2.1223755 2.2861328 2.1223755c1.2452393 0 2.279663 -0.88150024 2.279663 -2.1223755l0 -6.3670654l4.7766113 0l0 6.0133667c0 1.0611572 1.0343628 1.9482727 2.279602 1.9482727c1.2451782 0 2.2861938 -0.8871155 2.2861938 -1.9482727l0 -6.0133667l4.7700195 0l0 6.0133667c0 1.0611572 1.0409546 1.9482727 2.2861938 1.9482727c1.2452393 0 2.2861938 -0.8871155 2.2861938 -1.9482727l0 -6.0133667l4.7700195 0l0 6.0133667c0 1.0611572 1.0410156 1.9482727 2.2861938 1.9482727c1.2452393 0 2.279602 -0.8871155 2.279602 -1.9482727l0 -6.0133667l4.7766724 0l0 6.0133667c0 1.0611572 1.0343628 1.9482727 2.279602 1.9482727c1.2451782 0 2.2861938 -0.8871155 2.2861938 -1.9482727l0 -6.0133667l2.2861938 0c3.9398804 0 7.0562134 -2.6557312 7.0562134 -6.013336l0 -1.9483032l7.0562134 0c1.2452393 0 2.279602 -0.88150024 2.279602 -1.942688c0 -1.0611572 -1.0343628 -1.9483032 -2.279602 -1.9483032l-7.0562134 0l0 -4.065033l7.0562134 0c1.2452393 0 2.279602 -0.8871155 2.279602 -1.9483032c0 -1.2352295 -1.0343628 -2.122345 -2.279602 -2.122345l-7.0562134 0l0 -3.8909912l7.0562134 0c1.2452393 0 2.279602 -0.8871155 2.279602 -1.9483032c0 -1.2352295 -1.0343628 -2.122345 -2.279602 -2.122345l-7.0562134 0l0 -3.8909912l7.0562134 0l0 0.53338623c1.2452393 0 2.279602 -0.8871155 2.279602 -2.122345c0 -1.0611877 -1.0343628 -1.9483032 -2.279602 -1.9483032l-7.0562134 0l0 -4.070648l7.0562134 0c1.2452393 0 2.279602 -0.88150024 2.279602 -1.942688c0 -1.0611877 -1.0343628 -1.9483032 -2.279602 -1.9483032l-7.0562134 0l0 -1.942688c0 -3.3631897 -3.116333 -6.013336 -7.0562134 -6.013336l-2.2861938 0l0 -6.0189514c0 -1.0611877 -1.0410156 -1.942688 -2.2861938 -1.942688c-1.2452393 0 -2.279602 0.88150024 -2.279602 1.942688l0 6.0189514l-4.7766724 0l0 -6.0189514c0 -1.0611877 -1.0343628 -1.942688 -2.279602 -1.942688c-1.2451782 0 -2.2861938 0.88150024 -2.2861938 1.942688l0 6.0189514l-4.7700195 0l0 -6.0189514c0 -1.0611877 -1.0409546 -1.942688 -2.2861938 -1.942688c-1.2452393 0 -2.2861938 0.88150024 -2.2861938 1.942688l0 6.0189514l-4.7700195 0l0 -6.0189514c0 -1.0611877 -1.0410156 -1.942688 -2.2861938 -1.942688c-1.2452393 0 -2.279602 0.88150024 -2.279602 1.942688l0 6.0189514l-4.7766113 0l0 -6.0189514c0 -1.0611877 -1.0344238 -1.942688 -2.279663 -1.942688z" fill-rule="evenodd"/><path fill="#a92d84" d="m697.7288 390.01947c-1.2452393 0 -2.2861938 0.8871155 -2.2861938 1.9483032c0 1.2352295 1.0409546 2.122345 2.2861938 2.122345c1.2452393 0 2.279602 -0.8871155 2.279602 -2.122345c0 -1.0611877 -1.0343628 -1.9483032 -2.279602 -1.9483032z" fill-rule="evenodd"/><path fill="#a92d84" d="m697.7288 421.68637c-1.2452393 0 -2.2861938 0.88150024 -2.2861938 1.942688c0 1.0611877 1.0409546 1.9483032 2.2861938 1.9483032c1.2452393 0 2.279602 -0.8871155 2.279602 -1.9483032c0 -1.0611877 -1.0343628 -1.942688 -2.279602 -1.942688z" fill-rule="evenodd"/><path fill="#a92d84" d="m734.8811 421.68637c-1.2452393 0 -2.2861938 0.88150024 -2.2861938 1.942688c0 1.0611877 1.0409546 1.9483032 2.2861938 1.9483032c1.2452393 0 2.2861938 -0.8871155 2.2861938 -1.9483032c0 -1.0611877 -1.0409546 -1.942688 -2.2861938 -1.942688z" fill-rule="evenodd"/><path fill="#a92d84" d="m734.8811 390.01947c-1.2452393 0 -2.2861938 0.8871155 -2.2861938 1.9483032c0 1.0611877 1.0409546 2.122345 2.2861938 2.122345c1.2452393 0 2.2861938 -1.0611572 2.2861938 -2.122345c0 -1.0611877 -1.0409546 -1.9483032 -2.2861938 -1.9483032z" fill-rule="evenodd"/><path fill="#a92d84" d="m718.4824 396.2125l0 0.707428c0 0.887146 0.6259155 1.594574 1.6603394 1.7686462c1.2451782 0.35372925 2.4904175 1.0611877 3.531372 1.7686157c0.5205078 0.22460938 1.1332397 0.44918823 1.7196045 0.44918823c0.33599854 0 0.6719971 -0.07861328 0.97509766 -0.26950073l0.83013916 -0.35372925l2.2861938 3.1835327l-0.83013916 0.527771c-0.83013916 0.35372925 -1.2452393 1.2408447 -1.0410156 1.9483032c0.21087646 1.2352295 0.21087646 2.2964172 0 3.537262c-0.20422363 0.88150024 0.21087646 1.5889587 1.0410156 1.942688l0.83013916 0.53338623l-2.2861938 3.1835327l-0.83013916 -0.35369873c-0.36895752 -0.15722656 -0.7840576 -0.24707031 -1.2056885 -0.24707031c-0.513916 0 -1.0344238 0.12915039 -1.4890137 0.4267273c-1.0409546 0.88150024 -2.2861938 1.414917 -3.531372 1.7686157c-1.0344238 0.35372925 -1.6603394 1.23526 -1.6603394 1.7686462l0 0.7074585l-4.565796 0l0 -0.7074585c0 -0.8871155 -0.6258545 -1.414917 -1.6602783 -1.7686462c-1.2451782 -0.35369873 -2.4904175 -1.0611572 -3.531372 -1.7686157c-0.5205078 -0.22457886 -1.1332397 -0.44918823 -1.7196045 -0.44918823c-0.33599854 0 -0.6720581 0.07299805 -0.97509766 0.26953125l-0.83013916 0.35369873l-2.2861938 -3.1835327l0.83013916 -0.53338623c0.83013916 -0.35372925 1.2452393 -1.2352295 1.0409546 -1.942688c-0.21081543 -1.2408447 -0.21081543 -2.3020325 0 -3.537262c0.20428467 -0.8871155 -0.21081543 -1.594574 -1.0409546 -1.9483032l-0.83013916 -0.527771l2.2861938 -3.1835327l0.83013916 0.35372925c0.3821411 0.2470398 0.81695557 0.3761902 1.2452393 0.3761902c0.5006714 0 1.0079956 -0.17407227 1.4494629 -0.5558777c1.0409546 -0.88150024 2.2861938 -1.4148865 3.531372 -1.7686157c1.0344238 -0.17407227 1.6602783 -1.0611877 1.6602783 -1.7686462l0 -0.707428zm-6.6411133 -4.2447205c-1.4560547 0 -2.4904785 0.88150024 -2.4904785 1.942688l0 1.4148865c-0.6258545 0.1796875 -1.4560547 0.71307373 -2.0753174 1.066803l-1.2452393 -0.7074585c-0.32940674 -0.11227417 -0.69836426 -0.17404175 -1.0739136 -0.17404175c-0.803772 0 -1.6141968 0.27511597 -2.0424194 0.88150024l-4.565796 6.8948364c-0.61932373 0.887146 -0.4151001 2.1223755 0.6259155 2.6557617l1.4494629 0.7074585l0 2.122345l-1.4494629 0.7074585c-0.83013916 0.35372925 -1.4560547 1.7686462 -0.6259155 2.6501465l4.565796 6.9004517c0.3953247 0.5614624 1.1200562 0.9095764 1.864502 0.9095764c0.4348755 0 0.86968994 -0.117889404 1.251831 -0.37615967l1.2452393 -0.53341675c0.83013916 0.35372925 1.6602783 0.8871155 2.0753174 1.0611877l0 1.2408447c0 1.2352295 1.0344238 2.122345 2.4904785 2.122345l9.342407 0c1.2452393 0 2.279602 -0.8871155 2.279602 -2.122345l0 -1.2408447c0.83013916 -0.17407227 1.4560547 -0.7074585 2.0753784 -1.0611877l1.2451782 0.53341675c0.3887329 0.19650269 0.86968994 0.2975769 1.3308716 0.2975769c0.7774658 0 1.5219727 -0.27514648 1.7854614 -0.83099365l4.7700806 -6.9004517c0.41503906 -0.88150024 0.21081543 -1.942688 -0.83013916 -2.6501465l-1.2452393 -0.7074585l0 -2.122345l1.2452393 -0.7074585c1.0409546 -0.53338623 1.4560547 -1.7686157 0.83013916 -2.6557617l-4.7700806 -6.8948364c-0.28326416 -0.6063843 -1.1397705 -0.9601135 -1.9830933 -0.9601135c-0.4019165 0 -0.7971802 0.07861328 -1.1332397 0.25265503l-1.2451782 0.7074585c-0.83013916 -0.35372925 -1.6603394 -0.8871155 -2.0753784 -1.066803l0 -1.4148865c0 -1.0611877 -1.0343628 -1.942688 -2.279602 -1.942688z" fill-rule="evenodd"/><path fill="#a92d84" d="m716.2028 405.7631c1.2452393 0 2.279602 0.8871155 2.279602 1.9483032c0 1.0611572 -1.0343628 1.942688 -2.279602 1.942688c-1.25177 0 -2.2861938 -0.88153076 -2.2861938 -1.942688c0 -1.0611877 1.0344238 -1.9483032 2.2861938 -1.9483032zm0 -3.7113342c-3.9464722 0 -7.062805 2.6501465 -7.062805 5.833679c0 3.3632202 3.116333 6.0189514 7.062805 6.0189514c3.9399414 0 7.0562744 -2.6557312 7.0562744 -6.0189514c0 -3.1835327 -3.116333 -5.833679 -7.0562744 -5.833679z" fill-rule="evenodd"/><path fill="#c4af26" fill-opacity="0.6863" d="m513.0436 117.10756l0 7.3264084l-5.129242 0l0 -7.3264084zm-35.065002 7.3264084c0.61187744 0 1.2302246 0.20590973 1.842102 0.8369217c1.2302246 1.042839 1.2302246 2.929245 0.20828247 3.9720764c-0.5142212 0.5247345 -1.2302246 0.79042053 -1.9527588 0.79042053c-0.7160034 0 -1.4320068 -0.26568604 -1.946228 -0.79042053c-1.0284424 -1.0428314 -1.0284424 -2.9292374 0 -3.9720764c0.6183777 -0.63101196 1.4385376 -0.8369217 1.8486023 -0.8369217zm64.79895 0c1.6403198 0 2.6687622 1.2553864 2.6687622 2.9292374c0 1.4612885 -1.2302246 2.9292297 -2.6687622 2.9292297c-1.2302246 0 -2.6622314 -1.4679413 -2.6622314 -2.9292297c0 -1.673851 1.2302246 -2.9292374 2.6622314 -2.9292374zm-32.194427 5.44001c16.201385 0 29.532196 13.603348 29.532196 30.341827c0 16.738495 -13.330811 30.341827 -29.532196 30.341827c-16.201385 0 -29.532196 -13.6033325 -29.532196 -30.341827c0 -16.73848 13.330811 -30.341827 29.532196 -30.341827zm-10.460266 -18.418983c-1.6403198 0 -2.662262 1.2553864 -2.662262 2.7233276c0 1.673851 1.4320374 2.9292374 2.662262 2.9292374l2.8705444 0l0 8.36924c-5.5328064 1.2553864 -10.662048 3.9787216 -14.762817 7.5323257l-2.2586975 -2.2982178c1.6403198 -3.1417923 1.0284424 -6.695404 -1.4320374 -9.418724c-1.5426636 -1.5675735 -3.593048 -2.3513641 -5.695526 -2.3513641c-2.0959473 0 -4.2504883 0.7837906 -5.9949646 2.3513641c-3.078827 3.1417847 -3.078827 8.36924 0 11.716942c1.6403198 1.680481 3.6907043 2.5174103 5.7411194 2.5174103c1.2302246 0 2.258667 -0.41845703 3.488922 -0.8369293l2.4604492 2.298233c-5.1292114 6.276932 -8.611633 14.440262 -8.611633 23.227966c0 19.674362 15.7847595 35.575928 34.85669 35.575928c19.280182 0 34.86319 -15.901566 34.86319 -35.575928c0 -8.787704 -3.0723267 -16.951035 -8.409851 -23.227966l2.258667 -2.298233c0.8201904 0.4184723 2.050415 0.8369293 3.2806396 0.8369293c4.5108643 0 7.999817 -3.7727966 7.999817 -8.375885c0 -4.6030807 -3.4889526 -8.1566925 -7.999817 -8.1566925c-4.3025513 0 -7.791504 3.5536118 -7.791504 8.1566925c0 1.2553864 0.20178223 2.3048706 0.61187744 3.560257l-2.2521973 2.2982178c-4.100769 -3.5536041 -9.2300415 -6.2769394 -14.561035 -7.5323257l0 -8.36924l2.8705444 0c1.4385376 0 2.4604492 -1.2553864 2.4604492 -2.9292374c0 -1.4679413 -1.2302246 -2.7233276 -2.4604492 -2.7233276z" fill-rule="evenodd"/><path fill="#c4af26" fill-opacity="0.6863" d="m507.71255 141.17245l0 19.04335c0 1.6738434 1.2302246 2.9292297 2.6622314 2.9292297l18.837616 0c-1.3148804 9.312454 -9.269104 16.326675 -18.629303 16.326675c-10.460266 0 -19.07193 -8.794342 -19.07193 -19.255905c0 -9.624634 6.971344 -17.787964 16.201385 -19.04335zm2.8705444 -5.4400024c-13.330811 0 -24.402954 10.880005 -24.402954 24.483353c0 13.603348 10.870361 24.695908 24.402954 24.695908c13.33078 0 24.402924 -11.09256 24.402924 -24.695908c0 -1.4612885 -1.4385376 -2.7166748 -2.8705444 -2.7166748l-19.0719 0l0 -19.255905c0 -1.4613037 -1.2302551 -2.5107727 -2.4604797 -2.5107727z" fill-rule="evenodd"/><path fill="#000000" fill-opacity="0.0" d="m302.16534 56.87139l409.13385 0l0 30.015747l-409.13385 0z" fill-rule="evenodd"/><path fill="#434343" d="m317.36847 91.32076l0 10.390625l-3.34375 0l0 -26.53125l8.453125 0q3.703125 0 5.8125 2.21875q2.125 2.203125 2.125 5.890625q0 3.828125 -2.015625 5.890625q-2.015625 2.0625 -5.671875 2.140625l-5.359375 0zm0 -2.859375l5.109375 0q2.234375 0 3.40625 -1.328125q1.1875 -1.328125 1.1875 -3.8125q0 -2.390625 -1.21875 -3.828125q-1.21875 -1.4375 -3.34375 -1.4375l-5.140625 0l0 10.40625zm26.8461 13.25q-0.296875 -0.640625 -0.421875 -2.15625q-1.71875 2.515625 -4.375 2.515625q-2.6875 0 -4.1875 -1.5q-1.5 -1.5 -1.5 -4.234375q0 -3.015625 2.03125 -4.78125q2.046875 -1.765625 5.609375 -1.796875l2.359375 0l0 -2.09375q0 -1.78125 -0.78125 -2.515625q-0.78125 -0.75 -2.390625 -0.75q-1.453125 0 -2.375 0.875q-0.90625 0.859375 -0.90625 2.1875l-3.21875 0q0 -1.515625 0.890625 -2.890625q0.890625 -1.375 2.40625 -2.15625q1.515625 -0.78125 3.375 -0.78125q3.03125 0 4.59375 1.5q1.578125 1.5 1.625 4.375l0 9.953125q0.015625 2.28125 0.609375 3.953125l0 0.296875l-3.34375 0zm-4.3125 -2.5625q1.1875 0 2.265625 -0.65625q1.078125 -0.65625 1.5625 -1.640625l0 -4.703125l-1.8125 0q-2.296875 0.03125 -3.640625 1.03125q-1.328125 0.984375 -1.328125 2.765625q0 1.6875 0.671875 2.453125q0.6875 0.75 2.28125 0.75zm20.177185 -14.140625q-0.671875 -0.125 -1.453125 -0.125q-2.484375 0 -3.46875 2.71875l0 14.109375l-3.21875 0l0 -19.71875l3.140625 0l0.046875 2.0q1.296875 -2.359375 3.671875 -2.359375q0.765625 0 1.265625 0.25l0.015625 3.125zm12.641663 16.703125q-0.296875 -0.640625 -0.421875 -2.15625q-1.71875 2.515625 -4.375 2.515625q-2.6875 0 -4.1875 -1.5q-1.5 -1.5 -1.5 -4.234375q0 -3.015625 2.03125 -4.78125q2.046875 -1.765625 5.609375 -1.796875l2.359375 0l0 -2.09375q0 -1.78125 -0.78125 -2.515625q-0.78125 -0.75 -2.390625 -0.75q-1.453125 0 -2.375 0.875q-0.90625 0.859375 -0.90625 2.1875l-3.21875 0q0 -1.515625 0.890625 -2.890625q0.890625 -1.375 2.40625 -2.15625q1.515625 -0.78125 3.375 -0.78125q3.03125 0 4.59375 1.5q1.578125 1.5 1.625 4.375l0 9.953125q0.015625 2.28125 0.609375 3.953125l0 0.296875l-3.34375 0zm-4.3125 -2.5625q1.1875 0 2.265625 -0.65625q1.078125 -0.65625 1.5625 -1.640625l0 -4.703125l-1.8125 0q-2.296875 0.03125 -3.640625 1.03125q-1.328125 0.984375 -1.328125 2.765625q0 1.6875 0.671875 2.453125q0.6875 0.75 2.28125 0.75zm15.520935 2.5625l-3.234375 0l0 -28.0l3.234375 0l0 28.0zm8.548309 0l-3.234375 0l0 -28.0l3.234375 0l0 28.0zm12.110779 0.359375q-3.671875 0 -5.640625 -2.1875q-1.96875 -2.203125 -2.015625 -6.453125l0 -2.375q0 -4.421875 1.921875 -6.921875q1.9375 -2.5 5.375 -2.5q3.46875 0 5.171875 2.203125q1.71875 2.203125 1.75 6.859375l0 2.125l-11.0 0l0 0.453125q0 3.171875 1.1875 4.609375q1.203125 1.4375 3.4375 1.4375q1.421875 0 2.5 -0.53125q1.09375 -0.546875 2.046875 -1.703125l1.671875 2.03125q-2.09375 2.953125 -6.40625 2.953125zm-0.359375 -17.671875q-2.0 0 -2.96875 1.375q-0.96875 1.375 -1.09375 4.265625l7.765625 0l0 -0.4375q-0.125 -2.796875 -1.015625 -4.0q-0.875 -1.203125 -2.6875 -1.203125zm14.276215 17.3125l-3.234375 0l0 -28.0l3.234375 0l0 28.0zm17.409088 -10.390625l0 10.390625l-3.34375 0l0 -26.53125l8.453125 0q3.703125 0 5.8125 2.21875q2.125 2.203125 2.125 5.890625q0 3.828125 -2.015625 5.890625q-2.015625 2.0625 -5.671875 2.140625l-5.359375 0zm0 -2.859375l5.109375 0q2.234375 0 3.40625 -1.328125q1.1875 -1.328125 1.1875 -3.8125q0 -2.390625 -1.21875 -3.828125q-1.21875 -1.4375 -3.34375 -1.4375l-5.140625 0l0 10.40625zm23.700256 13.609375q-3.671875 0 -5.640625 -2.1875q-1.96875 -2.203125 -2.015625 -6.453125l0 -2.375q0 -4.421875 1.921875 -6.921875q1.9375 -2.5 5.375 -2.5q3.46875 0 5.171875 2.203125q1.71875 2.203125 1.75 6.859375l0 2.125l-11.0 0l0 0.453125q0 3.171875 1.1875 4.609375q1.203125 1.4375 3.4375 1.4375q1.421875 0 2.5 -0.53125q1.09375 -0.546875 2.046875 -1.703125l1.671875 2.03125q-2.09375 2.953125 -6.40625 2.953125zm-0.359375 -17.671875q-2.0 0 -2.96875 1.375q-0.96875 1.375 -1.09375 4.265625l7.765625 0l0 -0.4375q-0.125 -2.796875 -1.015625 -4.0q-0.875 -1.203125 -2.6875 -1.203125zm18.932465 0.609375q-0.671875 -0.125 -1.453125 -0.125q-2.484375 0 -3.46875 2.71875l0 14.109375l-3.21875 0l0 -19.71875l3.140625 0l0.046875 2.0q1.296875 -2.359375 3.671875 -2.359375q0.765625 0 1.265625 0.25l0.015625 3.125zm6.261444 -3.015625l0.0625 1.8125q1.8125 -2.171875 4.765625 -2.171875q3.296875 0 4.609375 2.859375q1.859375 -2.859375 5.171875 -2.859375q5.453125 0 5.578125 6.796875l0 13.28125l-3.203125 0l0 -12.984375q0 -2.140625 -0.765625 -3.1875q-0.765625 -1.046875 -2.59375 -1.046875q-1.453125 0 -2.375 1.125q-0.90625 1.125 -1.046875 2.875l0 13.21875l-3.25 0l0 -13.125q-0.046875 -4.09375 -3.328125 -4.09375q-2.4375 0 -3.453125 2.4375l0 14.78125l-3.203125 0l0 -19.71875l3.03125 0zm35.102844 17.984375q-1.609375 2.09375 -4.6875 2.09375q-2.671875 0 -4.046875 -1.84375q-1.359375 -1.84375 -1.390625 -5.390625l0 -12.84375l3.21875 0l0 12.609375q0 4.609375 2.765625 4.609375q2.9375 0 4.046875 -2.625l0 -14.59375l3.234375 0l0 19.71875l-3.0625 0l-0.078125 -1.734375zm12.216248 -22.765625l0 4.78125l2.96875 0l0 2.609375l-2.96875 0l0 12.21875q0 1.171875 0.375 1.78125q0.390625 0.59375 1.3125 0.59375q0.640625 0 1.296875 -0.21875l-0.03125 2.734375q-1.09375 0.359375 -2.25 0.359375q-1.90625 0 -2.921875 -1.359375q-1.0 -1.375 -1.0 -3.859375l0 -12.25l-3.0 0l0 -2.609375l3.0 0l0 -4.78125l3.21875 0zm16.948975 24.5q-0.296875 -0.640625 -0.421875 -2.15625q-1.71875 2.515625 -4.375 2.515625q-2.6875 0 -4.1875 -1.5q-1.5 -1.5 -1.5 -4.234375q0 -3.015625 2.03125 -4.78125q2.046875 -1.765625 5.609375 -1.796875l2.359375 0l0 -2.09375q0 -1.78125 -0.78125 -2.515625q-0.78125 -0.75 -2.390625 -0.75q-1.453125 0 -2.375 0.875q-0.90625 0.859375 -0.90625 2.1875l-3.21875 0q0 -1.515625 0.890625 -2.890625q0.890625 -1.375 2.40625 -2.15625q1.515625 -0.78125 3.375 -0.78125q3.03125 0 4.59375 1.5q1.578125 1.5 1.625 4.375l0 9.953125q0.015625 2.28125 0.609375 3.953125l0 0.296875l-3.34375 0zm-4.3125 -2.5625q1.1875 0 2.265625 -0.65625q1.078125 -0.65625 1.5625 -1.640625l0 -4.703125l-1.8125 0q-2.296875 0.03125 -3.640625 1.03125q-1.328125 0.984375 -1.328125 2.765625q0 1.6875 0.671875 2.453125q0.6875 0.75 2.28125 0.75zm16.270935 -21.9375l0 4.78125l2.96875 0l0 2.609375l-2.96875 0l0 12.21875q0 1.171875 0.375 1.78125q0.390625 0.59375 1.3125 0.59375q0.640625 0 1.296875 -0.21875l-0.03125 2.734375q-1.09375 0.359375 -2.25 0.359375q-1.90625 0 -2.921875 -1.359375q-1.0 -1.375 -1.0 -3.859375l0 -12.25l-3.0 0l0 -2.609375l3.0 0l0 -4.78125l3.21875 0zm10.277161 24.5l-3.234375 0l0 -19.71875l3.234375 0l0 19.71875zm0.25 -24.953125q0 0.828125 -0.453125 1.375q-0.453125 0.546875 -1.390625 0.546875q-0.90625 0 -1.359375 -0.546875q-0.453125 -0.546875 -0.453125 -1.359375q0 -0.828125 0.453125 -1.390625q0.453125 -0.578125 1.359375 -0.578125q0.921875 0 1.375 0.578125q0.46875 0.578125 0.46875 1.375zm4.142029 14.1875q0 -4.3125 2.078125 -6.8125q2.09375 -2.5 5.515625 -2.5q3.4375 0 5.515625 2.4375q2.09375 2.4375 2.140625 6.65625l0 2.078125q0 4.28125 -2.078125 6.78125q-2.078125 2.484375 -5.53125 2.484375q-3.4375 0 -5.515625 -2.421875q-2.0625 -2.421875 -2.125 -6.5625l0 -2.140625zm3.21875 1.859375q0 3.03125 1.1875 4.78125q1.203125 1.734375 3.234375 1.734375q4.265625 0 4.390625 -6.15625l0 -2.21875q0 -3.03125 -1.203125 -4.78125q-1.203125 -1.765625 -3.234375 -1.765625q-1.984375 0 -3.1875 1.765625q-1.1875 1.75 -1.1875 4.75l0 1.890625zm19.237 -10.8125l0.09375 2.125q1.875 -2.484375 4.78125 -2.484375q5.234375 0 5.3125 6.96875l0 13.109375l-3.203125 0l0 -12.953125q0 -2.328125 -0.78125 -3.296875q-0.78125 -0.96875 -2.328125 -0.96875q-1.203125 0 -2.15625 0.796875q-0.953125 0.796875 -1.546875 2.09375l0 14.328125l-3.21875 0l0 -19.71875l3.046875 0zm24.609436 14.671875q0 -1.046875 -0.796875 -1.78125q-0.78125 -0.75 -3.015625 -1.75q-2.609375 -1.078125 -3.6875 -1.84375q-1.0625 -0.765625 -1.59375 -1.734375q-0.515625 -0.984375 -0.515625 -2.328125q0 -2.40625 1.75 -4.0q1.765625 -1.59375 4.5 -1.59375q2.875 0 4.625 1.671875q1.75 1.671875 1.75 4.296875l-3.203125 0q0 -1.328125 -0.890625 -2.265625q-0.890625 -0.9375 -2.28125 -0.9375q-1.421875 0 -2.234375 0.734375q-0.8125 0.734375 -0.8125 1.984375q0 0.984375 0.59375 1.59375q0.59375 0.59375 2.859375 1.578125q3.578125 1.390625 4.875 2.734375q1.296875 1.34375 1.296875 3.40625q0 2.5625 -1.765625 4.109375q-1.765625 1.53125 -4.734375 1.53125q-3.09375 0 -5.015625 -1.765625q-1.90625 -1.765625 -1.90625 -4.484375l3.25 0q0.0625 1.640625 1.0 2.578125q0.953125 0.921875 2.671875 0.921875q1.59375 0 2.4375 -0.71875q0.84375 -0.71875 0.84375 -1.9375zm11.646057 -19.453125l0 4.78125l2.96875 0l0 2.609375l-2.96875 0l0 12.21875q0 1.171875 0.375 1.78125q0.390625 0.59375 1.3125 0.59375q0.640625 0 1.296875 -0.21875l-0.03125 2.734375q-1.09375 0.359375 -2.25 0.359375q-1.90625 0 -2.921875 -1.359375q-1.0 -1.375 -1.0 -3.859375l0 -12.25l-3.0 0l0 -2.609375l3.0 0l0 -4.78125l3.21875 0zm13.8396 24.859375q-3.671875 0 -5.640625 -2.1875q-1.96875 -2.203125 -2.015625 -6.453125l0 -2.375q0 -4.421875 1.921875 -6.921875q1.9375 -2.5 5.375 -2.5q3.46875 0 5.171875 2.203125q1.71875 2.203125 1.75 6.859375l0 2.125l-11.0 0l0 0.453125q0 3.171875 1.1875 4.609375q1.203125 1.4375 3.4375 1.4375q1.421875 0 2.5 -0.53125q1.09375 -0.546875 2.046875 -1.703125l1.671875 2.03125q-2.09375 2.953125 -6.40625 2.953125zm-0.359375 -17.671875q-2.0 0 -2.96875 1.375q-0.96875 1.375 -1.09375 4.265625l7.765625 0l0 -0.4375q-0.125 -2.796875 -1.015625 -4.0q-0.875 -1.203125 -2.6875 -1.203125zm20.38562 12.265625q0 -1.046875 -0.796875 -1.78125q-0.78125 -0.75 -3.015625 -1.75q-2.609375 -1.078125 -3.6875 -1.84375q-1.0625 -0.765625 -1.59375 -1.734375q-0.515625 -0.984375 -0.515625 -2.328125q0 -2.40625 1.75 -4.0q1.765625 -1.59375 4.5 -1.59375q2.875 0 4.625 1.671875q1.75 1.671875 1.75 4.296875l-3.203125 0q0 -1.328125 -0.890625 -2.265625q-0.890625 -0.9375 -2.28125 -0.9375q-1.421875 0 -2.234375 0.734375q-0.8125 0.734375 -0.8125 1.984375q0 0.984375 0.59375 1.59375q0.59375 0.59375 2.859375 1.578125q3.578125 1.390625 4.875 2.734375q1.296875 1.34375 1.296875 3.40625q0 2.5625 -1.765625 4.109375q-1.765625 1.53125 -4.734375 1.53125q-3.09375 0 -5.015625 -1.765625q-1.90625 -1.765625 -1.90625 -4.484375l3.25 0q0.0625 1.640625 1.0 2.578125q0.953125 0.921875 2.671875 0.921875q1.59375 0 2.4375 -0.71875q0.84375 -0.71875 0.84375 -1.9375zm11.646057 -19.453125l0 4.78125l2.96875 0l0 2.609375l-2.96875 0l0 12.21875q0 1.171875 0.375 1.78125q0.390625 0.59375 1.3125 0.59375q0.640625 0 1.296875 -0.21875l-0.03125 2.734375q-1.09375 0.359375 -2.25 0.359375q-1.90625 0 -2.921875 -1.359375q-1.0 -1.375 -1.0 -3.859375l0 -12.25l-3.0 0l0 -2.609375l3.0 0l0 -4.78125l3.21875 0z" fill-rule="nonzero"/><path fill="#000000" fill-opacity="0.0" d="m162.5538 58.740158l700.3779 0l0 422.5197l-700.3779 0z" fill-rule="evenodd"/><path stroke="#595959" stroke-width="8.0" stroke-linejoin="round" stroke-linecap="butt" d="m162.5538 58.740158l700.3779 0l0 422.5197l-700.3779 0z" fill-rule="evenodd"/></g></svg>