<?xml version="1.0" encoding="UTF-8" standalone="no"?>
<!DOCTYPE svg PUBLIC "-//W3C//DTD SVG 1.1//EN" "http://www.w3.org/Graphics/SVG/1.1/DTD/svg11.dtd">
<svg version="1.1" xmlns="http://www.w3.org/2000/svg" xmlns:xlink="http://www.w3.org/1999/xlink" preserveAspectRatio="xMidYMid meet" viewBox="0 0 640 640" width="640" height="640"><defs><path d="M0 238.8L640 238.8L640 386.86L0 386.86L0 238.8Z" id="a8yg2n0vT"></path><path d="M205.3 243.11L631.82 243.11L631.82 302.3L205.3 302.3L205.3 243.11Z" id="b2OwCVH4fI"></path><path d="M237.65 264.29C240.64 265.38 241.48 267.66 241.91 268.03C243.19 270.69 243.06 274.72 243.19 275.46C243.19 280.23 242.08 282.15 241.96 282.89C240.74 285.54 238.37 286.24 237.97 286.61C235.21 287.66 231.25 287.55 230.5 287.66C228 287.66 226.1 287.46 225.61 287.44C223.23 287.22 221.61 286.95 221.17 286.9C219.11 286.58 218 286.29 217.65 286.22C216.67 285.99 216 285.76 215.64 285.54C215.74 283.07 215.79 281.69 215.8 281.42C219 281.42 221.77 281.42 222.44 281.42C225.89 281.42 228.57 281.42 229.25 281.42C231.42 281.37 232.3 280.93 232.64 280.88C233.85 280.39 234.19 279.27 234.36 279.1C234.89 277.79 234.83 275.82 234.89 275.46C234.89 273.08 234.42 272.14 234.36 271.77C233.85 270.47 232.81 270.14 232.64 269.96C231.42 269.44 229.59 269.49 229.25 269.44C224.26 269.44 221.53 269.49 220.68 269.49C218.29 269.53 216.69 269.6 215.85 269.71C215.37 266.14 215.1 264.15 215.04 263.75C217.32 263.48 218.89 263.42 219.32 263.38C221.33 263.26 223.25 263.25 223.69 263.23C225.26 263.21 227.17 263.2 229.41 263.2C234.35 263.86 237.1 264.22 237.65 264.29ZM223.34 301.16L215.04 301.16L215.04 263.75L223.34 263.75L223.34 301.16Z" id="kcAbGSl6n"></path><path d="M264.12 278.93C266.07 279.67 266.79 281.21 267.09 281.46C267.77 282.66 268.11 284.29 268.11 286.38L268.11 301.16L262.76 301.16L261.81 296.31L261.35 295.63C261.35 290.05 261.35 286.96 261.35 286.34C261.35 284.75 260.68 284.26 260.6 284.02C259.86 283.29 258.06 283.37 257.78 283.29C256.05 283.29 253.9 283.4 253.47 283.41C251.74 283.49 249.98 283.58 248.16 283.7C247.78 281.04 247.57 279.56 247.53 279.26C249.16 278.95 250.91 278.78 251.29 278.72C253.42 278.49 255.12 278.37 255.55 278.34C256.97 278.23 258.24 278.18 259.36 278.18C262.22 278.63 263.8 278.88 264.12 278.93ZM265.3 291.14C259.32 291.17 255.99 291.19 255.33 291.19C254.1 291.19 253.75 291.72 253.58 291.78C253.23 292.17 253.06 292.7 253.06 293.36C253.06 294.01 253.06 294.38 253.06 294.45C253.06 295.59 253.63 296.03 253.69 296.2C254.33 296.81 255.53 296.74 255.74 296.81C256.91 296.81 258.03 296.36 258.29 296.31C259.67 295.81 260.76 295.04 261.04 294.9C261.95 294.29 262.75 293.59 263.44 292.77C263.44 294.51 263.44 295.48 263.44 295.67C263.04 296.36 262.36 297.21 262.24 297.38C261.44 298.4 260.42 299.18 260.22 299.38C259 300.35 257.65 300.86 257.36 301.02C255.74 301.7 254.02 301.63 253.65 301.7C251.61 301.7 250.34 301.05 249.98 300.98C248.34 300.25 247.65 299.06 247.39 298.85C246.76 297.91 246.44 296.75 246.44 295.36C246.44 293.97 246.44 293.2 246.44 293.04C246.44 290.37 248.08 289.29 248.26 288.88C249.47 287.88 251.13 287.38 253.24 287.38L265.34 287.38L265.3 291.14ZM279.44 283.21L280.08 283.79L280.08 301.16L273.37 301.16L273.37 278.76L278.63 278.76L279.44 283.21ZM288.92 284.39C287.8 284.39 287.18 284.39 287.06 284.39C285.47 284.39 284.07 284.8 283.74 284.85C282.6 285.15 281.15 285.6 279.4 286.2C279.12 283.94 278.97 282.69 278.94 282.44C281.31 280.35 283.23 279.58 283.7 279.26C285.31 278.54 286.86 278.18 288.38 278.18L289.56 278.18L288.92 284.39ZM309.18 278.93C311.13 279.67 311.85 281.21 312.15 281.46C312.83 282.66 313.17 284.29 313.17 286.38L313.17 301.16L307.82 301.16L306.87 296.31L306.41 295.63C306.41 290.05 306.41 286.96 306.41 286.34C306.41 284.75 305.74 284.26 305.66 284.02C304.92 283.29 303.12 283.37 302.84 283.29C301.11 283.29 298.96 283.4 298.53 283.41C296.8 283.49 295.04 283.58 293.22 283.7C292.84 281.04 292.63 279.56 292.59 279.26C294.22 278.95 295.97 278.78 296.35 278.72C298.49 278.49 300.18 278.37 300.61 278.34C302.03 278.23 303.3 278.18 304.42 278.18C307.28 278.63 308.87 278.88 309.18 278.93ZM310.36 291.14C304.38 291.17 301.06 291.19 300.39 291.19C299.16 291.19 298.82 291.72 298.64 291.78C298.29 292.17 298.12 292.7 298.12 293.36C298.12 294.01 298.12 294.38 298.12 294.45C298.12 295.59 298.69 296.03 298.76 296.2C299.39 296.81 300.59 296.74 300.8 296.81C301.97 296.81 303.09 296.36 303.35 296.31C304.74 295.81 305.82 295.04 306.1 294.9C307.01 294.29 307.81 293.59 308.51 292.77C308.51 294.51 308.51 295.48 308.51 295.67C308.1 296.36 307.42 297.21 307.3 297.38C306.51 298.4 305.48 299.18 305.28 299.38C304.06 300.35 302.71 300.86 302.42 301.02C300.8 301.7 299.09 301.63 298.71 301.7C296.67 301.7 295.4 301.05 295.04 300.98C293.4 300.25 292.71 299.06 292.45 298.85C291.82 297.91 291.51 296.75 291.51 295.36C291.51 293.97 291.51 293.2 291.51 293.04C291.51 290.37 293.14 289.29 293.32 288.88C294.53 287.88 296.19 287.38 298.3 287.38L310.4 287.38L310.36 291.14ZM325.14 293.99C325.14 295.13 325.75 295.53 325.81 295.7C326.27 296.08 326.94 296.26 327.81 296.26L329.63 296.26C330.09 298.98 330.35 300.49 330.4 300.79C329.86 301.07 329.01 301.22 328.86 301.26C327.86 301.47 327.02 301.55 326.81 301.59C325.77 301.7 325.23 301.69 325.05 301.7C322.01 301.7 320.72 300.28 320.24 300.12C319.06 299.06 318.47 297.58 318.47 295.67L318.47 269.43L325.19 269.43C325.16 284.17 325.14 292.36 325.14 293.99ZM340.01 293.99C340.01 295.13 340.62 295.53 340.68 295.7C341.14 296.08 341.81 296.26 342.68 296.26L344.5 296.26C344.96 298.98 345.22 300.49 345.27 300.79C344.73 301.07 343.88 301.22 343.73 301.26C342.73 301.47 341.89 301.55 341.68 301.59C340.64 301.7 340.1 301.69 339.92 301.7C336.88 301.7 335.59 300.28 335.11 300.12C333.93 299.06 333.34 297.58 333.34 295.67L333.34 269.43L340.06 269.43C340.03 284.17 340.01 292.36 340.01 293.99ZM366.91 280.11C369.39 282.02 369.14 285.26 369.39 285.84C369.43 288.92 368 289.98 367.84 290.44C366.79 291.45 364.96 291.96 362.36 291.96L349.84 291.96L349.84 288.19C356.24 288.19 359.79 288.19 360.5 288.19C362.04 288.19 362.27 287.6 362.47 287.53C362.91 286.88 362.86 285.88 362.91 285.7C362.86 284.12 362.06 283.72 361.97 283.5C361.08 282.89 359.3 282.95 359 282.89C357.15 282.89 356.39 283.34 356.11 283.39C355.06 283.89 354.79 285.1 354.65 285.29C354.24 286.7 354.28 288.96 354.24 289.37C354.24 292.18 354.69 293.27 354.74 293.7C355.24 295.22 356.27 295.6 356.44 295.82C357.65 296.4 359.44 296.34 359.77 296.4C361.31 296.4 363.22 296.3 363.61 296.28C365.13 296.21 366.67 296.08 368.21 295.9C368.59 298.37 368.8 299.75 368.84 300.02C367.52 300.66 366.14 300.92 365.84 301.02C364.17 301.39 362.74 301.49 362.4 301.54C360.64 301.7 359.34 301.69 359 301.7C354.74 301.7 352.82 300.59 352.14 300.46C349.53 299.21 348.75 297.01 348.38 296.63C347.22 294.04 347.34 290.67 347.22 290C347.22 285.61 348.28 283.72 348.4 283.02C349.57 280.44 351.73 279.69 352.11 279.32C353.8 278.56 356.02 278.18 358.77 278.18C363.65 279.34 366.37 279.98 366.91 280.11ZM380.44 293.99C380.44 295.13 381.05 295.53 381.12 295.7C381.58 296.08 382.25 296.26 383.12 296.26L384.93 296.26C385.4 298.98 385.65 300.49 385.7 300.79C385.16 301.07 384.32 301.22 384.16 301.26C383.16 301.47 382.33 301.55 382.12 301.59C381.08 301.7 380.54 301.69 380.36 301.7C377.32 301.7 376.03 300.28 375.55 300.12C374.37 299.06 373.78 297.58 373.78 295.67L373.78 269.43L380.5 269.43C380.47 284.17 380.45 292.36 380.44 293.99Z" id="bdBcNEDuH"></path><path d="M237.65 329.63C240.64 330.71 241.48 332.99 241.91 333.37C243.19 336.02 243.06 340.05 243.19 340.79C243.19 345.57 242.08 347.48 241.96 348.22C240.74 350.88 238.37 351.57 237.97 351.94C235.21 352.99 231.25 352.89 230.5 352.99C228 352.99 226.1 352.8 225.61 352.77C223.23 352.56 221.61 352.29 221.17 352.23C219.11 351.91 218 351.62 217.65 351.56C216.67 351.32 216 351.09 215.64 350.88C215.74 348.4 215.79 347.03 215.8 346.75C219 346.75 221.77 346.75 222.44 346.75C225.89 346.75 228.57 346.75 229.25 346.75C231.42 346.7 232.3 346.27 232.64 346.21C233.85 345.72 234.19 344.61 234.36 344.43C234.89 343.13 234.83 341.16 234.89 340.79C234.89 338.41 234.42 337.48 234.36 337.11C233.85 335.81 232.81 335.48 232.64 335.29C231.42 334.77 229.59 334.83 229.25 334.77C224.26 334.77 221.53 334.82 220.68 334.83C218.29 334.86 216.69 334.93 215.85 335.04C215.37 331.47 215.1 329.48 215.04 329.09C217.32 328.82 218.89 328.75 219.32 328.71C221.33 328.6 223.25 328.58 223.69 328.57C225.26 328.54 227.17 328.53 229.41 328.53C234.35 329.19 237.1 329.56 237.65 329.63ZM223.34 366.49L215.04 366.49L215.04 329.09L223.34 329.09L223.34 366.49Z" id="b3F7EnCUIb"></path><path d="M266.27 345.44C268.75 347.36 268.5 350.6 268.75 351.17C268.79 354.25 267.36 355.31 267.2 355.77C266.15 356.79 264.32 357.29 261.72 357.29L249.2 357.29L249.2 353.52C255.6 353.52 259.15 353.52 259.86 353.52C261.4 353.52 261.63 352.93 261.83 352.87C262.27 352.21 262.22 351.22 262.27 351.03C262.22 349.45 261.42 349.06 261.33 348.84C260.44 348.22 258.66 348.28 258.36 348.22C256.51 348.22 255.75 348.67 255.47 348.72C254.42 349.22 254.15 350.44 254.01 350.63C253.6 352.03 253.64 354.29 253.6 354.7C253.6 357.51 254.05 358.6 254.1 359.03C254.6 360.56 255.63 360.94 255.8 361.15C257.01 361.73 258.8 361.67 259.13 361.73C260.67 361.73 262.58 361.63 262.97 361.62C264.49 361.54 266.03 361.41 267.57 361.23C267.95 363.71 268.16 365.08 268.2 365.36C266.88 365.99 265.5 366.26 265.2 366.36C263.53 366.72 262.1 366.83 261.76 366.88C260 367.03 258.7 367.02 258.36 367.03C254.1 367.03 252.18 365.92 251.5 365.79C248.89 364.54 248.11 362.34 247.74 361.96C246.58 359.38 246.7 356 246.58 355.34C246.58 350.94 247.64 349.06 247.76 348.36C248.93 345.77 251.09 345.02 251.47 344.65C253.16 343.89 255.38 343.51 258.13 343.51C263.01 344.67 265.73 345.31 266.27 345.44ZM279.17 348.54L279.8 349.13L279.8 366.49L273.1 366.49L273.1 344.1L278.36 344.1L279.17 348.54ZM288.65 349.72C287.53 349.72 286.91 349.72 286.78 349.72C285.2 349.72 283.8 350.13 283.47 350.18C282.32 350.48 280.88 350.93 279.13 351.53C278.85 349.28 278.7 348.02 278.67 347.77C281.03 345.68 282.95 344.91 283.43 344.6C285.03 343.87 286.59 343.51 288.11 343.51L289.28 343.51L288.65 349.72ZM325.45 345.1C326.52 346.15 327.05 347.69 327.05 349.72L327.05 366.49L320.38 366.49C320.38 357.68 320.38 352.78 320.38 351.81C320.38 350.4 319.89 350 319.84 349.79C319.3 349.18 318.12 349.24 317.93 349.18C317.12 349.18 316.54 349.39 316.39 349.41C315.66 349.63 314.88 350.06 314.71 350.13C314.08 350.46 313.31 350.91 312.4 351.48C312.18 349.26 312.06 348.02 312.04 347.77C314.21 345.64 315.89 344.9 316.32 344.58C317.73 343.87 319.23 343.51 320.83 343.51C323.6 344.46 325.14 344.99 325.45 345.1ZM298.48 348.54L299.16 349.13L299.16 366.49L292.45 366.49L292.45 344.1L297.81 344.1L298.48 348.54ZM311.42 345.08C312.47 346.12 312.99 347.67 312.99 349.72L312.99 366.49L306.56 366.49C306.56 357.68 306.56 352.78 306.56 351.81C306.56 350.36 306 349.98 305.94 349.77C305.33 349.18 304.25 349.24 304.06 349.18C303.29 349.18 302.69 349.37 302.54 349.39C301.8 349.59 300.99 350.02 300.82 350.09C300.16 350.41 299.37 350.88 298.44 351.48C298.19 349.26 298.05 348.02 298.03 347.77C300.26 345.64 301.91 344.9 302.34 344.58C303.73 343.87 305.24 343.51 306.87 343.51C309.6 344.45 311.12 344.97 311.42 345.08ZM338.96 358.84C338.96 360.23 339.52 360.63 339.58 360.83C340.19 361.42 341.35 361.36 341.55 361.42C342.95 361.42 344.06 360.95 344.34 360.9C345.26 360.54 346.4 359.99 347.76 359.24C348.09 361.44 348.27 362.66 348.31 362.91C345.86 365.04 343.98 365.77 343.5 366.09C341.14 367.13 339.14 367.02 338.65 367.13C334.39 367.13 332.26 365.04 332.26 360.87L332.26 344.1L338.96 344.1C338.96 352.94 338.96 357.85 338.96 358.84ZM353.79 366.49L348.49 366.49L347.71 362.1L347.08 361.46L347.08 344.1L353.79 344.1L353.79 366.49ZM368.02 359.33C368.02 360.56 368.53 360.9 368.59 361.08C368.97 361.42 369.6 361.6 370.47 361.6L373.38 361.6C373.81 364.32 374.05 365.83 374.1 366.13C373.28 366.4 372.31 366.55 372.11 366.6C370.93 366.81 369.98 366.89 369.74 366.92C368.57 367.03 367.95 367.02 367.75 367.03C364.71 367.03 363.49 365.57 363.01 365.41C361.88 364.32 361.32 362.79 361.32 360.83L361.27 337.89L368.02 337.89C368.02 350.75 368.02 357.9 368.02 359.33ZM374.28 348.49L357.37 348.49L357.37 344.33L361.72 344.1L374.28 344.1L374.28 348.49ZM394.46 344.26C396.4 345 397.13 346.54 397.42 346.79C398.1 347.99 398.44 349.63 398.44 351.71L398.44 366.49L393.09 366.49L392.14 361.64L391.68 360.96C391.68 355.39 391.68 352.29 391.68 351.67C391.68 350.09 391.01 349.59 390.93 349.36C390.19 348.63 388.39 348.7 388.11 348.63C386.38 348.63 384.23 348.73 383.8 348.74C382.08 348.82 380.31 348.92 378.5 349.03C378.12 346.37 377.9 344.89 377.86 344.6C379.5 344.28 381.25 344.11 381.62 344.06C383.76 343.83 385.46 343.71 385.88 343.67C387.31 343.57 388.58 343.51 389.69 343.51C392.55 343.96 394.14 344.21 394.46 344.26ZM395.63 356.47C389.65 356.5 386.33 356.52 385.66 356.52C384.43 356.52 384.09 357.06 383.91 357.12C383.57 357.51 383.39 358.03 383.39 358.69C383.39 359.35 383.39 359.71 383.39 359.78C383.39 360.92 383.96 361.36 384.03 361.53C384.66 362.14 385.87 362.08 386.07 362.14C387.25 362.14 388.37 361.69 388.62 361.64C390.01 361.14 391.1 360.37 391.37 360.23C392.28 359.63 393.08 358.92 393.78 358.11C393.78 359.84 393.78 360.81 393.78 361C393.37 361.69 392.69 362.54 392.57 362.71C391.78 363.73 390.75 364.51 390.55 364.71C389.33 365.68 387.98 366.19 387.69 366.36C386.07 367.03 384.36 366.97 383.99 367.03C381.94 367.03 380.68 366.39 380.31 366.32C378.67 365.59 377.98 364.39 377.73 364.18C377.09 363.24 376.78 362.08 376.78 360.69C376.78 359.3 376.78 358.53 376.78 358.38C376.78 355.7 378.41 354.63 378.59 354.21C379.8 353.21 381.46 352.71 383.57 352.71L395.67 352.71L395.63 356.47ZM412.45 359.33C412.45 360.56 412.96 360.9 413.01 361.08C413.4 361.42 414.02 361.6 414.9 361.6L417.81 361.6C418.24 364.32 418.48 365.83 418.52 366.13C417.71 366.4 416.73 366.55 416.53 366.6C415.36 366.81 414.41 366.89 414.17 366.92C412.99 367.03 412.38 367.02 412.18 367.03C409.14 367.03 407.91 365.57 407.44 365.41C406.31 364.32 405.74 362.79 405.74 360.83L405.7 337.89L412.45 337.89C412.45 350.75 412.45 357.9 412.45 359.33ZM418.71 348.49L401.8 348.49L401.8 344.33L406.15 344.1L418.71 344.1L418.71 348.49ZM429.13 366.49L422.48 366.49L422.48 344.1L429.13 344.1L429.13 366.49ZM429.27 336.25C429.27 337.7 429.27 338.5 429.27 338.66C429.27 340.02 428.6 340.7 427.28 340.7C425.53 340.7 424.57 340.7 424.37 340.7C423.04 340.7 422.38 340.02 422.38 338.66C422.38 337.22 422.38 336.41 422.38 336.25C422.38 334.89 423.04 334.21 424.37 334.21L427.28 334.21L429.27 336.25ZM452.21 344.67C454.75 345.82 455.49 348.04 455.85 348.41C456.97 350.99 456.86 354.64 456.97 355.34C456.97 359.6 455.96 361.51 455.85 362.19C454.75 364.77 452.57 365.54 452.21 365.91C449.68 367.03 446.13 366.92 445.46 367.03C441.28 367.03 439.39 366.02 438.72 365.91C436.16 364.77 435.4 362.56 435.03 362.19C433.89 359.6 434.01 356.02 433.89 355.34C433.89 350.99 434.92 349.1 435.03 348.41C436.16 345.82 438.35 345.04 438.72 344.67C440.43 343.9 442.67 343.51 445.46 343.51C449.51 344.21 451.76 344.59 452.21 344.67ZM442.73 349C441.74 349.59 441.47 350.88 441.33 351.09C440.93 352.58 440.97 354.91 440.93 355.34C440.93 358.07 441.29 359.14 441.33 359.57C441.74 361.06 442.59 361.42 442.73 361.63C443.73 362.19 445.18 362.13 445.46 362.19C447.18 362.19 447.9 361.68 448.18 361.63C449.18 361.06 449.44 359.77 449.58 359.57C449.99 358.07 449.95 355.76 449.99 355.34C449.99 352.58 449.62 351.51 449.58 351.09C449.18 349.59 448.32 349.21 448.18 349C447.51 348.61 446.6 348.41 445.46 348.41C443.82 348.77 442.91 348.96 442.73 349ZM483.48 349.72L483.48 366.49L476.78 366.49C476.78 357.68 476.78 352.78 476.78 351.81C476.78 350.31 476.29 349.95 476.23 349.74C475.69 349.18 474.57 349.24 474.38 349.18C472.92 349.18 471.68 349.69 471.38 349.74C470.36 350.12 469.09 350.7 467.58 351.48C467.38 349.23 467.28 347.97 467.26 347.72C469.66 345.68 471.68 344.91 472.17 344.6C473.85 343.87 475.51 343.51 477.14 343.51L483.48 349.72ZM467.71 348.54L468.26 349.13L468.26 366.49L461.55 366.49L461.55 344.1L466.94 344.1L467.71 348.54ZM500.85 343.63C502.76 343.73 504.2 343.89 504.57 343.92C505.78 344.04 506.85 344.19 507.79 344.37C507.52 346.87 507.36 348.27 507.33 348.54C505.16 348.49 503.4 348.48 502.96 348.47C500.76 348.45 499.11 348.45 498.68 348.45C496.91 348.41 496.22 348.5 495.95 348.5C495 348.59 494.75 348.89 494.61 348.93C494.23 349.26 494.27 350.01 494.23 350.13C494.23 351.13 494.84 351.34 494.91 351.47C495.36 351.69 496.12 351.94 497.18 352.21C500.69 353.06 502.64 353.52 503.03 353.62C505.83 354.35 506.78 355.56 507.2 355.77C508.56 357.2 508.43 359.63 508.56 360.06C508.56 362.87 507.62 363.94 507.51 364.37C506.47 365.86 504.53 366.22 504.2 366.43C501.94 366.99 498.94 366.94 498.35 366.99C496.95 366.99 494.6 366.87 494.19 366.86C492.35 366.77 490.32 366.54 488.11 366.18C488.38 363.67 488.53 362.28 488.56 362C489.39 362.06 490.44 362.07 490.65 362.08C491.92 362.1 493.14 362.09 493.42 362.1C494.92 362.1 496.11 362.1 496.41 362.1C498.72 362.1 499.58 361.99 499.94 361.98C501.17 361.87 501.45 361.51 501.61 361.46C502.07 361.06 502.03 360.36 502.07 360.23C502.07 359.24 501.38 359.01 501.3 358.88C500.79 358.63 499.97 358.38 498.85 358.11C495.45 357.26 493.57 356.79 493.19 356.7C491.06 356.11 490.21 355.35 489.88 355.2C488.7 354.29 488.38 353.2 488.22 352.98C487.75 351.67 487.8 350.17 487.75 349.86C487.75 347.54 488.58 346.53 488.68 346.16C489.6 344.77 491.41 344.35 491.71 344.15C493.12 343.73 494.99 343.51 497.31 343.51C499.44 343.58 500.62 343.62 500.85 343.63ZM521.61 359.33C521.61 360.56 522.12 360.9 522.18 361.08C522.56 361.42 523.19 361.6 524.06 361.6L526.97 361.6C527.4 364.32 527.64 365.83 527.69 366.13C526.87 366.4 525.9 366.55 525.7 366.6C524.52 366.81 523.57 366.89 523.33 366.92C522.16 367.03 521.54 367.02 521.34 367.03C518.3 367.03 517.08 365.57 516.6 365.41C515.47 364.32 514.91 362.79 514.91 360.83L514.86 337.89L521.61 337.89C521.61 350.75 521.61 357.9 521.61 359.33ZM527.87 348.49L510.96 348.49L510.96 344.33L515.31 344.1L527.87 344.1L527.87 348.49ZM550.19 345.44C552.67 347.36 552.42 350.6 552.67 351.17C552.71 354.25 551.28 355.31 551.13 355.77C550.07 356.79 548.24 357.29 545.64 357.29L533.13 357.29L533.13 353.52C539.52 353.52 543.07 353.52 543.78 353.52C545.33 353.52 545.56 352.93 545.75 352.87C546.19 352.21 546.15 351.22 546.19 351.03C546.14 349.45 545.35 349.06 545.25 348.84C544.37 348.22 542.58 348.28 542.28 348.22C540.43 348.22 539.68 348.67 539.39 348.72C538.35 349.22 538.08 350.44 537.93 350.63C537.52 352.03 537.56 354.29 537.52 354.7C537.52 357.51 537.97 358.6 538.02 359.03C538.52 360.56 539.55 360.94 539.72 361.15C540.93 361.73 542.72 361.67 543.05 361.73C544.6 361.73 546.5 361.63 546.89 361.62C548.42 361.54 549.95 361.41 551.49 361.23C551.87 363.71 552.09 365.08 552.13 365.36C550.8 365.99 549.43 366.26 549.13 366.36C547.45 366.72 546.02 366.83 545.68 366.88C543.92 367.03 542.62 367.02 542.28 367.03C538.02 367.03 536.11 365.92 535.42 365.79C532.82 364.54 532.04 362.34 531.66 361.96C530.5 359.38 530.62 356 530.5 355.34C530.5 350.94 531.56 349.06 531.68 348.36C532.86 345.77 535.02 345.02 535.39 344.65C537.08 343.89 539.3 343.51 542.05 343.51C546.94 344.67 549.65 345.31 550.19 345.44ZM569.08 343.63C570.99 343.73 572.43 343.89 572.8 343.92C574.01 344.04 575.08 344.19 576.02 344.37C575.74 346.87 575.59 348.27 575.56 348.54C573.38 348.49 571.62 348.48 571.19 348.47C568.99 348.45 567.33 348.45 566.9 348.45C565.13 348.41 564.45 348.5 564.18 348.5C563.23 348.59 562.98 348.89 562.84 348.93C562.46 349.26 562.49 350.01 562.46 350.13C562.46 351.13 563.07 351.34 563.13 351.47C563.59 351.69 564.35 351.94 565.4 352.21C568.92 353.06 570.87 353.52 571.26 353.62C574.06 354.35 575.01 355.56 575.43 355.77C576.79 357.2 576.65 359.63 576.79 360.06C576.79 362.87 575.84 363.94 575.74 364.37C574.7 365.86 572.76 366.22 572.43 366.43C570.16 366.99 567.17 366.94 566.58 366.99C565.18 366.99 562.83 366.87 562.41 366.86C560.57 366.77 558.55 366.54 556.34 366.18C556.61 363.67 556.76 362.28 556.79 362C557.61 362.06 558.66 362.07 558.87 362.08C560.14 362.1 561.37 362.09 561.64 362.1C563.14 362.1 564.33 362.1 564.63 362.1C566.95 362.1 567.81 361.99 568.16 361.98C569.39 361.87 569.67 361.51 569.84 361.46C570.3 361.06 570.25 360.36 570.3 360.23C570.3 359.24 569.61 359.01 569.53 358.88C569.02 358.63 568.2 358.38 567.08 358.11C563.68 357.26 561.79 356.79 561.41 356.7C559.29 356.11 558.43 355.35 558.1 355.2C556.93 354.29 556.61 353.2 556.45 352.98C555.98 351.67 556.02 350.17 555.98 349.86C555.98 347.54 556.81 346.53 556.9 346.16C557.83 344.77 559.63 344.35 559.94 344.15C561.35 343.73 563.21 343.51 565.54 343.51C567.66 343.58 568.85 343.62 569.08 343.63ZM589.84 359.33C589.84 360.56 590.35 360.9 590.4 361.08C590.79 361.42 591.41 361.6 592.29 361.6L595.2 361.6C595.63 364.32 595.87 365.83 595.91 366.13C595.1 366.4 594.12 366.55 593.92 366.6C592.75 366.81 591.8 366.89 591.56 366.92C590.38 367.03 589.77 367.02 589.57 367.03C586.53 367.03 585.3 365.57 584.83 365.41C583.7 364.32 583.13 362.79 583.13 360.83L583.09 337.89L589.84 337.89C589.84 350.75 589.84 357.9 589.84 359.33ZM596.1 348.49L579.18 348.49L579.18 344.33L583.54 344.1L596.1 344.1L596.1 348.49Z" id="a5Jc6aYyDg"></path><path d="M35.53 361.43C38.67 353.03 48.71 323.68 54.39 311.07C60.06 298.46 63.64 288.28 69.56 285.77C75.48 283.25 86.52 294.28 89.91 295.99" id="jpUvWLE4p"></path><path d="M35.53 361.43C38.67 353.03 48.71 323.68 54.39 311.07C60.06 298.46 63.64 288.28 69.56 285.77C75.48 283.25 86.52 294.28 89.91 295.99" id="d1ammZtlf8"></path><path d="M142.14 278.11C143.63 278.45 147.31 276.29 151.1 280.11C154.9 283.93 157.35 287.13 164.9 301.05C172.45 314.97 191.15 353.19 196.4 363.62" id="bIq8lgI8q"></path><path d="M142.14 278.11C143.63 278.45 147.31 276.29 151.1 280.11C154.9 283.93 157.35 287.13 164.9 301.05C172.45 314.97 191.15 353.19 196.4 363.62" id="a2mThRNoY"></path><path d="M81.64 338C82.21 338 82.69 338.41 82.69 338.9C82.69 340.72 82.69 355.27 82.69 357.09C82.69 357.58 82.21 357.99 81.64 357.99C79.51 357.99 62.45 357.99 60.32 357.99C59.65 357.99 59.27 357.58 59.27 357.09C59.27 355.27 59.27 340.72 59.27 338.9C59.27 338.41 59.65 338 60.32 338C64.58 338 77.37 338 81.64 338ZM61.19 333.27C61.19 333.46 61.19 334.38 61.19 336.05C60.5 336.05 60.11 336.05 60.03 336.05C58.31 336.05 56.87 337.27 56.87 338.82C56.87 338.88 56.87 339.18 56.87 339.72C54.91 339.72 53.82 339.72 53.6 339.72C53.03 339.72 52.55 340.13 52.55 340.61C52.55 341.1 53.03 341.51 53.6 341.51C53.82 341.51 54.91 341.51 56.87 341.51L56.87 343.39C54.91 343.39 53.82 343.39 53.6 343.39C53.03 343.39 52.55 343.8 52.55 344.29C52.55 344.86 53.03 345.27 53.6 345.27C53.82 345.27 54.91 345.27 56.87 345.27L56.87 347.06C54.91 347.06 53.82 347.06 53.6 347.06C53.03 347.06 52.55 347.47 52.55 347.96C52.55 348.53 53.03 348.93 53.6 348.93C53.82 348.93 54.91 348.93 56.87 348.93L56.87 350.73C54.91 350.73 53.82 350.73 53.6 350.73C53.03 350.73 52.55 351.14 52.55 351.63C52.55 352.2 53.03 352.61 53.6 352.61C53.82 352.61 54.91 352.61 56.87 352.61L56.87 354.4C54.91 354.4 53.82 354.4 53.6 354.4C53.03 354.4 52.55 354.81 52.55 355.3C52.55 355.87 53.03 356.28 53.6 356.28C53.82 356.28 54.91 356.28 56.87 356.28C56.87 356.82 56.87 357.11 56.87 357.17C56.87 358.73 58.31 359.95 60.03 359.95C60.11 359.95 60.5 359.95 61.19 359.95C61.19 361.56 61.19 362.46 61.19 362.64C61.19 363.21 61.67 363.62 62.24 363.62C62.82 363.62 63.3 363.21 63.3 362.64C63.3 362.45 63.3 361.47 63.3 359.7L65.51 359.7C65.51 361.37 65.51 362.29 65.51 362.48C65.51 362.97 65.99 363.38 66.56 363.38C67.14 363.38 67.62 362.97 67.62 362.48C67.62 362.29 67.62 361.37 67.62 359.7L69.83 359.7C69.83 361.37 69.83 362.29 69.83 362.48C69.83 362.97 70.31 363.38 70.88 363.38C71.46 363.38 71.94 362.97 71.94 362.48C71.94 362.29 71.94 361.37 71.94 359.7L74.15 359.7C74.15 361.37 74.15 362.29 74.15 362.48C74.15 362.97 74.63 363.38 75.2 363.38C75.78 363.38 76.26 362.97 76.26 362.48C76.26 362.29 76.26 361.37 76.26 359.7L78.47 359.7C78.47 361.37 78.47 362.29 78.47 362.48C78.47 362.97 78.95 363.38 79.52 363.38C80.1 363.38 80.58 362.97 80.58 362.48C80.58 362.29 80.58 361.37 80.58 359.7C81.21 359.7 81.57 359.7 81.64 359.7C83.46 359.7 84.9 358.48 84.9 356.93C84.9 356.87 84.9 356.57 84.9 356.03C86.86 356.03 87.95 356.03 88.16 356.03C88.74 356.03 89.22 355.63 89.22 355.14C89.22 354.65 88.74 354.24 88.16 354.24C87.95 354.24 86.86 354.24 84.9 354.24L84.9 352.36C86.86 352.36 87.95 352.36 88.16 352.36C88.74 352.36 89.22 351.95 89.22 351.46C89.22 350.89 88.74 350.49 88.16 350.49C87.95 350.49 86.86 350.49 84.9 350.49L84.9 348.69C86.86 348.69 87.95 348.69 88.16 348.69C88.74 348.69 89.22 348.28 89.22 347.79C89.22 347.22 88.74 346.81 88.16 346.81C87.95 346.81 86.86 346.81 84.9 346.81L84.9 345.02L88.16 345.02C88.16 345.17 88.16 345.25 88.16 345.27C88.74 345.27 89.22 344.86 89.22 344.29C89.22 343.8 88.74 343.39 88.16 343.39C87.95 343.39 86.86 343.39 84.9 343.39L84.9 341.51C86.86 341.51 87.95 341.51 88.16 341.51C88.74 341.51 89.22 341.1 89.22 340.61C89.22 340.13 88.74 339.72 88.16 339.72C87.95 339.72 86.86 339.72 84.9 339.72C84.9 339.18 84.9 338.88 84.9 338.82C84.9 337.27 83.46 336.05 81.64 336.05C81.57 336.05 81.21 336.05 80.58 336.05C80.58 334.38 80.58 333.46 80.58 333.27C80.58 332.78 80.1 332.37 79.52 332.37C78.95 332.37 78.47 332.78 78.47 333.27C78.47 333.46 78.47 334.38 78.47 336.05L76.26 336.05C76.26 334.38 76.26 333.46 76.26 333.27C76.26 332.78 75.78 332.37 75.2 332.37C74.63 332.37 74.15 332.78 74.15 333.27C74.15 333.46 74.15 334.38 74.15 336.05L71.94 336.05C71.94 334.38 71.94 333.46 71.94 333.27C71.94 332.78 71.46 332.37 70.88 332.37C70.31 332.37 69.83 332.78 69.83 333.27C69.83 333.46 69.83 334.38 69.83 336.05L67.62 336.05C67.62 334.38 67.62 333.46 67.62 333.27C67.62 332.78 67.14 332.37 66.56 332.37C65.99 332.37 65.51 332.78 65.51 333.27C65.51 333.46 65.51 334.38 65.51 336.05L63.3 336.05C63.3 334.38 63.3 333.46 63.3 333.27C63.3 332.78 62.82 332.37 62.24 332.37C61.67 332.37 61.19 332.78 61.19 333.27Z" id="aeHNi0jaa"></path><path d="M61.38 340.61C61.38 341.18 61.86 341.59 62.44 341.59C63.01 341.59 63.49 341.18 63.49 340.61C63.49 340.13 63.01 339.72 62.44 339.72C61.86 339.72 61.38 340.13 61.38 340.61Z" id="a25OXVsmS3"></path><path d="M61.38 355.22C61.38 355.71 61.86 356.12 62.44 356.12C63.01 356.12 63.49 355.71 63.49 355.22C63.49 354.73 63.01 354.32 62.44 354.32C61.86 354.32 61.38 354.73 61.38 355.22Z" id="eleluDdtq"></path><path d="M78.56 355.22C78.56 355.71 79.04 356.12 79.62 356.12C80.2 356.12 80.68 355.71 80.68 355.22C80.68 354.73 80.2 354.32 79.62 354.32C79.04 354.32 78.56 354.73 78.56 355.22Z" id="blmu3jff7"></path><path d="M78.56 340.61C78.56 341.1 79.04 341.59 79.62 341.59C80.2 341.59 80.68 341.1 80.68 340.61C80.68 340.13 80.2 339.72 79.62 339.72C79.04 339.72 78.56 340.13 78.56 340.61Z" id="fzqspz3mK"></path><path d="M72.03 342.57C72.03 342.77 72.03 342.88 72.03 342.9C72.03 343.31 72.32 343.63 72.8 343.71C73.38 343.88 73.95 344.2 74.44 344.53C74.68 344.63 74.96 344.74 75.23 344.74C75.39 344.74 75.54 344.7 75.68 344.61C75.71 344.6 75.84 344.55 76.07 344.45L77.12 345.92C76.89 346.06 76.77 346.15 76.74 346.16C76.36 346.32 76.16 346.73 76.26 347.06C76.36 347.63 76.36 348.12 76.26 348.69C76.16 349.1 76.36 349.42 76.74 349.59C76.77 349.6 76.89 349.69 77.12 349.83L76.07 351.3C75.84 351.2 75.71 351.15 75.68 351.14C75.51 351.07 75.32 351.02 75.12 351.02C74.89 351.02 74.65 351.08 74.44 351.22C73.95 351.63 73.38 351.87 72.8 352.04C72.32 352.2 72.03 352.61 72.03 352.85C72.03 352.87 72.03 352.98 72.03 353.18L69.92 353.18C69.92 352.98 69.92 352.87 69.92 352.85C69.92 352.44 69.63 352.2 69.16 352.04C68.58 351.87 68 351.55 67.52 351.22C67.28 351.12 67 351.01 66.73 351.01C66.57 351.01 66.42 351.05 66.28 351.14C66.25 351.15 66.12 351.2 65.89 351.3L64.83 349.83C65.06 349.69 65.19 349.6 65.22 349.59C65.6 349.42 65.79 349.02 65.7 348.69C65.6 348.12 65.6 347.63 65.7 347.06C65.79 346.65 65.6 346.32 65.22 346.16C65.19 346.15 65.06 346.06 64.83 345.92L65.89 344.45C66.12 344.55 66.25 344.6 66.28 344.61C66.45 344.73 66.65 344.79 66.85 344.79C67.08 344.79 67.32 344.71 67.52 344.53C68 344.12 68.58 343.88 69.16 343.71C69.63 343.63 69.92 343.22 69.92 342.9C69.92 342.88 69.92 342.77 69.92 342.57L72.03 342.57ZM68.96 340.61C68.29 340.61 67.81 341.02 67.81 341.51C67.81 341.58 67.81 342.1 67.81 342.16C67.52 342.25 67.14 342.49 66.85 342.66C66.79 342.62 66.33 342.36 66.28 342.33C66.12 342.28 65.95 342.25 65.78 342.25C65.41 342.25 65.03 342.38 64.83 342.66C64.62 342.97 62.93 345.52 62.72 345.83C62.44 346.24 62.53 346.81 63.01 347.06C63.06 347.08 63.28 347.19 63.68 347.39L63.68 348.36C63.28 348.56 63.06 348.67 63.01 348.69C62.63 348.85 62.34 349.51 62.72 349.91C62.93 350.23 64.62 352.78 64.83 353.1C65.02 353.35 65.35 353.52 65.7 353.52C65.9 353.52 66.1 353.46 66.28 353.34C66.33 353.32 66.79 353.12 66.85 353.1C67.24 353.26 67.62 353.51 67.81 353.59C67.81 353.64 67.81 354.1 67.81 354.16C67.81 354.73 68.29 355.14 68.96 355.14C69.4 355.14 72.85 355.14 73.28 355.14C73.86 355.14 74.34 354.73 74.34 354.16C74.34 354.1 74.34 353.64 74.34 353.59C74.72 353.51 75.01 353.26 75.3 353.1C75.36 353.12 75.82 353.32 75.87 353.34C76.05 353.43 76.28 353.48 76.49 353.48C76.85 353.48 77.19 353.35 77.32 353.1C77.54 352.78 79.3 350.23 79.52 349.91C79.71 349.51 79.62 349.02 79.14 348.69C79.1 348.67 78.91 348.56 78.56 348.36L78.56 347.39C78.91 347.19 79.1 347.08 79.14 347.06C79.62 346.81 79.81 346.24 79.52 345.83C79.3 345.52 77.54 342.97 77.32 342.66C77.18 342.38 76.79 342.21 76.4 342.21C76.21 342.21 76.03 342.25 75.87 342.33C75.82 342.36 75.36 342.62 75.3 342.66C74.91 342.49 74.53 342.25 74.34 342.16C74.34 342.1 74.34 341.58 74.34 341.51C74.34 341.02 73.86 340.61 73.28 340.61C72.42 340.61 69.83 340.61 68.96 340.61Z" id="c2Io7PsiZ"></path><path d="M72.03 347.88C72.03 348.36 71.56 348.77 70.98 348.77C70.4 348.77 69.92 348.36 69.92 347.88C69.92 347.39 70.4 346.98 70.98 346.98C71.56 346.98 72.03 347.39 72.03 347.88ZM67.71 347.96C67.71 349.51 69.16 350.73 70.98 350.73C72.8 350.73 74.24 349.51 74.24 347.96C74.24 346.49 72.8 345.27 70.98 345.27C69.16 345.27 67.71 346.49 67.71 347.96Z" id="dxIOvuxAe"></path><path d="M89.22 295.52C94.5 299.63 113.05 322.09 120.91 320.18C128.78 318.27 132.44 291.6 136.41 284.07C140.38 276.53 143.35 276.49 144.74 274.98" id="c3qhM3NmX5"></path><path d="M89.22 295.52C94.5 299.63 113.05 322.09 120.91 320.18C128.78 318.27 132.44 291.6 136.41 284.07C140.38 276.53 143.35 276.49 144.74 274.98" id="a9PpmehS"></path><path d="M188.41 265.84L188.41 268.79L185.81 268.79L185.81 265.84L188.41 265.84ZM171.59 269.13C172.22 269.55 172.22 270.31 171.7 270.73C171.44 270.94 171.08 271.05 170.71 271.05C170.35 271.05 169.99 270.94 169.73 270.73C169.21 270.31 169.21 269.55 169.73 269.13C170.04 268.88 170.46 268.79 170.66 268.79C170.97 268.79 171.29 268.88 171.59 269.13ZM204.8 269.97C204.8 270.56 204.18 271.15 203.45 271.15C202.83 271.15 202.11 270.56 202.11 269.97C202.11 269.3 202.73 268.79 203.45 268.79C204.28 268.79 204.8 269.3 204.8 269.97ZM202.11 283.21C202.11 289.96 195.36 295.44 187.16 295.44C178.96 295.44 172.22 289.96 172.22 283.21C172.22 276.47 178.96 270.98 187.16 270.98C195.36 270.98 202.11 276.47 202.11 283.21ZM181.87 263.56C181.04 263.56 180.52 264.07 180.52 264.66C180.52 265.33 181.25 265.84 181.87 265.84C181.97 265.84 182.45 265.84 183.32 265.84C183.32 267.86 183.32 268.99 183.32 269.21C180.52 269.72 177.93 270.82 175.85 272.25C175.74 272.16 174.82 271.41 174.71 271.32C175.54 270.06 175.23 268.62 173.98 267.53C173.2 266.9 172.16 266.58 171.1 266.58C170.04 266.58 168.95 266.9 168.07 267.53C166.51 268.79 166.51 270.9 168.07 272.25C168.9 272.93 169.93 273.26 170.97 273.26C171.59 273.26 172.12 273.09 172.74 272.93C172.86 273.02 173.86 273.76 173.98 273.85C171.39 276.38 169.63 279.67 169.63 283.21C169.63 291.14 177.61 297.55 187.26 297.55C197.02 297.55 204.91 291.14 204.91 283.21C204.91 279.67 203.35 276.38 200.65 273.85C200.77 273.76 201.68 273.02 201.79 272.93C202.21 273.09 202.83 273.26 203.45 273.26C205.74 273.26 207.5 271.74 207.5 269.89C207.5 268.03 205.74 266.6 203.45 266.6C201.28 266.6 199.51 268.03 199.51 269.89C199.51 270.39 199.61 270.82 199.82 271.32C199.71 271.41 198.8 272.16 198.68 272.25C196.61 270.82 194.01 269.72 191.31 269.21C191.31 268.99 191.31 267.86 191.31 265.84C192.18 265.84 192.67 265.84 192.77 265.84C193.49 265.84 194.01 265.33 194.01 264.66C194.01 264.07 193.39 263.56 192.77 263.56C190.59 263.56 184.05 263.56 181.87 263.56Z" id="b1C1kQYbgk"></path><path d="M185.71 283.21C185.71 283.89 186.33 284.39 187.06 284.39C188.01 284.39 195.64 284.39 196.59 284.39C195.92 288.14 191.9 290.97 187.16 290.97C181.87 290.97 177.51 287.43 177.51 283.21C177.51 279.33 181.04 276.04 185.71 275.54C185.71 275.54 185.71 282.44 185.71 283.21ZM174.81 283.21C174.81 288.69 180.31 293.16 187.16 293.16C193.91 293.16 199.51 288.69 199.51 283.21C199.51 282.62 198.78 282.12 198.06 282.12C197.42 282.12 194.2 282.12 188.41 282.12C188.41 277.46 188.41 274.87 188.41 274.36C188.41 273.77 187.78 273.35 187.16 273.35C180.42 273.35 174.81 277.73 174.81 283.21Z" id="f4F2mlybyD"></path><path d="M126.6 338C127.18 338 127.66 338.41 127.66 338.9C127.66 340.72 127.66 355.27 127.66 357.09C127.66 357.58 127.18 357.99 126.6 357.99C124.47 357.99 107.42 357.99 105.29 357.99C104.61 357.99 104.23 357.58 104.23 357.09C104.23 355.27 104.23 340.72 104.23 338.9C104.23 338.41 104.61 338 105.29 338C109.55 338 122.34 338 126.6 338ZM106.15 333.27C106.15 333.46 106.15 334.38 106.15 336.05C105.46 336.05 105.08 336.05 105 336.05C103.27 336.05 101.83 337.27 101.83 338.82C101.83 338.88 101.83 339.18 101.83 339.72C99.87 339.72 98.78 339.72 98.57 339.72C97.99 339.72 97.51 340.13 97.51 340.61C97.51 341.1 97.99 341.51 98.57 341.51C98.78 341.51 99.87 341.51 101.83 341.51L101.83 343.39C99.87 343.39 98.78 343.39 98.57 343.39C97.99 343.39 97.51 343.8 97.51 344.29C97.51 344.86 97.99 345.27 98.57 345.27C98.78 345.27 99.87 345.27 101.83 345.27L101.83 347.06C99.87 347.06 98.78 347.06 98.57 347.06C97.99 347.06 97.51 347.47 97.51 347.96C97.51 348.53 97.99 348.93 98.57 348.93C98.78 348.93 99.87 348.93 101.83 348.93L101.83 350.73C99.87 350.73 98.78 350.73 98.57 350.73C97.99 350.73 97.51 351.14 97.51 351.63C97.51 352.2 97.99 352.61 98.57 352.61C98.78 352.61 99.87 352.61 101.83 352.61L101.83 354.4C99.87 354.4 98.78 354.4 98.57 354.4C97.99 354.4 97.51 354.81 97.51 355.3C97.51 355.87 97.99 356.28 98.57 356.28C98.78 356.28 99.87 356.28 101.83 356.28C101.83 356.82 101.83 357.11 101.83 357.17C101.83 358.73 103.27 359.95 105 359.95C105.08 359.95 105.46 359.95 106.15 359.95C106.15 361.56 106.15 362.46 106.15 362.64C106.15 363.21 106.63 363.62 107.21 363.62C107.78 363.62 108.26 363.21 108.26 362.64C108.26 362.45 108.26 361.47 108.26 359.7L110.47 359.7C110.47 361.37 110.47 362.29 110.47 362.48C110.47 362.97 110.95 363.38 111.53 363.38C112.1 363.38 112.58 362.97 112.58 362.48C112.58 362.29 112.58 361.37 112.58 359.7L114.79 359.7C114.79 361.37 114.79 362.29 114.79 362.48C114.79 362.97 115.27 363.38 115.85 363.38C116.42 363.38 116.9 362.97 116.9 362.48C116.9 362.29 116.9 361.37 116.9 359.7L119.11 359.7C119.11 361.37 119.11 362.29 119.11 362.48C119.11 362.97 119.59 363.38 120.17 363.38C120.74 363.38 121.22 362.97 121.22 362.48C121.22 362.29 121.22 361.37 121.22 359.7L123.43 359.7C123.43 361.37 123.43 362.29 123.43 362.48C123.43 362.97 123.91 363.38 124.49 363.38C125.06 363.38 125.54 362.97 125.54 362.48C125.54 362.29 125.54 361.37 125.54 359.7C126.18 359.7 126.53 359.7 126.6 359.7C128.42 359.7 129.86 358.48 129.86 356.93C129.86 356.87 129.86 356.57 129.86 356.03C131.82 356.03 132.91 356.03 133.13 356.03C133.7 356.03 134.18 355.63 134.18 355.14C134.18 354.65 133.7 354.24 133.13 354.24C132.91 354.24 131.82 354.24 129.86 354.24L129.86 352.36C131.82 352.36 132.91 352.36 133.13 352.36C133.7 352.36 134.18 351.95 134.18 351.46C134.18 350.89 133.7 350.49 133.13 350.49C132.91 350.49 131.82 350.49 129.86 350.49L129.86 348.69C131.82 348.69 132.91 348.69 133.13 348.69C133.7 348.69 134.18 348.28 134.18 347.79C134.18 347.22 133.7 346.81 133.13 346.81C132.91 346.81 131.82 346.81 129.86 346.81L129.86 345.02L133.13 345.02C133.13 345.17 133.13 345.25 133.13 345.27C133.7 345.27 134.18 344.86 134.18 344.29C134.18 343.8 133.7 343.39 133.13 343.39C132.91 343.39 131.82 343.39 129.86 343.39L129.86 341.51C131.82 341.51 132.91 341.51 133.13 341.51C133.7 341.51 134.18 341.1 134.18 340.61C134.18 340.13 133.7 339.72 133.13 339.72C132.91 339.72 131.82 339.72 129.86 339.72C129.86 339.18 129.86 338.88 129.86 338.82C129.86 337.27 128.42 336.05 126.6 336.05C126.53 336.05 126.18 336.05 125.54 336.05C125.54 334.38 125.54 333.46 125.54 333.27C125.54 332.78 125.06 332.37 124.49 332.37C123.91 332.37 123.43 332.78 123.43 333.27C123.43 333.46 123.43 334.38 123.43 336.05L121.22 336.05C121.22 334.38 121.22 333.46 121.22 333.27C121.22 332.78 120.74 332.37 120.17 332.37C119.59 332.37 119.11 332.78 119.11 333.27C119.11 333.46 119.11 334.38 119.11 336.05L116.9 336.05C116.9 334.38 116.9 333.46 116.9 333.27C116.9 332.78 116.42 332.37 115.85 332.37C115.27 332.37 114.79 332.78 114.79 333.27C114.79 333.46 114.79 334.38 114.79 336.05L112.58 336.05C112.58 334.38 112.58 333.46 112.58 333.27C112.58 332.78 112.1 332.37 111.53 332.37C110.95 332.37 110.47 332.78 110.47 333.27C110.47 333.46 110.47 334.38 110.47 336.05L108.26 336.05C108.26 334.38 108.26 333.46 108.26 333.27C108.26 332.78 107.78 332.37 107.21 332.37C106.63 332.37 106.15 332.78 106.15 333.27Z" id="c5mWvhsLzS"></path><path d="M106.34 340.61C106.34 341.18 106.82 341.59 107.4 341.59C107.98 341.59 108.45 341.18 108.45 340.61C108.45 340.13 107.98 339.72 107.4 339.72C106.82 339.72 106.34 340.13 106.34 340.61Z" id="f19yE7AhBr"></path><path d="M106.34 355.22C106.34 355.71 106.82 356.12 107.4 356.12C107.98 356.12 108.45 355.71 108.45 355.22C108.45 354.73 107.98 354.32 107.4 354.32C106.82 354.32 106.34 354.73 106.34 355.22Z" id="c68e65foxh"></path><path d="M123.53 355.22C123.53 355.71 124.01 356.12 124.58 356.12C125.16 356.12 125.64 355.71 125.64 355.22C125.64 354.73 125.16 354.32 124.58 354.32C124.01 354.32 123.53 354.73 123.53 355.22Z" id="alFhUhzi8"></path><path d="M123.53 340.61C123.53 341.1 124.01 341.59 124.58 341.59C125.16 341.59 125.64 341.1 125.64 340.61C125.64 340.13 125.16 339.72 124.58 339.72C124.01 339.72 123.53 340.13 123.53 340.61Z" id="a10AfHGIso"></path><path d="M117 342.57C117 342.77 117 342.88 117 342.9C117 343.31 117.29 343.63 117.77 343.71C118.34 343.88 118.92 344.2 119.4 344.53C119.64 344.63 119.92 344.74 120.2 344.74C120.35 344.74 120.51 344.7 120.65 344.61C120.67 344.6 120.8 344.55 121.03 344.45L122.09 345.92C121.86 346.06 121.73 346.15 121.7 346.16C121.32 346.32 121.13 346.73 121.22 347.06C121.32 347.63 121.32 348.12 121.22 348.69C121.13 349.1 121.32 349.42 121.7 349.59C121.73 349.6 121.86 349.69 122.09 349.83L121.03 351.3C120.8 351.2 120.67 351.15 120.65 351.14C120.48 351.07 120.28 351.02 120.09 351.02C119.85 351.02 119.61 351.08 119.4 351.22C118.92 351.63 118.34 351.87 117.77 352.04C117.29 352.2 117 352.61 117 352.85C117 352.87 117 352.98 117 353.18L114.89 353.18C114.89 352.98 114.89 352.87 114.89 352.85C114.89 352.44 114.6 352.2 114.12 352.04C113.54 351.87 112.97 351.55 112.49 351.22C112.25 351.12 111.96 351.01 111.69 351.01C111.54 351.01 111.38 351.05 111.24 351.14C111.21 351.15 111.09 351.2 110.86 351.3L109.8 349.83C110.03 349.69 110.16 349.6 110.18 349.59C110.57 349.42 110.76 349.02 110.66 348.69C110.57 348.12 110.57 347.63 110.66 347.06C110.76 346.65 110.57 346.32 110.18 346.16C110.16 346.15 110.03 346.06 109.8 345.92L110.86 344.45C111.09 344.55 111.21 344.6 111.24 344.61C111.42 344.73 111.62 344.79 111.82 344.79C112.05 344.79 112.28 344.71 112.49 344.53C112.97 344.12 113.54 343.88 114.12 343.71C114.6 343.63 114.89 343.22 114.89 342.9C114.89 342.88 114.89 342.77 114.89 342.57L117 342.57ZM113.93 340.61C113.25 340.61 112.78 341.02 112.78 341.51C112.78 341.58 112.78 342.1 112.78 342.16C112.49 342.25 112.1 342.49 111.82 342.66C111.76 342.62 111.3 342.36 111.24 342.33C111.09 342.28 110.92 342.25 110.74 342.25C110.37 342.25 110 342.38 109.8 342.66C109.59 342.97 107.9 345.52 107.69 345.83C107.4 346.24 107.49 346.81 107.98 347.06C108.02 347.08 108.24 347.19 108.65 347.39L108.65 348.36C108.24 348.56 108.02 348.67 107.98 348.69C107.59 348.85 107.3 349.51 107.69 349.91C107.9 350.23 109.59 352.78 109.8 353.1C109.98 353.35 110.32 353.52 110.66 353.52C110.86 353.52 111.06 353.46 111.24 353.34C111.3 353.32 111.76 353.12 111.82 353.1C112.2 353.26 112.58 353.51 112.78 353.59C112.78 353.64 112.78 354.1 112.78 354.16C112.78 354.73 113.25 355.14 113.93 355.14C114.36 355.14 117.82 355.14 118.25 355.14C118.82 355.14 119.3 354.73 119.3 354.16C119.3 354.1 119.3 353.64 119.3 353.59C119.69 353.51 119.98 353.26 120.26 353.1C120.32 353.12 120.78 353.32 120.84 353.34C121.02 353.43 121.24 353.48 121.45 353.48C121.81 353.48 122.16 353.35 122.28 353.1C122.5 352.78 124.27 350.23 124.49 349.91C124.68 349.51 124.58 349.02 124.1 348.69C124.06 348.67 123.87 348.56 123.53 348.36L123.53 347.39C123.87 347.19 124.06 347.08 124.1 347.06C124.58 346.81 124.78 346.24 124.49 345.83C124.27 345.52 122.5 342.97 122.28 342.66C122.15 342.38 121.75 342.21 121.36 342.21C121.18 342.21 120.99 342.25 120.84 342.33C120.78 342.36 120.32 342.62 120.26 342.66C119.88 342.49 119.49 342.25 119.3 342.16C119.3 342.1 119.3 341.58 119.3 341.51C119.3 341.02 118.82 340.61 118.25 340.61C117.38 340.61 114.79 340.61 113.93 340.61Z" id="bjckXKqIi"></path><path d="M117 347.88C117 348.36 116.52 348.77 115.94 348.77C115.37 348.77 114.89 348.36 114.89 347.88C114.89 347.39 115.37 346.98 115.94 346.98C116.52 346.98 117 347.39 117 347.88ZM112.68 347.96C112.68 349.51 114.12 350.73 115.94 350.73C117.77 350.73 119.21 349.51 119.21 347.96C119.21 346.49 117.77 345.27 115.94 345.27C114.12 345.27 112.68 346.49 112.68 347.96Z" id="d1SvwXR7bD"></path><path d="M171.57 338C172.14 338 172.62 338.41 172.62 338.9C172.62 340.72 172.62 355.27 172.62 357.09C172.62 357.58 172.14 357.99 171.57 357.99C169.43 357.99 152.38 357.99 150.25 357.99C149.58 357.99 149.2 357.58 149.2 357.09C149.2 355.27 149.2 340.72 149.2 338.9C149.2 338.41 149.58 338 150.25 338C154.51 338 167.3 338 171.57 338ZM151.11 333.27C151.11 333.46 151.11 334.38 151.11 336.05C150.42 336.05 150.04 336.05 149.96 336.05C148.24 336.05 146.79 337.27 146.79 338.82C146.79 338.88 146.79 339.18 146.79 339.72C144.84 339.72 143.75 339.72 143.53 339.72C142.95 339.72 142.48 340.13 142.48 340.61C142.48 341.1 142.95 341.51 143.53 341.51C143.75 341.51 144.84 341.51 146.79 341.51L146.79 343.39C144.84 343.39 143.75 343.39 143.53 343.39C142.95 343.39 142.48 343.8 142.48 344.29C142.48 344.86 142.95 345.27 143.53 345.27C143.75 345.27 144.84 345.27 146.79 345.27L146.79 347.06C144.84 347.06 143.75 347.06 143.53 347.06C142.95 347.06 142.48 347.47 142.48 347.96C142.48 348.53 142.95 348.93 143.53 348.93C143.75 348.93 144.84 348.93 146.79 348.93L146.79 350.73C144.84 350.73 143.75 350.73 143.53 350.73C142.95 350.73 142.48 351.14 142.48 351.63C142.48 352.2 142.95 352.61 143.53 352.61C143.75 352.61 144.84 352.61 146.79 352.61L146.79 354.4C144.84 354.4 143.75 354.4 143.53 354.4C142.95 354.4 142.48 354.81 142.48 355.3C142.48 355.87 142.95 356.28 143.53 356.28C143.75 356.28 144.84 356.28 146.79 356.28C146.79 356.82 146.79 357.11 146.79 357.17C146.79 358.73 148.24 359.95 149.96 359.95C150.04 359.95 150.42 359.95 151.11 359.95C151.11 361.56 151.11 362.46 151.11 362.64C151.11 363.21 151.6 363.62 152.17 363.62C152.75 363.62 153.23 363.21 153.23 362.64C153.23 362.45 153.23 361.47 153.23 359.7L155.44 359.7C155.44 361.37 155.44 362.29 155.44 362.48C155.44 362.97 155.91 363.38 156.49 363.38C157.07 363.38 157.55 362.97 157.55 362.48C157.55 362.29 157.55 361.37 157.55 359.7L159.75 359.7C159.75 361.37 159.75 362.29 159.75 362.48C159.75 362.97 160.24 363.38 160.81 363.38C161.39 363.38 161.87 362.97 161.87 362.48C161.87 362.29 161.87 361.37 161.87 359.7L164.07 359.7C164.07 361.37 164.07 362.29 164.07 362.48C164.07 362.97 164.56 363.38 165.13 363.38C165.71 363.38 166.19 362.97 166.19 362.48C166.19 362.29 166.19 361.37 166.19 359.7L168.4 359.7C168.4 361.37 168.4 362.29 168.4 362.48C168.4 362.97 168.87 363.38 169.45 363.38C170.03 363.38 170.51 362.97 170.51 362.48C170.51 362.29 170.51 361.37 170.51 359.7C171.14 359.7 171.49 359.7 171.56 359.7C173.39 359.7 174.83 358.48 174.83 356.93C174.83 356.87 174.83 356.57 174.83 356.03C176.79 356.03 177.87 356.03 178.09 356.03C178.67 356.03 179.15 355.63 179.15 355.14C179.15 354.65 178.67 354.24 178.09 354.24C177.87 354.24 176.79 354.24 174.83 354.24L174.83 352.36C176.79 352.36 177.87 352.36 178.09 352.36C178.67 352.36 179.15 351.95 179.15 351.46C179.15 350.89 178.67 350.49 178.09 350.49C177.87 350.49 176.79 350.49 174.83 350.49L174.83 348.69C176.79 348.69 177.87 348.69 178.09 348.69C178.67 348.69 179.15 348.28 179.15 347.79C179.15 347.22 178.67 346.81 178.09 346.81C177.87 346.81 176.79 346.81 174.83 346.81L174.83 345.02L178.09 345.02C178.09 345.17 178.09 345.25 178.09 345.27C178.67 345.27 179.15 344.86 179.15 344.29C179.15 343.8 178.67 343.39 178.09 343.39C177.87 343.39 176.79 343.39 174.83 343.39L174.83 341.51C176.79 341.51 177.87 341.51 178.09 341.51C178.67 341.51 179.15 341.1 179.15 340.61C179.15 340.13 178.67 339.72 178.09 339.72C177.87 339.72 176.79 339.72 174.83 339.72C174.83 339.18 174.83 338.88 174.83 338.82C174.83 337.27 173.39 336.05 171.56 336.05C171.49 336.05 171.14 336.05 170.51 336.05C170.51 334.38 170.51 333.46 170.51 333.27C170.51 332.78 170.03 332.37 169.45 332.37C168.87 332.37 168.4 332.78 168.4 333.27C168.4 333.46 168.4 334.38 168.4 336.05L166.19 336.05C166.19 334.38 166.19 333.46 166.19 333.27C166.19 332.78 165.71 332.37 165.13 332.37C164.56 332.37 164.07 332.78 164.07 333.27C164.07 333.46 164.07 334.38 164.07 336.05L161.87 336.05C161.87 334.38 161.87 333.46 161.87 333.27C161.87 332.78 161.39 332.37 160.81 332.37C160.24 332.37 159.75 332.78 159.75 333.27C159.75 333.46 159.75 334.38 159.75 336.05L157.55 336.05C157.55 334.38 157.55 333.46 157.55 333.27C157.55 332.78 157.07 332.37 156.49 332.37C155.91 332.37 155.44 332.78 155.44 333.27C155.44 333.46 155.44 334.38 155.44 336.05L153.23 336.05C153.23 334.38 153.23 333.46 153.23 333.27C153.23 332.78 152.75 332.37 152.17 332.37C151.6 332.37 151.11 332.78 151.11 333.27Z" id="bxtIgBzYY"></path><path d="M151.31 340.61C151.31 341.18 151.79 341.59 152.36 341.59C152.94 341.59 153.42 341.18 153.42 340.61C153.42 340.13 152.94 339.72 152.36 339.72C151.79 339.72 151.31 340.13 151.31 340.61Z" id="c1HvTiHfXi"></path><path d="M151.31 355.22C151.31 355.71 151.79 356.12 152.36 356.12C152.94 356.12 153.42 355.71 153.42 355.22C153.42 354.73 152.94 354.32 152.36 354.32C151.79 354.32 151.31 354.73 151.31 355.22Z" id="a1l3tWk5fB"></path><path d="M168.49 355.22C168.49 355.71 168.97 356.12 169.55 356.12C170.12 356.12 170.61 355.71 170.61 355.22C170.61 354.73 170.12 354.32 169.55 354.32C168.97 354.32 168.49 354.73 168.49 355.22Z" id="aPbTEwmHT"></path><path d="M168.49 340.61C168.49 341.1 168.97 341.59 169.55 341.59C170.12 341.59 170.61 341.1 170.61 340.61C170.61 340.13 170.12 339.72 169.55 339.72C168.97 339.72 168.49 340.13 168.49 340.61Z" id="b1L4MHffzv"></path><path d="M161.96 342.57C161.96 342.77 161.96 342.88 161.96 342.9C161.96 343.31 162.25 343.63 162.73 343.71C163.31 343.88 163.88 344.2 164.36 344.53C164.61 344.63 164.89 344.74 165.16 344.74C165.32 344.74 165.47 344.7 165.61 344.61C165.64 344.6 165.76 344.55 165.99 344.45L167.05 345.92C166.82 346.06 166.69 346.15 166.67 346.16C166.28 346.32 166.09 346.73 166.19 347.06C166.28 347.63 166.28 348.12 166.19 348.69C166.09 349.1 166.28 349.42 166.67 349.59C166.69 349.6 166.82 349.69 167.05 349.83L165.99 351.3C165.76 351.2 165.64 351.15 165.61 351.14C165.44 351.07 165.25 351.02 165.05 351.02C164.82 351.02 164.57 351.08 164.36 351.22C163.88 351.63 163.31 351.87 162.73 352.04C162.25 352.2 161.96 352.61 161.96 352.85C161.96 352.87 161.96 352.98 161.96 353.18L159.85 353.18C159.85 352.98 159.85 352.87 159.85 352.85C159.85 352.44 159.56 352.2 159.08 352.04C158.51 351.87 157.93 351.55 157.45 351.22C157.21 351.12 156.93 351.01 156.65 351.01C156.5 351.01 156.34 351.05 156.2 351.14C156.18 351.15 156.05 351.2 155.82 351.3L154.76 349.83C154.99 349.69 155.12 349.6 155.15 349.59C155.53 349.42 155.72 349.02 155.63 348.69C155.53 348.12 155.53 347.63 155.63 347.06C155.72 346.65 155.53 346.32 155.15 346.16C155.12 346.15 154.99 346.06 154.76 345.92L155.82 344.45C156.05 344.55 156.18 344.6 156.2 344.61C156.38 344.73 156.58 344.79 156.78 344.79C157.01 344.79 157.25 344.71 157.45 344.53C157.93 344.12 158.51 343.88 159.08 343.71C159.56 343.63 159.85 343.22 159.85 342.9C159.85 342.88 159.85 342.77 159.85 342.57L161.96 342.57ZM158.89 340.61C158.22 340.61 157.74 341.02 157.74 341.51C157.74 341.58 157.74 342.1 157.74 342.16C157.45 342.25 157.07 342.49 156.78 342.66C156.72 342.62 156.26 342.36 156.2 342.33C156.05 342.28 155.88 342.25 155.71 342.25C155.34 342.25 154.96 342.38 154.76 342.66C154.55 342.97 152.86 345.52 152.65 345.83C152.36 346.24 152.46 346.81 152.94 347.06C152.98 347.08 153.21 347.19 153.61 347.39L153.61 348.36C153.21 348.56 152.98 348.67 152.94 348.69C152.56 348.85 152.27 349.51 152.65 349.91C152.86 350.23 154.55 352.78 154.76 353.1C154.95 353.35 155.28 353.52 155.62 353.52C155.83 353.52 156.03 353.46 156.2 353.34C156.26 353.32 156.72 353.12 156.78 353.1C157.16 353.26 157.55 353.51 157.74 353.59C157.74 353.64 157.74 354.1 157.74 354.16C157.74 354.73 158.22 355.14 158.89 355.14C159.32 355.14 162.78 355.14 163.21 355.14C163.79 355.14 164.27 354.73 164.27 354.16C164.27 354.1 164.27 353.64 164.27 353.59C164.65 353.51 164.94 353.26 165.23 353.1C165.28 353.12 165.75 353.32 165.8 353.34C165.98 353.43 166.2 353.48 166.42 353.48C166.78 353.48 167.12 353.35 167.24 353.1C167.46 352.78 169.23 350.23 169.45 349.91C169.64 349.51 169.55 349.02 169.07 348.69C169.03 348.67 168.84 348.56 168.49 348.36L168.49 347.39C168.84 347.19 169.03 347.08 169.07 347.06C169.55 346.81 169.74 346.24 169.45 345.83C169.23 345.52 167.46 342.97 167.24 342.66C167.11 342.38 166.72 342.21 166.33 342.21C166.14 342.21 165.96 342.25 165.8 342.33C165.75 342.36 165.28 342.62 165.23 342.66C164.84 342.49 164.46 342.25 164.27 342.16C164.27 342.1 164.27 341.58 164.27 341.51C164.27 341.02 163.79 340.61 163.21 340.61C162.35 340.61 159.76 340.61 158.89 340.61Z" id="bUD0LPOJN"></path><path d="M161.96 347.88C161.96 348.36 161.48 348.77 160.91 348.77C160.33 348.77 159.85 348.36 159.85 347.88C159.85 347.39 160.33 346.98 160.91 346.98C161.48 346.98 161.96 347.39 161.96 347.88ZM157.64 347.96C157.64 349.51 159.08 350.73 160.91 350.73C162.73 350.73 164.17 349.51 164.17 347.96C164.17 346.49 162.73 345.27 160.91 345.27C159.08 345.27 157.64 346.49 157.64 347.96Z" id="iNYni50bn"></path><path d="M139.91 277.96C141.13 277.49 145.15 274.58 147.21 275.11C149.27 275.64 151.44 280.13 152.28 281.13" id="d26bo2sV7d"></path><path d="M139.91 277.96C141.13 277.49 145.15 274.58 147.21 275.11C149.27 275.64 151.44 280.13 152.28 281.13" id="aJfK0cIQ"></path></defs><g><g><g><use xlink:href="#a8yg2n0vT" opacity="1" fill="#ffffff" fill-opacity="1"></use><g><use xlink:href="#a8yg2n0vT" opacity="1" fill-opacity="0" stroke="#000000" stroke-width="1" stroke-opacity="0"></use></g></g><g><use xlink:href="#b2OwCVH4fI" opacity="1" fill="#000000" fill-opacity="0"></use><g><use xlink:href="#b2OwCVH4fI" opacity="1" fill-opacity="0" stroke="#000000" stroke-width="1" stroke-opacity="0"></use></g></g><g><use xlink:href="#kcAbGSl6n" opacity="1" fill="#a92d77" fill-opacity="1"></use><g><use xlink:href="#kcAbGSl6n" opacity="1" fill-opacity="0" stroke="#000000" stroke-width="1" stroke-opacity="0"></use></g></g><g><use xlink:href="#bdBcNEDuH" opacity="1" fill="#a92d77" fill-opacity="1"></use><g><use xlink:href="#bdBcNEDuH" opacity="1" fill-opacity="0" stroke="#000000" stroke-width="1" stroke-opacity="0"></use></g></g><g><use xlink:href="#b3F7EnCUIb" opacity="1" fill="#a92d77" fill-opacity="1"></use><g><use xlink:href="#b3F7EnCUIb" opacity="1" fill-opacity="0" stroke="#000000" stroke-width="1" stroke-opacity="0"></use></g></g><g><use xlink:href="#a5Jc6aYyDg" opacity="1" fill="#a92d77" fill-opacity="1"></use><g><use xlink:href="#a5Jc6aYyDg" opacity="1" fill-opacity="0" stroke="#000000" stroke-width="1" stroke-opacity="0"></use></g></g><g><use xlink:href="#jpUvWLE4p" opacity="1" fill="#000000" fill-opacity="0"></use><g><use xlink:href="#jpUvWLE4p" opacity="1" fill-opacity="0" stroke="#000000" stroke-width="1" stroke-opacity="0"></use></g></g><g><use xlink:href="#d1ammZtlf8" opacity="1" fill="#000000" fill-opacity="0"></use><g><use xlink:href="#d1ammZtlf8" opacity="1" fill-opacity="0" stroke="#2fbdb4" stroke-width="12" stroke-opacity="1"></use></g></g><g><use xlink:href="#bIq8lgI8q" opacity="1" fill="#000000" fill-opacity="0"></use><g><use xlink:href="#bIq8lgI8q" opacity="1" fill-opacity="0" stroke="#000000" stroke-width="1" stroke-opacity="0"></use></g></g><g><use xlink:href="#a2mThRNoY" opacity="1" fill="#000000" fill-opacity="0"></use><g><use xlink:href="#a2mThRNoY" opacity="1" fill-opacity="0" stroke="#a92d84" stroke-width="12" stroke-opacity="1"></use></g></g><g><use xlink:href="#aeHNi0jaa" opacity="1" fill="#2fbdb4" fill-opacity="0.74"></use><g><use xlink:href="#aeHNi0jaa" opacity="1" fill-opacity="0" stroke="#000000" stroke-width="1" stroke-opacity="0"></use></g></g><g><use xlink:href="#a25OXVsmS3" opacity="1" fill="#2fbdb4" fill-opacity="0.74"></use><g><use xlink:href="#a25OXVsmS3" opacity="1" fill-opacity="0" stroke="#000000" stroke-width="1" stroke-opacity="0"></use></g></g><g><use xlink:href="#eleluDdtq" opacity="1" fill="#2fbdb4" fill-opacity="0.74"></use><g><use xlink:href="#eleluDdtq" opacity="1" fill-opacity="0" stroke="#000000" stroke-width="1" stroke-opacity="0"></use></g></g><g><use xlink:href="#blmu3jff7" opacity="1" fill="#2fbdb4" fill-opacity="0.74"></use><g><use xlink:href="#blmu3jff7" opacity="1" fill-opacity="0" stroke="#000000" stroke-width="1" stroke-opacity="0"></use></g></g><g><use xlink:href="#fzqspz3mK" opacity="1" fill="#2fbdb4" fill-opacity="0.74"></use><g><use xlink:href="#fzqspz3mK" opacity="1" fill-opacity="0" stroke="#000000" stroke-width="1" stroke-opacity="0"></use></g></g><g><use xlink:href="#c2Io7PsiZ" opacity="1" fill="#2fbdb4" fill-opacity="0.74"></use><g><use xlink:href="#c2Io7PsiZ" opacity="1" fill-opacity="0" stroke="#000000" stroke-width="1" stroke-opacity="0"></use></g></g><g><use xlink:href="#dxIOvuxAe" opacity="1" fill="#2fbdb4" fill-opacity="0.74"></use><g><use xlink:href="#dxIOvuxAe" opacity="1" fill-opacity="0" stroke="#000000" stroke-width="1" stroke-opacity="0"></use></g></g><g><use xlink:href="#c3qhM3NmX5" opacity="1" fill="#000000" fill-opacity="0"></use><g><use xlink:href="#c3qhM3NmX5" opacity="1" fill-opacity="0" stroke="#000000" stroke-width="1" stroke-opacity="0"></use></g></g><g><use xlink:href="#a9PpmehS" opacity="1" fill="#000000" fill-opacity="0"></use><g><use xlink:href="#a9PpmehS" opacity="1" fill-opacity="0" stroke="#6f3ea1" stroke-width="12" stroke-opacity="1"></use></g></g><g><use xlink:href="#b1C1kQYbgk" opacity="1" fill="#a92d77" fill-opacity="1"></use><g><use xlink:href="#b1C1kQYbgk" opacity="1" fill-opacity="0" stroke="#000000" stroke-width="1" stroke-opacity="0"></use></g></g><g><use xlink:href="#f4F2mlybyD" opacity="1" fill="#a92d77" fill-opacity="1"></use><g><use xlink:href="#f4F2mlybyD" opacity="1" fill-opacity="0" stroke="#000000" stroke-width="1" stroke-opacity="0"></use></g></g><g><use xlink:href="#c5mWvhsLzS" opacity="1" fill="#6f3ea1" fill-opacity="1"></use><g><use xlink:href="#c5mWvhsLzS" opacity="1" fill-opacity="0" stroke="#000000" stroke-width="1" stroke-opacity="0"></use></g></g><g><use xlink:href="#f19yE7AhBr" opacity="1" fill="#6f3ea1" fill-opacity="1"></use><g><use xlink:href="#f19yE7AhBr" opacity="1" fill-opacity="0" stroke="#000000" stroke-width="1" stroke-opacity="0"></use></g></g><g><use xlink:href="#c68e65foxh" opacity="1" fill="#6f3ea1" fill-opacity="1"></use><g><use xlink:href="#c68e65foxh" opacity="1" fill-opacity="0" stroke="#000000" stroke-width="1" stroke-opacity="0"></use></g></g><g><use xlink:href="#alFhUhzi8" opacity="1" fill="#6f3ea1" fill-opacity="1"></use><g><use xlink:href="#alFhUhzi8" opacity="1" fill-opacity="0" stroke="#000000" stroke-width="1" stroke-opacity="0"></use></g></g><g><use xlink:href="#a10AfHGIso" opacity="1" fill="#6f3ea1" fill-opacity="1"></use><g><use xlink:href="#a10AfHGIso" opacity="1" fill-opacity="0" stroke="#000000" stroke-width="1" stroke-opacity="0"></use></g></g><g><use xlink:href="#bjckXKqIi" opacity="1" fill="#6f3ea1" fill-opacity="1"></use><g><use xlink:href="#bjckXKqIi" opacity="1" fill-opacity="0" stroke="#000000" stroke-width="1" stroke-opacity="0"></use></g></g><g><use xlink:href="#d1SvwXR7bD" opacity="1" fill="#6f3ea1" fill-opacity="1"></use><g><use xlink:href="#d1SvwXR7bD" opacity="1" fill-opacity="0" stroke="#000000" stroke-width="1" stroke-opacity="0"></use></g></g><g><use xlink:href="#bxtIgBzYY" opacity="1" fill="#a92d77" fill-opacity="1"></use><g><use xlink:href="#bxtIgBzYY" opacity="1" fill-opacity="0" stroke="#000000" stroke-width="1" stroke-opacity="0"></use></g></g><g><use xlink:href="#c1HvTiHfXi" opacity="1" fill="#a92d77" fill-opacity="1"></use><g><use xlink:href="#c1HvTiHfXi" opacity="1" fill-opacity="0" stroke="#000000" stroke-width="1" stroke-opacity="0"></use></g></g><g><use xlink:href="#a1l3tWk5fB" opacity="1" fill="#a92d77" fill-opacity="1"></use><g><use xlink:href="#a1l3tWk5fB" opacity="1" fill-opacity="0" stroke="#000000" stroke-width="1" stroke-opacity="0"></use></g></g><g><use xlink:href="#aPbTEwmHT" opacity="1" fill="#a92d77" fill-opacity="1"></use><g><use xlink:href="#aPbTEwmHT" opacity="1" fill-opacity="0" stroke="#000000" stroke-width="1" stroke-opacity="0"></use></g></g><g><use xlink:href="#b1L4MHffzv" opacity="1" fill="#a92d77" fill-opacity="1"></use><g><use xlink:href="#b1L4MHffzv" opacity="1" fill-opacity="0" stroke="#000000" stroke-width="1" stroke-opacity="0"></use></g></g><g><use xlink:href="#bUD0LPOJN" opacity="1" fill="#a92d77" fill-opacity="1"></use><g><use xlink:href="#bUD0LPOJN" opacity="1" fill-opacity="0" stroke="#000000" stroke-width="1" stroke-opacity="0"></use></g></g><g><use xlink:href="#iNYni50bn" opacity="1" fill="#a92d77" fill-opacity="1"></use><g><use xlink:href="#iNYni50bn" opacity="1" fill-opacity="0" stroke="#000000" stroke-width="1" stroke-opacity="0"></use></g></g><g><use xlink:href="#d26bo2sV7d" opacity="1" fill="#000000" fill-opacity="0"></use><g><use xlink:href="#d26bo2sV7d" opacity="1" fill-opacity="0" stroke="#000000" stroke-width="1" stroke-opacity="0"></use></g></g><g><use xlink:href="#aJfK0cIQ" opacity="1" fill="#000000" fill-opacity="0"></use><g><use xlink:href="#aJfK0cIQ" opacity="1" fill-opacity="0" stroke="#a92d77" stroke-width="12" stroke-opacity="1"></use></g></g></g></g></svg>